<svg width="512" height="512" viewBox="0 0 512 512" fill="none" xmlns="http://www.w3.org/2000/svg">
<path d="M1 256.062C1 425.315 115.232 511.125 256.062 511.125C396.893 511.125 511.125 424.768 511.125 256.062C511.125 84.2597 396.893 1 256.062 1C115.232 1 1 81.7091 1 256.062Z" fill="#DDB78F"/>
<path d="M1 256.062C1 425.315 115.232 511.125 256.062 511.125C396.893 511.125 511.125 424.768 511.125 256.062C511.125 84.2597 396.893 1 256.062 1C115.232 1 1 81.7091 1 256.062Z" fill="url(#paint0_radial_3_1137)"/>
<path d="M1 256.062C1 425.315 115.232 511.125 256.062 511.125C396.893 511.125 511.125 424.768 511.125 256.062C511.125 84.2597 396.893 1 256.062 1C115.232 1 1 81.7091 1 256.062Z" fill="url(#paint1_radial_3_1137)"/>
<path d="M1 256.062C1 425.315 115.232 511.125 256.062 511.125C396.893 511.125 511.125 424.768 511.125 256.062C511.125 84.2597 396.893 1 256.062 1C115.232 1 1 81.7091 1 256.062Z" fill="url(#paint2_radial_3_1137)"/>
<path d="M455.012 230.738L455.741 219.443C455.902 216.985 455.536 214.52 454.668 212.215C453.8 209.91 452.45 207.816 450.709 206.074C448.967 204.332 446.873 202.982 444.568 202.114C442.262 201.247 439.798 200.881 437.34 201.042L426.227 201.77C421.854 201.953 417.299 203.41 413.291 205.779C407.822 209.236 403.746 214.51 401.781 220.674C399.815 226.838 400.084 233.498 402.542 239.483C408.737 254.058 425.862 260.253 439.891 253.33C449 249.139 454.283 240.212 455.012 230.738V230.738Z" fill="#6F434A"/>
<g filter="url(#filter0_f_3_1137)">
<path d="M451.622 217.348C452.259 208.42 446.521 205.961 438.541 205.961C430.561 205.961 423.055 209.842 416.624 213.649C406.895 219.753 401.739 227.459 406.111 237.953C411.449 250.488 421.634 250.633 433.695 244.676C444.863 239.538 448.816 227.641 451.622 217.348Z" fill="url(#paint3_radial_3_1137)"/>
</g>
<path d="M326.933 116.142L338.229 116.871C340.687 117.032 343.151 116.666 345.456 115.798C347.762 114.931 349.855 113.581 351.597 111.839C353.339 110.097 354.689 108.003 355.557 105.698C356.425 103.392 356.79 100.928 356.629 98.4702L355.901 87.3567C355.634 82.7837 354.258 78.3443 351.893 74.4214C348.436 68.9523 343.161 64.8766 336.997 62.9107C330.833 60.9448 324.173 61.2145 318.188 63.6724C303.613 69.8667 297.419 86.9924 304.342 101.021C308.532 110.13 317.459 115.414 326.933 116.142V116.142Z" fill="#6F434A"/>
<g filter="url(#filter1_f_3_1137)">
<path d="M328.937 104.628L337.682 105.175C345.753 105.685 352.53 99.3995 351.965 91.9298L351.401 83.9499C351.187 80.6374 350.12 77.4365 348.303 74.6584C342.783 66.5328 331.615 63.2534 322.159 66.9154C310.864 71.379 306.054 83.6767 311.41 93.7699C314.672 100.329 321.595 104.118 328.937 104.628V104.628Z" fill="url(#paint4_radial_3_1137)"/>
</g>
<path d="M158.958 397.258L158.047 411.286C157.136 424.222 167.885 434.971 180.821 434.06L194.667 433.149C200.132 432.784 205.598 431.145 210.699 428.047C217.508 423.758 222.578 417.198 225.012 409.528C227.447 401.858 227.088 393.575 223.999 386.144C222.217 381.872 219.574 378.012 216.235 374.805C212.895 371.599 208.931 369.115 204.589 367.508C200.247 365.901 195.621 365.206 190.999 365.466C186.377 365.726 181.858 366.935 177.723 369.019C166.428 374.667 159.687 385.598 158.958 397.258V397.258Z" fill="#6F434A"/>
<g filter="url(#filter2_f_3_1137)">
<path d="M164.642 397.531L163.877 409.227C163.698 411.768 164.067 414.317 164.959 416.703C165.851 419.088 167.245 421.254 169.047 423.054C170.849 424.854 173.016 426.246 175.403 427.136C177.789 428.026 180.339 428.392 182.879 428.211L194.411 427.464C198.966 427.155 203.521 425.788 207.784 423.201C219.48 415.914 224.181 401.029 218.879 388.257C217.391 384.696 215.186 381.48 212.4 378.809C209.615 376.137 206.309 374.068 202.689 372.729C199.069 371.391 195.212 370.813 191.359 371.03C187.506 371.247 183.739 372.256 180.292 373.992C175.842 376.192 172.05 379.527 169.299 383.659C166.549 387.792 164.936 392.576 164.624 397.531H164.642Z" fill="url(#paint5_radial_3_1137)"/>
</g>
<path d="M336.225 241.305L336.772 232.924C338.594 205.414 315.82 182.641 288.128 184.28L279.929 184.827C271.731 185.191 263.533 187.56 255.881 192.114C244.9 198.632 236.62 208.87 232.542 220.97C228.464 233.071 228.858 246.232 233.654 258.066C245.496 287.034 279.201 299.241 306.711 285.577C324.565 277.014 335.132 259.706 336.225 241.305V241.305Z" fill="#6F434A"/>
<g filter="url(#filter3_f_3_1137)">
<path d="M329.376 237.552L329.814 230.739C330.153 225.463 329.364 220.175 327.5 215.228C325.635 210.281 322.737 205.788 319 202.049C315.263 198.31 310.771 195.41 305.825 193.543C300.879 191.676 295.591 190.885 290.315 191.222L283.647 191.659C276.746 191.981 270.034 194.016 264.117 197.581C255.199 202.874 248.475 211.189 245.162 221.016C241.85 230.843 242.169 241.532 246.062 251.144C248.312 256.654 251.676 261.64 255.942 265.791C260.208 269.941 265.285 273.167 270.855 275.265C276.425 277.363 282.368 278.289 288.312 277.985C294.256 277.681 300.074 276.154 305.4 273.498C312.249 270.202 318.086 265.127 322.304 258.804C326.521 252.481 328.964 245.142 329.376 237.552V237.552Z" fill="url(#paint6_radial_3_1137)"/>
</g>
<path d="M104.481 136.183L103.935 128.531C102.477 103.572 123.064 82.8023 148.024 84.442L155.494 84.9885C162.963 85.3529 170.433 87.5392 177.356 91.5473C197.943 103.572 206.506 129.442 197.579 151.487C195.056 157.638 191.291 163.203 186.522 167.835C181.752 172.467 176.079 176.066 169.856 178.408C163.634 180.75 156.995 181.784 150.355 181.447C143.715 181.11 137.216 179.407 131.263 176.447C115.23 168.43 105.574 152.762 104.481 136.183V136.183Z" fill="url(#paint7_radial_3_1137)"/>
<g filter="url(#filter4_f_3_1137)">
<path d="M113.173 135.6L112.717 129.333C112.416 124.512 113.144 119.682 114.851 115.163C116.559 110.645 119.209 106.541 122.623 103.125C126.038 99.708 130.141 97.0567 134.658 95.3465C139.176 93.6363 144.005 92.9064 148.827 93.2051L154.948 93.6606C161.07 93.9521 170.124 93.3691 175.79 96.6484C192.643 106.487 197.908 127.547 190.584 145.62C181.784 167.1 155.549 178.724 135.108 168.576C128.891 165.473 123.594 160.797 119.746 155.011C115.898 149.226 113.631 142.533 113.173 135.6V135.6Z" fill="url(#paint8_radial_3_1137)"/>
</g>
<path d="M406.549 380.315L406.913 386.873C408.371 408.189 390.516 426.044 369.2 424.586L362.824 424.222C356.447 423.857 350.071 422.035 344.058 418.574C335.535 413.513 329.105 405.57 325.93 396.18C322.756 386.79 323.047 376.573 326.751 367.379C328.911 362.106 332.138 357.335 336.228 353.366C340.318 349.397 345.183 346.316 350.519 344.315C355.856 342.314 361.548 341.436 367.239 341.737C372.93 342.038 378.498 343.511 383.593 346.063C397.439 352.622 405.638 365.922 406.549 380.315Z" fill="#6F434A"/>
<g filter="url(#filter5_f_3_1137)">
<path d="M402.287 378.493L402.597 383.995C402.872 388.23 402.241 392.475 400.746 396.447C399.251 400.42 396.925 404.027 393.925 407.029C390.925 410.031 387.319 412.358 383.348 413.856C379.376 415.354 375.131 415.987 370.896 415.714L365.522 415.404C359.964 415.083 354.559 413.46 349.744 410.667C342.574 406.414 337.163 399.735 334.49 391.839C331.817 383.942 332.058 375.35 335.169 367.616C336.984 363.177 339.697 359.161 343.138 355.82C346.579 352.48 350.673 349.886 355.164 348.203C359.655 346.519 364.445 345.782 369.234 346.038C374.023 346.294 378.707 347.537 382.993 349.689C388.502 352.309 393.203 356.365 396.601 361.431C399.999 366.496 401.97 372.384 402.305 378.475L402.287 378.493Z" fill="url(#paint9_radial_3_1137)"/>
</g>
<path d="M72.2364 284.119L71.5076 272.823C71.3468 270.365 71.7125 267.901 72.5804 265.596C73.4482 263.29 74.7982 261.197 76.5401 259.455C78.2819 257.713 80.3755 256.363 82.6809 255.495C84.9864 254.627 87.4505 254.262 89.9086 254.423L101.022 255.151C105.395 255.333 109.949 256.791 113.957 259.159C125.253 266.265 129.808 280.658 124.706 292.864C118.512 307.439 101.386 313.634 87.3579 306.71C78.2486 302.52 72.7829 293.593 72.2364 284.119V284.119Z" fill="#6F434A"/>
<g filter="url(#filter6_f_3_1137)">
<path d="M77.7376 283.682L77.1546 274.7C77.0262 272.745 77.3164 270.785 78.0059 268.95C78.6954 267.116 79.7684 265.45 81.1531 264.064C82.5378 262.677 84.2024 261.602 86.0357 260.911C87.869 260.219 89.8288 259.926 91.7843 260.052L100.639 260.635C104.1 260.781 107.744 261.929 110.932 263.823C119.914 269.471 123.54 280.931 119.477 290.642C118.314 293.37 116.607 295.833 114.459 297.879C112.312 299.925 109.77 301.511 106.989 302.541C104.207 303.571 101.245 304.023 98.283 303.869C95.321 303.715 92.4216 302.959 89.762 301.646C86.3167 300.024 83.3775 297.495 81.2593 294.331C79.1411 291.166 77.9237 287.485 77.7376 283.682V283.682Z" fill="url(#paint10_radial_3_1137)"/>
</g>
<defs>
<filter id="filter0_f_3_1137" x="404.041" y="205.461" width="48.1294" height="43.5325" filterUnits="userSpaceOnUse" color-interpolation-filters="sRGB">
<feFlood flood-opacity="0" result="BackgroundImageFix"/>
<feBlend mode="normal" in="SourceGraphic" in2="BackgroundImageFix" result="shape"/>
<feGaussianBlur stdDeviation="0.25" result="effect1_foregroundBlur_3_1137"/>
</filter>
<filter id="filter1_f_3_1137" x="308.721" y="64.9255" width="43.7769" height="40.7783" filterUnits="userSpaceOnUse" color-interpolation-filters="sRGB">
<feFlood flood-opacity="0" result="BackgroundImageFix"/>
<feBlend mode="normal" in="SourceGraphic" in2="BackgroundImageFix" result="shape"/>
<feGaussianBlur stdDeviation="0.25" result="effect1_foregroundBlur_3_1137"/>
</filter>
<filter id="filter2_f_3_1137" x="163.333" y="370.485" width="58.2134" height="58.2709" filterUnits="userSpaceOnUse" color-interpolation-filters="sRGB">
<feFlood flood-opacity="0" result="BackgroundImageFix"/>
<feBlend mode="normal" in="SourceGraphic" in2="BackgroundImageFix" result="shape"/>
<feGaussianBlur stdDeviation="0.25" result="effect1_foregroundBlur_3_1137"/>
</filter>
<filter id="filter3_f_3_1137" x="242.391" y="190.646" width="87.9995" height="87.8954" filterUnits="userSpaceOnUse" color-interpolation-filters="sRGB">
<feFlood flood-opacity="0" result="BackgroundImageFix"/>
<feBlend mode="normal" in="SourceGraphic" in2="BackgroundImageFix" result="shape"/>
<feGaussianBlur stdDeviation="0.25" result="effect1_foregroundBlur_3_1137"/>
</filter>
<filter id="filter4_f_3_1137" x="112.151" y="92.6399" width="82.1538" height="80.1511" filterUnits="userSpaceOnUse" color-interpolation-filters="sRGB">
<feFlood flood-opacity="0" result="BackgroundImageFix"/>
<feBlend mode="normal" in="SourceGraphic" in2="BackgroundImageFix" result="shape"/>
<feGaussianBlur stdDeviation="0.25" result="effect1_foregroundBlur_3_1137"/>
</filter>
<filter id="filter5_f_3_1137" x="332.146" y="345.489" width="71.0132" height="70.787" filterUnits="userSpaceOnUse" color-interpolation-filters="sRGB">
<feFlood flood-opacity="0" result="BackgroundImageFix"/>
<feBlend mode="normal" in="SourceGraphic" in2="BackgroundImageFix" result="shape"/>
<feGaussianBlur stdDeviation="0.25" result="effect1_foregroundBlur_3_1137"/>
</filter>
<filter id="filter6_f_3_1137" x="76.625" y="259.524" width="45.0078" height="44.8748" filterUnits="userSpaceOnUse" color-interpolation-filters="sRGB">
<feFlood flood-opacity="0" result="BackgroundImageFix"/>
<feBlend mode="normal" in="SourceGraphic" in2="BackgroundImageFix" result="shape"/>
<feGaussianBlur stdDeviation="0.25" result="effect1_foregroundBlur_3_1137"/>
</filter>
<radialGradient id="paint0_radial_3_1137" cx="0" cy="0" r="1" gradientUnits="userSpaceOnUse" gradientTransform="translate(391.56 106.898) rotate(119.554) scale(380.912)">
<stop stop-color="#FFDAAE"/>
<stop offset="1" stop-color="#D59077" stop-opacity="0"/>
</radialGradient>
<radialGradient id="paint1_radial_3_1137" cx="0" cy="0" r="1" gradientUnits="userSpaceOnUse" gradientTransform="translate(281.12 256.073) rotate(83.29) scale(311.854 296.412)">
<stop offset="0.772" stop-color="#BF9E7A" stop-opacity="0"/>
<stop offset="1" stop-color="#C4A47E"/>
</radialGradient>
<radialGradient id="paint2_radial_3_1137" cx="0" cy="0" r="1" gradientUnits="userSpaceOnUse" gradientTransform="translate(317.558 82.9965) rotate(92.681) scale(681.671)">
<stop offset="0.325" stop-color="#E9AB8B" stop-opacity="0"/>
<stop offset="0.505" stop-color="#DE9A80"/>
<stop offset="0.656" stop-color="#D07067"/>
</radialGradient>
<radialGradient id="paint3_radial_3_1137" cx="0" cy="0" r="1" gradientUnits="userSpaceOnUse" gradientTransform="translate(449.41 207.949) rotate(140.104) scale(50.152 47.5832)">
<stop offset="0.175" stop-color="#886562"/>
<stop offset="1" stop-color="#8E6C67" stop-opacity="0"/>
</radialGradient>
<radialGradient id="paint4_radial_3_1137" cx="0" cy="0" r="1" gradientUnits="userSpaceOnUse" gradientTransform="translate(352.002 99.5634) rotate(-149.903) scale(52.8423 50.8593)">
<stop offset="0.175" stop-color="#886562"/>
<stop offset="1" stop-color="#8E6C67" stop-opacity="0"/>
</radialGradient>
<radialGradient id="paint5_radial_3_1137" cx="0" cy="0" r="1" gradientUnits="userSpaceOnUse" gradientTransform="translate(167.338 424.731) rotate(-41.0159) scale(71.2045 72.883)">
<stop offset="0.47" stop-color="#896764" stop-opacity="0"/>
<stop offset="0.935" stop-color="#896763"/>
</radialGradient>
<radialGradient id="paint6_radial_3_1137" cx="0" cy="0" r="1" gradientUnits="userSpaceOnUse" gradientTransform="translate(242.855 256.063) rotate(-21.7768) scale(101.286 103.708)">
<stop offset="0.388" stop-color="#896764" stop-opacity="0"/>
<stop offset="0.935" stop-color="#896763"/>
</radialGradient>
<radialGradient id="paint7_radial_3_1137" cx="0" cy="0" r="1" gradientUnits="userSpaceOnUse" gradientTransform="translate(167.23 126.247) rotate(123.403) scale(66.1876 66.237)">
<stop stop-color="#7D5755"/>
<stop offset="1" stop-color="#60383B"/>
</radialGradient>
<radialGradient id="paint8_radial_3_1137" cx="0" cy="0" r="1" gradientUnits="userSpaceOnUse" gradientTransform="translate(112.662 138.788) rotate(-3.96089) scale(87.8186 87.884)">
<stop offset="0.597" stop-color="#896764" stop-opacity="0"/>
<stop offset="0.935" stop-color="#896763"/>
</radialGradient>
<radialGradient id="paint9_radial_3_1137" cx="0" cy="0" r="1" gradientUnits="userSpaceOnUse" gradientTransform="translate(336.918 411.487) rotate(-40.8861) scale(86.9803 88.9734)">
<stop offset="0.47" stop-color="#896764" stop-opacity="0"/>
<stop offset="0.935" stop-color="#896763"/>
</radialGradient>
<radialGradient id="paint10_radial_3_1137" cx="0" cy="0" r="1" gradientUnits="userSpaceOnUse" gradientTransform="translate(79.7964 301.208) rotate(-40.8959) scale(54.6746 55.9301)">
<stop offset="0.47" stop-color="#896764" stop-opacity="0"/>
<stop offset="0.935" stop-color="#896763"/>
</radialGradient>
</defs>
</svg>
