<svg width="512" height="512" viewBox="0 0 512 512" fill="none" xmlns="http://www.w3.org/2000/svg">
<path d="M273.956 1H237.165V110.312H273.956V1Z" fill="url(#paint0_linear_3_826)"/>
<path d="M93.6791 164.969L99.1978 169.523H411.924L417.442 164.969L421.121 128.531L417.442 123.977H93.6791L90 128.531L93.6791 164.969Z" fill="#B4DBFF"/>
<path d="M93.6791 164.969L99.1978 169.523H411.924L417.442 164.969L421.121 128.531L417.442 123.977H93.6791L90 128.531L93.6791 164.969Z" fill="url(#paint1_linear_3_826)"/>
<path d="M93.6791 164.969L99.1978 169.523H411.924L417.442 164.969L421.121 128.531L417.442 123.977H93.6791L90 128.531L93.6791 164.969Z" fill="url(#paint2_linear_3_826)"/>
<path d="M90 110.312H421.121" stroke="#A0C9FF" stroke-width="2" stroke-linecap="round" stroke-linejoin="round"/>
<path d="M90 110.312H421.121" stroke="url(#paint3_radial_3_826)" stroke-width="2" stroke-linecap="round" stroke-linejoin="round"/>
<path d="M90 110.312H421.121" stroke="url(#paint4_radial_3_826)" stroke-width="2" stroke-linecap="round" stroke-linejoin="round"/>
<path d="M90 110.312H421.121" stroke="url(#paint5_radial_3_826)" stroke-width="2" stroke-linecap="round" stroke-linejoin="round"/>
<path d="M90 110.312H421.121" stroke="url(#paint6_linear_3_826)" stroke-width="2" stroke-linecap="round" stroke-linejoin="round"/>
<path d="M93.6785 164.969L126.791 492.906C128.189 503.163 135.988 511.125 145.186 511.125H365.934C375.132 511.125 382.545 503.929 384.329 492.906L417.442 164.969H93.6785Z" fill="#EB9C5B"/>
<path d="M93.6785 164.969L126.791 492.906C128.189 503.163 135.988 511.125 145.186 511.125H365.934C375.132 511.125 382.545 503.929 384.329 492.906L417.442 164.969H93.6785Z" fill="url(#paint7_radial_3_826)"/>
<path d="M93.6785 164.969L126.791 492.906C128.189 503.163 135.988 511.125 145.186 511.125H365.934C375.132 511.125 382.545 503.929 384.329 492.906L417.442 164.969H93.6785Z" fill="url(#paint8_radial_3_826)"/>
<path d="M93.6785 164.969L126.791 492.906C128.189 503.163 135.988 511.125 145.186 511.125H365.934C375.132 511.125 382.545 503.929 384.329 492.906L417.442 164.969H93.6785Z" fill="url(#paint9_radial_3_826)"/>
<path d="M303.205 434.752C309.596 434.752 315.726 432.237 320.245 427.762C324.764 423.286 327.303 417.215 327.303 410.885C327.303 404.556 324.764 398.485 320.245 394.009C315.726 389.533 309.596 387.019 303.205 387.019C296.814 387.019 290.684 389.533 286.165 394.009C281.646 398.485 279.107 404.556 279.107 410.885C279.107 417.215 281.646 423.286 286.165 427.762C290.684 432.237 296.814 434.752 303.205 434.752V434.752Z" fill="url(#paint10_radial_3_826)"/>
<path d="M303.205 434.752C309.596 434.752 315.726 432.237 320.245 427.762C324.764 423.286 327.303 417.215 327.303 410.885C327.303 404.556 324.764 398.485 320.245 394.009C315.726 389.533 309.596 387.019 303.205 387.019C296.814 387.019 290.684 389.533 286.165 394.009C281.646 398.485 279.107 404.556 279.107 410.885C279.107 417.215 281.646 423.286 286.165 427.762C290.684 432.237 296.814 434.752 303.205 434.752V434.752Z" fill="url(#paint11_radial_3_826)"/>
<path d="M208.542 434.752C214.933 434.752 221.062 432.237 225.582 427.762C230.101 423.286 232.64 417.215 232.64 410.885C232.64 404.556 230.101 398.485 225.582 394.009C221.062 389.533 214.933 387.019 208.542 387.019C202.15 387.019 196.021 389.533 191.502 394.009C186.982 398.485 184.443 404.556 184.443 410.885C184.443 417.215 186.982 423.286 191.502 427.762C196.021 432.237 202.15 434.752 208.542 434.752V434.752Z" fill="url(#paint12_radial_3_826)"/>
<path d="M208.542 434.752C214.933 434.752 221.062 432.237 225.582 427.762C230.101 423.286 232.64 417.215 232.64 410.885C232.64 404.556 230.101 398.485 225.582 394.009C221.062 389.533 214.933 387.019 208.542 387.019C202.15 387.019 196.021 389.533 191.502 394.009C186.982 398.485 184.443 404.556 184.443 410.885C184.443 417.215 186.982 423.286 191.502 427.762C196.021 432.237 202.15 434.752 208.542 434.752V434.752Z" fill="url(#paint13_radial_3_826)"/>
<path d="M337.274 488.042C343.665 488.042 349.795 485.527 354.314 481.051C358.833 476.576 361.372 470.505 361.372 464.175C361.372 457.845 358.833 451.775 354.314 447.299C349.795 442.823 343.665 440.309 337.274 440.309C330.883 440.309 324.753 442.823 320.234 447.299C315.714 451.775 313.176 457.845 313.176 464.175C313.176 470.505 315.714 476.576 320.234 481.051C324.753 485.527 330.883 488.042 337.274 488.042Z" fill="url(#paint14_radial_3_826)"/>
<path d="M337.274 488.042C343.665 488.042 349.795 485.527 354.314 481.051C358.833 476.576 361.372 470.505 361.372 464.175C361.372 457.845 358.833 451.775 354.314 447.299C349.795 442.823 343.665 440.309 337.274 440.309C330.883 440.309 324.753 442.823 320.234 447.299C315.714 451.775 313.176 457.845 313.176 464.175C313.176 470.505 315.714 476.576 320.234 481.051C324.753 485.527 330.883 488.042 337.274 488.042Z" fill="url(#paint15_radial_3_826)"/>
<path d="M255.009 488.042C261.4 488.042 267.53 485.527 272.049 481.051C276.568 476.576 279.107 470.505 279.107 464.175C279.107 457.845 276.568 451.775 272.049 447.299C267.53 442.823 261.4 440.309 255.009 440.309C248.618 440.309 242.488 442.823 237.969 447.299C233.45 451.775 230.911 457.845 230.911 464.175C230.911 470.505 233.45 476.576 237.969 481.051C242.488 485.527 248.618 488.042 255.009 488.042Z" fill="url(#paint16_radial_3_826)"/>
<path d="M255.009 488.042C261.4 488.042 267.53 485.527 272.049 481.051C276.568 476.576 279.107 470.505 279.107 464.175C279.107 457.845 276.568 451.775 272.049 447.299C267.53 442.823 261.4 440.309 255.009 440.309C248.618 440.309 242.488 442.823 237.969 447.299C233.45 451.775 230.911 457.845 230.911 464.175C230.911 470.505 233.45 476.576 237.969 481.051C242.488 485.527 248.618 488.042 255.009 488.042Z" fill="url(#paint17_radial_3_826)"/>
<path d="M172.744 488.042C179.135 488.042 185.265 485.527 189.784 481.051C194.303 476.576 196.842 470.505 196.842 464.175C196.842 457.845 194.303 451.775 189.784 447.299C185.265 442.823 179.135 440.309 172.744 440.309C166.353 440.309 160.223 442.823 155.704 447.299C151.185 451.775 148.646 457.845 148.646 464.175C148.646 470.505 151.185 476.576 155.704 481.051C160.223 485.527 166.353 488.042 172.744 488.042Z" fill="url(#paint18_radial_3_826)"/>
<path d="M172.744 488.042C179.135 488.042 185.265 485.527 189.784 481.051C194.303 476.576 196.842 470.505 196.842 464.175C196.842 457.845 194.303 451.775 189.784 447.299C185.265 442.823 179.135 440.309 172.744 440.309C166.353 440.309 160.223 442.823 155.704 447.299C151.185 451.775 148.646 457.845 148.646 464.175C148.646 470.505 151.185 476.576 155.704 481.051C160.223 485.527 166.353 488.042 172.744 488.042Z" fill="url(#paint19_radial_3_826)"/>
<path opacity="0.75" d="M273.956 128.531H237.165V164.969H273.956V128.531Z" fill="#9679BB"/>
<path d="M273.956 128.531H237.165V164.969H273.956V128.531Z" fill="url(#paint20_linear_3_826)"/>
<path opacity="0.75" d="M273.956 92.0938H237.165V128.531H273.956V92.0938Z" fill="#BCA4EB"/>
<path d="M273.956 92.0938H237.165V128.531H273.956V92.0938Z" fill="url(#paint21_linear_3_826)"/>
<path d="M273.956 92.0938H237.165V128.531H273.956V92.0938Z" fill="url(#paint22_linear_3_826)"/>
<path d="M273.956 92.0938H237.165V128.531H273.956V92.0938Z" fill="url(#paint23_linear_3_826)"/>
<path d="M273.956 92.0938H237.165V128.531H273.956V92.0938Z" fill="url(#paint24_radial_3_826)"/>
<path d="M329.952 394.725L348.164 217.985C348.575 213.474 350.669 209.277 354.036 206.212C357.403 203.146 361.802 201.433 366.376 201.406C377.045 201.406 385.507 210.516 384.587 221.082L366.376 397.823C365.64 407.296 357.73 414.402 348.164 414.402C337.494 414.402 329.033 405.292 329.952 394.725V394.725Z" fill="url(#paint25_linear_3_826)"/>
<defs>
<linearGradient id="paint0_linear_3_826" x1="237.165" y1="68.7555" x2="273.956" y2="68.7555" gradientUnits="userSpaceOnUse">
<stop stop-color="#785FAB"/>
<stop offset="0.266" stop-color="#7D5EB4"/>
<stop offset="0.711" stop-color="#A081D7"/>
<stop offset="1" stop-color="#9C7ED5"/>
</linearGradient>
<linearGradient id="paint1_linear_3_826" x1="90" y1="153.582" x2="117.017" y2="150.685" gradientUnits="userSpaceOnUse">
<stop stop-color="#A1BDDB"/>
<stop offset="1" stop-color="#A1C2E5" stop-opacity="0"/>
</linearGradient>
<linearGradient id="paint2_linear_3_826" x1="421.121" y1="146.75" x2="395.262" y2="144.132" gradientUnits="userSpaceOnUse">
<stop stop-color="#A1BDDB"/>
<stop offset="1" stop-color="#A1C2E5" stop-opacity="0"/>
</linearGradient>
<radialGradient id="paint3_radial_3_826" cx="0" cy="0" r="1" gradientUnits="userSpaceOnUse" gradientTransform="translate(-nan -nan) rotate(-nan) scale(-nan -nan)">
<stop offset="0.193" stop-color="#CEF7FF"/>
<stop offset="1" stop-color="#CEF7FF" stop-opacity="0"/>
</radialGradient>
<radialGradient id="paint4_radial_3_826" cx="0" cy="0" r="1" gradientUnits="userSpaceOnUse" gradientTransform="translate(-nan -nan) rotate(-nan) scale(-nan -nan)">
<stop offset="0.193" stop-color="#C1E5FF"/>
<stop offset="0.573" stop-color="#AED6FE"/>
<stop offset="1" stop-color="#A9D2FB" stop-opacity="0"/>
</radialGradient>
<radialGradient id="paint5_radial_3_826" cx="0" cy="0" r="1" gradientUnits="userSpaceOnUse" gradientTransform="translate(-nan -nan) rotate(-nan) scale(-nan -nan)">
<stop offset="0.645" stop-color="#A8C1E0" stop-opacity="0"/>
<stop offset="0.868" stop-color="#A3C4E9"/>
</radialGradient>
<linearGradient id="paint6_linear_3_826" x1="-nan" y1="-nan" x2="-nan" y2="-nan" gradientUnits="userSpaceOnUse">
<stop stop-color="#99B7E6" stop-opacity="0"/>
<stop offset="1" stop-color="#9AB7E8"/>
</linearGradient>
<radialGradient id="paint7_radial_3_826" cx="0" cy="0" r="1" gradientUnits="userSpaceOnUse" gradientTransform="translate(338.34 281.113) rotate(91.6122) scale(653.856 266.759)">
<stop offset="0.029" stop-color="#FFBB85"/>
<stop offset="0.277" stop-color="#F5A07F"/>
<stop offset="1" stop-color="#DA8664" stop-opacity="0"/>
</radialGradient>
<radialGradient id="paint8_radial_3_826" cx="0" cy="0" r="1" gradientUnits="userSpaceOnUse" gradientTransform="translate(354.437 451.914) rotate(90) scale(166.246 503.58)">
<stop stop-color="#FFD4A4"/>
<stop offset="1" stop-color="#FFB09B" stop-opacity="0"/>
</radialGradient>
<radialGradient id="paint9_radial_3_826" cx="0" cy="0" r="1" gradientUnits="userSpaceOnUse" gradientTransform="translate(50.9086 178.633) rotate(91.4196) scale(371.32 257.629)">
<stop stop-color="#C77F51"/>
<stop offset="1" stop-color="#CC7C4A" stop-opacity="0"/>
</radialGradient>
<radialGradient id="paint10_radial_3_826" cx="0" cy="0" r="1" gradientUnits="userSpaceOnUse" gradientTransform="translate(313.456 402.391) rotate(137.297) scale(34.419 34.394)">
<stop stop-color="#9D6F6C"/>
<stop offset="0.95" stop-color="#774A43"/>
</radialGradient>
<radialGradient id="paint11_radial_3_826" cx="0" cy="0" r="1" gradientUnits="userSpaceOnUse" gradientTransform="translate(303.205 431.418) rotate(90) scale(25.0508 35.9254)">
<stop stop-color="#803863"/>
<stop offset="1" stop-color="#854460" stop-opacity="0"/>
</radialGradient>
<radialGradient id="paint12_radial_3_826" cx="0" cy="0" r="1" gradientUnits="userSpaceOnUse" gradientTransform="translate(218.793 402.39) rotate(137.297) scale(34.419 34.394)">
<stop stop-color="#9D6F6C"/>
<stop offset="0.95" stop-color="#774A43"/>
</radialGradient>
<radialGradient id="paint13_radial_3_826" cx="0" cy="0" r="1" gradientUnits="userSpaceOnUse" gradientTransform="translate(208.542 431.418) rotate(90) scale(25.0508 35.9254)">
<stop stop-color="#803863"/>
<stop offset="1" stop-color="#854460" stop-opacity="0"/>
</radialGradient>
<radialGradient id="paint14_radial_3_826" cx="0" cy="0" r="1" gradientUnits="userSpaceOnUse" gradientTransform="translate(347.517 455.681) rotate(137.297) scale(34.419 34.394)">
<stop stop-color="#9D6F6C"/>
<stop offset="0.95" stop-color="#774A43"/>
</radialGradient>
<radialGradient id="paint15_radial_3_826" cx="0" cy="0" r="1" gradientUnits="userSpaceOnUse" gradientTransform="translate(337.274 484.708) rotate(90) scale(25.0508 35.9254)">
<stop stop-color="#803863"/>
<stop offset="1" stop-color="#854460" stop-opacity="0"/>
</radialGradient>
<radialGradient id="paint16_radial_3_826" cx="0" cy="0" r="1" gradientUnits="userSpaceOnUse" gradientTransform="translate(265.244 455.66) rotate(137.297) scale(34.419 34.394)">
<stop stop-color="#9D6F6C"/>
<stop offset="0.95" stop-color="#774A43"/>
</radialGradient>
<radialGradient id="paint17_radial_3_826" cx="0" cy="0" r="1" gradientUnits="userSpaceOnUse" gradientTransform="translate(255.009 484.708) rotate(90) scale(25.0508 35.9254)">
<stop stop-color="#803863"/>
<stop offset="1" stop-color="#854460" stop-opacity="0"/>
</radialGradient>
<radialGradient id="paint18_radial_3_826" cx="0" cy="0" r="1" gradientUnits="userSpaceOnUse" gradientTransform="translate(182.939 455.65) rotate(137.297) scale(34.419 34.394)">
<stop stop-color="#9D6F6C"/>
<stop offset="0.95" stop-color="#774A43"/>
</radialGradient>
<radialGradient id="paint19_radial_3_826" cx="0" cy="0" r="1" gradientUnits="userSpaceOnUse" gradientTransform="translate(172.744 484.708) rotate(90) scale(25.0508 35.9254)">
<stop stop-color="#803863"/>
<stop offset="1" stop-color="#854460" stop-opacity="0"/>
</radialGradient>
<linearGradient id="paint20_linear_3_826" x1="237.165" y1="151.122" x2="273.956" y2="151.122" gradientUnits="userSpaceOnUse">
<stop stop-color="#9782BA"/>
<stop offset="0.266" stop-color="#9678BC"/>
<stop offset="0.711" stop-color="#AB8DD6"/>
<stop offset="1" stop-color="#A794DB"/>
</linearGradient>
<linearGradient id="paint21_linear_3_826" x1="237.165" y1="114.685" x2="273.956" y2="114.685" gradientUnits="userSpaceOnUse">
<stop stop-color="#9782BA"/>
<stop offset="0.266" stop-color="#9678BC"/>
<stop offset="0.711" stop-color="#AB8DD6"/>
<stop offset="1" stop-color="#A794DB"/>
</linearGradient>
<linearGradient id="paint22_linear_3_826" x1="255.561" y1="88.1038" x2="255.561" y2="96.0837" gradientUnits="userSpaceOnUse">
<stop stop-color="#AB98CA"/>
<stop offset="1" stop-color="#BDACDA" stop-opacity="0"/>
</linearGradient>
<linearGradient id="paint23_linear_3_826" x1="255.193" y1="125.398" x2="254.85" y2="129.607" gradientUnits="userSpaceOnUse">
<stop stop-color="#8563A9" stop-opacity="0"/>
<stop offset="1" stop-color="#8965AF"/>
</linearGradient>
<radialGradient id="paint24_radial_3_826" cx="0" cy="0" r="1" gradientUnits="userSpaceOnUse" gradientTransform="translate(254.843 111.151) rotate(86.1998) scale(10.8412 106.313)">
<stop stop-color="#B398DC"/>
<stop offset="1" stop-color="#B197D9" stop-opacity="0"/>
</radialGradient>
<linearGradient id="paint25_linear_3_826" x1="355.982" y1="201.406" x2="355.982" y2="474.688" gradientUnits="userSpaceOnUse">
<stop stop-color="#FFFFFA"/>
<stop offset="0.829" stop-color="#FFFFFA" stop-opacity="0"/>
</linearGradient>
</defs>
</svg>
