<svg width="512" height="512" viewBox="0 0 512 512" fill="none" xmlns="http://www.w3.org/2000/svg">
<path d="M467.874 256.256L231.789 20.1717L20.9019 231.242L256.986 467.326C284.985 495.298 322.944 511.011 362.521 511.011C402.099 511.011 440.057 495.298 468.056 467.326C526.119 409.081 526.119 314.501 467.874 256.256V256.256Z" fill="url(#paint0_linear_3_720)"/>
<path d="M467.874 256.256L231.789 20.1717L20.9019 231.242L256.986 467.326C284.985 495.298 322.944 511.011 362.521 511.011C402.099 511.011 440.057 495.298 468.056 467.326C526.119 409.081 526.119 314.501 467.874 256.256V256.256Z" fill="url(#paint1_radial_3_720)"/>
<path d="M467.874 467.326C495.846 439.327 511.559 401.369 511.559 361.791C511.559 322.213 495.846 284.255 467.874 256.256L420.584 208.966C473.351 302.816 464.587 422.045 394.292 507.495C422.199 501.534 447.767 487.577 467.874 467.326V467.326Z" fill="url(#paint2_linear_3_720)"/>
<path d="M420.584 208.966L315.962 104.344C343.935 132.343 359.647 170.301 359.647 209.879C359.647 249.457 343.935 287.415 315.962 315.414C287.963 343.386 250.005 359.099 210.427 359.099C170.849 359.099 132.891 343.386 104.892 315.414L256.804 467.326C274.495 485.042 296.368 498.01 320.4 505.031C344.431 512.052 369.846 512.9 394.292 507.495C464.587 422.045 473.352 302.816 420.584 208.966V208.966Z" fill="url(#paint3_linear_3_720)"/>
<path d="M245.118 75.1303C243.631 63.023 238.774 51.5768 231.099 42.0953C223.425 32.6138 213.242 25.4781 201.71 21.501C190.178 17.5239 177.761 16.8652 165.874 19.6001C153.986 22.3349 143.105 28.3533 134.471 36.9697L36.4219 135.019C24.233 147.229 17.3872 163.777 17.3872 181.03C17.3872 198.283 24.233 214.832 36.4219 227.042C47.1945 237.815 60.7059 243.84 74.5825 245.666L245.118 75.1303V75.1303Z" fill="url(#paint4_radial_3_720)"/>
<path d="M234.528 46.6468C229.16 38.6781 222.095 31.9958 213.841 27.079C205.586 22.1622 196.346 19.1327 186.782 18.2078C177.218 17.2828 167.569 18.4853 158.525 21.7291C149.481 24.9728 141.266 30.1774 134.471 36.9697L36.4218 135.019C29.6295 141.814 24.4249 150.029 21.1812 159.073C17.9375 168.117 16.735 177.766 17.6599 187.33C18.5848 196.893 21.6143 206.134 26.5311 214.389C31.4479 222.643 38.1302 229.708 46.0989 235.076L234.528 46.6468Z" fill="url(#paint5_radial_3_720)"/>
<g filter="url(#filter0_f_3_720)">
<path d="M235.423 114.405C242.726 101.258 245.282 86.1037 242.726 71.6794C235.605 72.4097 228.85 75.5137 223.372 80.9913C217.894 86.4689 214.791 93.5898 214.06 100.711C213.695 104.545 210.774 107.466 206.939 107.831C199.636 108.562 192.698 111.666 187.22 117.143C181.742 122.621 178.638 129.742 177.908 136.863C177.543 140.697 174.622 143.618 170.787 143.984C163.484 144.714 156.545 147.818 151.068 153.296C145.59 158.773 142.486 165.894 141.756 173.015C141.391 176.849 138.469 179.771 134.635 180.136C127.332 180.866 120.393 183.97 114.916 189.448C109.438 194.925 106.334 202.046 105.604 209.167C105.239 212.819 102.5 215.923 98.8481 216.288C90.9969 217.018 83.5109 220.487 77.6681 226.695C72.9208 231.808 70.3646 238.198 69.6343 244.771C84.0586 247.145 99.2133 244.771 112.36 237.468C117.472 234.547 122.219 231.077 126.601 226.695L224.65 128.646C229.032 124.264 232.501 119.517 235.423 114.405V114.405Z" fill="#DAA536"/>
</g>
<path d="M237.45 114.752C244.753 101.605 247.309 86.4506 244.753 72.0263C237.632 72.7566 230.877 75.8606 225.399 81.3382C219.921 86.8158 216.817 93.9367 216.087 101.058C215.722 104.892 212.8 107.813 208.966 108.178C201.663 108.909 194.724 112.013 189.247 117.49C183.769 122.968 180.665 130.089 179.935 137.21C179.57 141.044 176.648 143.965 172.814 144.331C165.511 145.061 158.572 148.165 153.095 153.642C147.617 159.12 144.513 166.241 143.783 173.362C143.418 177.196 140.496 180.117 136.662 180.483C129.358 181.213 122.42 184.317 116.943 189.795C111.465 195.272 108.361 202.393 107.631 209.514C107.266 213.166 104.527 216.27 100.875 216.635C93.0237 217.365 85.5377 220.834 79.6949 227.042C74.9477 232.155 72.3915 238.545 71.6611 245.118C86.0855 247.492 101.24 245.118 114.386 237.815C119.499 234.893 124.246 231.424 128.628 227.042L226.677 128.993C231.059 124.611 234.528 119.864 237.45 114.752V114.752Z" fill="url(#paint6_linear_3_720)"/>
<path d="M237.45 114.752C244.753 101.605 247.309 86.4506 244.753 72.0263C237.632 72.7566 230.877 75.8606 225.399 81.3382C219.921 86.8158 216.817 93.9367 216.087 101.058C215.722 104.892 212.8 107.813 208.966 108.178C201.663 108.909 194.724 112.013 189.247 117.49C183.769 122.968 180.665 130.089 179.935 137.21C179.57 141.044 176.648 143.965 172.814 144.331C165.511 145.061 158.572 148.165 153.095 153.642C147.617 159.12 144.513 166.241 143.783 173.362C143.418 177.196 140.496 180.117 136.662 180.483C129.358 181.213 122.42 184.317 116.943 189.795C111.465 195.272 108.361 202.393 107.631 209.514C107.266 213.166 104.527 216.27 100.875 216.635C93.0237 217.365 85.5377 220.834 79.6949 227.042C74.9477 232.155 72.3915 238.545 71.6611 245.118C86.0855 247.492 101.24 245.118 114.386 237.815C119.499 234.893 124.246 231.424 128.628 227.042L226.677 128.993C231.059 124.611 234.528 119.864 237.45 114.752V114.752Z" fill="url(#paint7_radial_3_720)"/>
<path d="M237.45 114.752C244.753 101.605 247.309 86.4506 244.753 72.0263C237.632 72.7566 230.877 75.8606 225.399 81.3382C219.921 86.8158 216.817 93.9367 216.087 101.058C215.722 104.892 212.8 107.813 208.966 108.178C201.663 108.909 194.724 112.013 189.247 117.49C183.769 122.968 180.665 130.089 179.935 137.21C179.57 141.044 176.648 143.965 172.814 144.331C165.511 145.061 158.572 148.165 153.095 153.642C147.617 159.12 144.513 166.241 143.783 173.362C143.418 177.196 140.496 180.117 136.662 180.483C129.358 181.213 122.42 184.317 116.943 189.795C111.465 195.272 108.361 202.393 107.631 209.514C107.266 213.166 104.527 216.27 100.875 216.635C93.0237 217.365 85.5377 220.834 79.6949 227.042C74.9477 232.155 72.3915 238.545 71.6611 245.118C86.0855 247.492 101.24 245.118 114.386 237.815C119.499 234.893 124.246 231.424 128.628 227.042L226.677 128.993C231.059 124.611 234.528 119.864 237.45 114.752V114.752Z" fill="url(#paint8_radial_3_720)"/>
<path d="M237.45 114.752C244.753 101.605 247.309 86.4506 244.753 72.0263C237.632 72.7566 230.877 75.8606 225.399 81.3382C219.921 86.8158 216.817 93.9367 216.087 101.058C215.722 104.892 212.8 107.813 208.966 108.178C201.663 108.909 194.724 112.013 189.247 117.49C183.769 122.968 180.665 130.089 179.935 137.21C179.57 141.044 176.648 143.965 172.814 144.331C165.511 145.061 158.572 148.165 153.095 153.642C147.617 159.12 144.513 166.241 143.783 173.362C143.418 177.196 140.496 180.117 136.662 180.483C129.358 181.213 122.42 184.317 116.943 189.795C111.465 195.272 108.361 202.393 107.631 209.514C107.266 213.166 104.527 216.27 100.875 216.635C93.0237 217.365 85.5377 220.834 79.6949 227.042C74.9477 232.155 72.3915 238.545 71.6611 245.118C86.0855 247.492 101.24 245.118 114.386 237.815C119.499 234.893 124.246 231.424 128.628 227.042L226.677 128.993C231.059 124.611 234.528 119.864 237.45 114.752V114.752Z" fill="url(#paint9_radial_3_720)"/>
<path d="M237.45 114.752C244.753 101.605 247.309 86.4506 244.753 72.0263C237.632 72.7566 230.877 75.8606 225.399 81.3382C219.921 86.8158 216.817 93.9367 216.087 101.058C215.722 104.892 212.8 107.813 208.966 108.178C201.663 108.909 194.724 112.013 189.247 117.49C183.769 122.968 180.665 130.089 179.935 137.21C179.57 141.044 176.648 143.965 172.814 144.331C165.511 145.061 158.572 148.165 153.095 153.642C147.617 159.12 144.513 166.241 143.783 173.362C143.418 177.196 140.496 180.117 136.662 180.483C129.358 181.213 122.42 184.317 116.943 189.795C111.465 195.272 108.361 202.393 107.631 209.514C107.266 213.166 104.527 216.27 100.875 216.635C93.0237 217.365 85.5377 220.834 79.6949 227.042C74.9477 232.155 72.3915 238.545 71.6611 245.118C86.0855 247.492 101.24 245.118 114.386 237.815C119.499 234.893 124.246 231.424 128.628 227.042L226.677 128.993C231.059 124.611 234.528 119.864 237.45 114.752V114.752Z" fill="url(#paint10_radial_3_720)"/>
<path d="M237.45 114.752C244.753 101.605 247.309 86.4506 244.753 72.0263C237.632 72.7566 230.877 75.8606 225.399 81.3382C219.921 86.8158 216.817 93.9367 216.087 101.058C215.722 104.892 212.8 107.813 208.966 108.178C201.663 108.909 194.724 112.013 189.247 117.49C183.769 122.968 180.665 130.089 179.935 137.21C179.57 141.044 176.648 143.965 172.814 144.331C165.511 145.061 158.572 148.165 153.095 153.642C147.617 159.12 144.513 166.241 143.783 173.362C143.418 177.196 140.496 180.117 136.662 180.483C129.358 181.213 122.42 184.317 116.943 189.795C111.465 195.272 108.361 202.393 107.631 209.514C107.266 213.166 104.527 216.27 100.875 216.635C93.0237 217.365 85.5377 220.834 79.6949 227.042C74.9477 232.155 72.3915 238.545 71.6611 245.118C86.0855 247.492 101.24 245.118 114.386 237.815C119.499 234.893 124.246 231.424 128.628 227.042L226.677 128.993C231.059 124.611 234.528 119.864 237.45 114.752V114.752Z" fill="url(#paint11_radial_3_720)"/>
<path d="M180.117 18.3459C196.733 18.3459 213.348 24.7364 226.129 37.3349C238.318 49.5455 245.164 66.0936 245.164 83.3467C245.164 100.6 238.318 117.148 226.129 129.358L129.358 226.129C116.577 238.91 99.9619 245.118 83.3465 245.118C66.7311 245.118 50.1158 238.728 37.3347 226.129C25.1458 213.919 18.3 197.371 18.3 180.118C18.3 162.864 25.1458 146.316 37.3347 134.106L134.106 37.3349C146.704 24.5538 163.502 18.3459 180.117 18.3459V18.3459ZM180.117 1.00015C158.207 1.00015 137.392 9.58171 121.872 25.1016L25.1014 121.872C9.58156 137.392 1 158.025 1 180.118C1 202.028 9.58156 222.843 25.1014 238.363C40.6213 253.882 61.2535 262.464 83.3465 262.464C105.257 262.464 126.072 253.882 141.592 238.363L238.362 141.592C253.882 126.072 262.464 105.44 262.464 83.3467C262.464 61.4363 253.882 40.6214 238.362 25.1016C230.722 17.4431 221.643 11.371 211.647 7.23475C201.651 3.09847 190.935 0.979637 180.117 1.00015V1.00015Z" fill="url(#paint12_linear_3_720)"/>
<path d="M180.117 18.3459C196.733 18.3459 213.348 24.7364 226.129 37.3349C238.318 49.5455 245.164 66.0936 245.164 83.3467C245.164 100.6 238.318 117.148 226.129 129.358L129.358 226.129C116.577 238.91 99.9619 245.118 83.3465 245.118C66.7311 245.118 50.1158 238.728 37.3347 226.129C25.1458 213.919 18.3 197.371 18.3 180.118C18.3 162.864 25.1458 146.316 37.3347 134.106L134.106 37.3349C146.704 24.5538 163.502 18.3459 180.117 18.3459V18.3459ZM180.117 1.00015C158.207 1.00015 137.392 9.58171 121.872 25.1016L25.1014 121.872C9.58156 137.392 1 158.025 1 180.118C1 202.028 9.58156 222.843 25.1014 238.363C40.6213 253.882 61.2535 262.464 83.3465 262.464C105.257 262.464 126.072 253.882 141.592 238.363L238.362 141.592C253.882 126.072 262.464 105.44 262.464 83.3467C262.464 61.4363 253.882 40.6214 238.362 25.1016C230.722 17.4431 221.643 11.371 211.647 7.23475C201.651 3.09847 190.935 0.979637 180.117 1.00015V1.00015Z" fill="url(#paint13_radial_3_720)"/>
<path d="M205.552 23.2574C186.38 11.9371 161.804 12.284 144.641 27.2561C133.138 38.759 116.048 44.2366 100.144 42.4473C92.2961 41.5208 84.3399 42.3853 76.8738 44.9756C69.4076 47.5659 62.6256 51.8148 57.0375 57.4029C51.4494 62.991 47.2005 69.773 44.6102 77.2392C42.0199 84.7053 41.1554 92.6615 42.0819 100.51C43.9078 116.577 39.1605 132.828 28.3879 144.878C28.2053 145.061 28.0227 145.426 27.6576 145.609C12.6855 162.772 11.9369 186.38 23.2572 205.552L205.552 23.2574V23.2574Z" fill="url(#paint14_linear_3_720)"/>
<path d="M205.552 23.2574C186.38 11.9371 161.804 12.284 144.641 27.2561C133.138 38.759 116.048 44.2366 100.144 42.4473C92.2961 41.5208 84.3399 42.3853 76.8738 44.9756C69.4076 47.5659 62.6256 51.8148 57.0375 57.4029C51.4494 62.991 47.2005 69.773 44.6102 77.2392C42.0199 84.7053 41.1554 92.6615 42.0819 100.51C43.9078 116.577 39.1605 132.828 28.3879 144.878C28.2053 145.061 28.0227 145.426 27.6576 145.609C12.6855 162.772 11.9369 186.38 23.2572 205.552L205.552 23.2574V23.2574Z" fill="url(#paint15_radial_3_720)"/>
<path d="M205.552 23.2574C186.38 11.9371 161.804 12.284 144.641 27.2561C133.138 38.759 116.048 44.2366 100.144 42.4473C92.2961 41.5208 84.3399 42.3853 76.8738 44.9756C69.4076 47.5659 62.6256 51.8148 57.0375 57.4029C51.4494 62.991 47.2005 69.773 44.6102 77.2392C42.0199 84.7053 41.1554 92.6615 42.0819 100.51C43.9078 116.577 39.1605 132.828 28.3879 144.878C28.2053 145.061 28.0227 145.426 27.6576 145.609C12.6855 162.772 11.9369 186.38 23.2572 205.552L205.552 23.2574V23.2574Z" fill="url(#paint16_radial_3_720)"/>
<path d="M205.552 23.2574C186.38 11.9371 161.804 12.284 144.641 27.2561C133.138 38.759 116.048 44.2366 100.144 42.4473C92.2961 41.5208 84.3399 42.3853 76.8738 44.9756C69.4076 47.5659 62.6256 51.8148 57.0375 57.4029C51.4494 62.991 47.2005 69.773 44.6102 77.2392C42.0199 84.7053 41.1554 92.6615 42.0819 100.51C43.9078 116.577 39.1605 132.828 28.3879 144.878C28.2053 145.061 28.0227 145.426 27.6576 145.609C12.6855 162.772 11.9369 186.38 23.2572 205.552L205.552 23.2574V23.2574Z" fill="url(#paint17_radial_3_720)"/>
<g filter="url(#filter1_f_3_720)">
<path d="M212.015 33.7196C199.416 21.1212 178.602 21.6689 171.846 28.4246C166.368 33.9022 163.264 41.0231 162.534 48.144C162.169 51.9783 159.247 54.8997 155.413 55.2649C148.11 55.9952 141.171 59.0992 135.694 64.5768C130.216 70.0544 127.112 77.1752 126.382 84.2961C126.017 88.1304 123.095 91.0518 119.261 91.417C111.957 92.1473 105.019 95.2513 99.5416 100.729C94.064 106.206 90.96 113.327 90.2297 120.448C89.8645 124.283 86.9431 127.204 83.1088 127.569C75.8054 128.299 68.8671 131.403 63.3895 136.881C57.9119 142.359 54.8079 149.479 54.0776 156.6C53.7124 160.252 50.9736 163.356 47.3219 163.721C39.4706 164.452 31.9846 167.921 26.1418 174.129C20.4086 179.88 21.705 200.658 35.6363 209.934L212.015 33.7196V33.7196Z" fill="#437822"/>
</g>
<g filter="url(#filter2_i_3_720)">
<path d="M219.684 31.9486C207.086 19.3501 187.786 18.3459 175.188 30.9443C169.71 36.4219 166.606 43.5428 165.876 50.6637C165.511 54.498 162.589 57.4194 158.755 57.7846C151.452 58.5149 144.513 61.6189 139.036 67.0965C133.558 72.574 130.454 79.6949 129.724 86.8158C129.359 90.6501 126.437 93.5715 122.603 93.9367C115.3 94.667 108.361 97.771 102.884 103.249C97.4061 108.726 94.3021 115.847 93.5718 122.968C93.2066 126.802 90.2852 129.724 86.4509 130.089C79.1475 130.819 72.2092 133.923 66.7316 139.401C61.254 144.878 58.15 151.999 57.4197 159.12C57.0545 162.772 54.3157 165.876 50.664 166.241C42.8127 166.971 35.3267 170.44 29.4839 176.648C18.7113 188.699 19.7521 206.3 30.3421 218.351C30.8899 218.899 31.255 219.447 31.8028 219.812L219.684 31.9486V31.9486Z" fill="url(#paint18_linear_3_720)"/>
<path d="M219.684 31.9486C207.086 19.3501 187.786 18.3459 175.188 30.9443C169.71 36.4219 166.606 43.5428 165.876 50.6637C165.511 54.498 162.589 57.4194 158.755 57.7846C151.452 58.5149 144.513 61.6189 139.036 67.0965C133.558 72.574 130.454 79.6949 129.724 86.8158C129.359 90.6501 126.437 93.5715 122.603 93.9367C115.3 94.667 108.361 97.771 102.884 103.249C97.4061 108.726 94.3021 115.847 93.5718 122.968C93.2066 126.802 90.2852 129.724 86.4509 130.089C79.1475 130.819 72.2092 133.923 66.7316 139.401C61.254 144.878 58.15 151.999 57.4197 159.12C57.0545 162.772 54.3157 165.876 50.664 166.241C42.8127 166.971 35.3267 170.44 29.4839 176.648C18.7113 188.699 19.7521 206.3 30.3421 218.351C30.8899 218.899 31.255 219.447 31.8028 219.812L219.684 31.9486V31.9486Z" fill="url(#paint19_linear_3_720)"/>
<path d="M219.684 31.9486C207.086 19.3501 187.786 18.3459 175.188 30.9443C169.71 36.4219 166.606 43.5428 165.876 50.6637C165.511 54.498 162.589 57.4194 158.755 57.7846C151.452 58.5149 144.513 61.6189 139.036 67.0965C133.558 72.574 130.454 79.6949 129.724 86.8158C129.359 90.6501 126.437 93.5715 122.603 93.9367C115.3 94.667 108.361 97.771 102.884 103.249C97.4061 108.726 94.3021 115.847 93.5718 122.968C93.2066 126.802 90.2852 129.724 86.4509 130.089C79.1475 130.819 72.2092 133.923 66.7316 139.401C61.254 144.878 58.15 151.999 57.4197 159.12C57.0545 162.772 54.3157 165.876 50.664 166.241C42.8127 166.971 35.3267 170.44 29.4839 176.648C18.7113 188.699 19.7521 206.3 30.3421 218.351C30.8899 218.899 31.255 219.447 31.8028 219.812L219.684 31.9486V31.9486Z" fill="url(#paint20_linear_3_720)"/>
<path d="M219.684 31.9486C207.086 19.3501 187.786 18.3459 175.188 30.9443C169.71 36.4219 166.606 43.5428 165.876 50.6637C165.511 54.498 162.589 57.4194 158.755 57.7846C151.452 58.5149 144.513 61.6189 139.036 67.0965C133.558 72.574 130.454 79.6949 129.724 86.8158C129.359 90.6501 126.437 93.5715 122.603 93.9367C115.3 94.667 108.361 97.771 102.884 103.249C97.4061 108.726 94.3021 115.847 93.5718 122.968C93.2066 126.802 90.2852 129.724 86.4509 130.089C79.1475 130.819 72.2092 133.923 66.7316 139.401C61.254 144.878 58.15 151.999 57.4197 159.12C57.0545 162.772 54.3157 165.876 50.664 166.241C42.8127 166.971 35.3267 170.44 29.4839 176.648C18.7113 188.699 19.7521 206.3 30.3421 218.351C30.8899 218.899 31.255 219.447 31.8028 219.812L219.684 31.9486V31.9486Z" fill="url(#paint21_linear_3_720)"/>
<path d="M219.684 31.9486C207.086 19.3501 187.786 18.3459 175.188 30.9443C169.71 36.4219 166.606 43.5428 165.876 50.6637C165.511 54.498 162.589 57.4194 158.755 57.7846C151.452 58.5149 144.513 61.6189 139.036 67.0965C133.558 72.574 130.454 79.6949 129.724 86.8158C129.359 90.6501 126.437 93.5715 122.603 93.9367C115.3 94.667 108.361 97.771 102.884 103.249C97.4061 108.726 94.3021 115.847 93.5718 122.968C93.2066 126.802 90.2852 129.724 86.4509 130.089C79.1475 130.819 72.2092 133.923 66.7316 139.401C61.254 144.878 58.15 151.999 57.4197 159.12C57.0545 162.772 54.3157 165.876 50.664 166.241C42.8127 166.971 35.3267 170.44 29.4839 176.648C18.7113 188.699 19.7521 206.3 30.3421 218.351C30.8899 218.899 31.255 219.447 31.8028 219.812L219.684 31.9486V31.9486Z" fill="url(#paint22_linear_3_720)"/>
<path d="M219.684 31.9486C207.086 19.3501 187.786 18.3459 175.188 30.9443C169.71 36.4219 166.606 43.5428 165.876 50.6637C165.511 54.498 162.589 57.4194 158.755 57.7846C151.452 58.5149 144.513 61.6189 139.036 67.0965C133.558 72.574 130.454 79.6949 129.724 86.8158C129.359 90.6501 126.437 93.5715 122.603 93.9367C115.3 94.667 108.361 97.771 102.884 103.249C97.4061 108.726 94.3021 115.847 93.5718 122.968C93.2066 126.802 90.2852 129.724 86.4509 130.089C79.1475 130.819 72.2092 133.923 66.7316 139.401C61.254 144.878 58.15 151.999 57.4197 159.12C57.0545 162.772 54.3157 165.876 50.664 166.241C42.8127 166.971 35.3267 170.44 29.4839 176.648C18.7113 188.699 19.7521 206.3 30.3421 218.351C30.8899 218.899 31.255 219.447 31.8028 219.812L219.684 31.9486V31.9486Z" fill="url(#paint23_linear_3_720)"/>
<path d="M219.684 31.9486C207.086 19.3501 187.786 18.3459 175.188 30.9443C169.71 36.4219 166.606 43.5428 165.876 50.6637C165.511 54.498 162.589 57.4194 158.755 57.7846C151.452 58.5149 144.513 61.6189 139.036 67.0965C133.558 72.574 130.454 79.6949 129.724 86.8158C129.359 90.6501 126.437 93.5715 122.603 93.9367C115.3 94.667 108.361 97.771 102.884 103.249C97.4061 108.726 94.3021 115.847 93.5718 122.968C93.2066 126.802 90.2852 129.724 86.4509 130.089C79.1475 130.819 72.2092 133.923 66.7316 139.401C61.254 144.878 58.15 151.999 57.4197 159.12C57.0545 162.772 54.3157 165.876 50.664 166.241C42.8127 166.971 35.3267 170.44 29.4839 176.648C18.7113 188.699 19.7521 206.3 30.3421 218.351C30.8899 218.899 31.255 219.447 31.8028 219.812L219.684 31.9486V31.9486Z" fill="url(#paint24_radial_3_720)"/>
<path d="M219.684 31.9486C207.086 19.3501 187.786 18.3459 175.188 30.9443C169.71 36.4219 166.606 43.5428 165.876 50.6637C165.511 54.498 162.589 57.4194 158.755 57.7846C151.452 58.5149 144.513 61.6189 139.036 67.0965C133.558 72.574 130.454 79.6949 129.724 86.8158C129.359 90.6501 126.437 93.5715 122.603 93.9367C115.3 94.667 108.361 97.771 102.884 103.249C97.4061 108.726 94.3021 115.847 93.5718 122.968C93.2066 126.802 90.2852 129.724 86.4509 130.089C79.1475 130.819 72.2092 133.923 66.7316 139.401C61.254 144.878 58.15 151.999 57.4197 159.12C57.0545 162.772 54.3157 165.876 50.664 166.241C42.8127 166.971 35.3267 170.44 29.4839 176.648C18.7113 188.699 19.7521 206.3 30.3421 218.351C30.8899 218.899 31.255 219.447 31.8028 219.812L219.684 31.9486V31.9486Z" fill="url(#paint25_radial_3_720)"/>
<path d="M219.684 31.9486C207.086 19.3501 187.786 18.3459 175.188 30.9443C169.71 36.4219 166.606 43.5428 165.876 50.6637C165.511 54.498 162.589 57.4194 158.755 57.7846C151.452 58.5149 144.513 61.6189 139.036 67.0965C133.558 72.574 130.454 79.6949 129.724 86.8158C129.359 90.6501 126.437 93.5715 122.603 93.9367C115.3 94.667 108.361 97.771 102.884 103.249C97.4061 108.726 94.3021 115.847 93.5718 122.968C93.2066 126.802 90.2852 129.724 86.4509 130.089C79.1475 130.819 72.2092 133.923 66.7316 139.401C61.254 144.878 58.15 151.999 57.4197 159.12C57.0545 162.772 54.3157 165.876 50.664 166.241C42.8127 166.971 35.3267 170.44 29.4839 176.648C18.7113 188.699 19.7521 206.3 30.3421 218.351C30.8899 218.899 31.255 219.447 31.8028 219.812L219.684 31.9486V31.9486Z" fill="url(#paint26_radial_3_720)"/>
<path d="M219.684 31.9486C207.086 19.3501 187.786 18.3459 175.188 30.9443C169.71 36.4219 166.606 43.5428 165.876 50.6637C165.511 54.498 162.589 57.4194 158.755 57.7846C151.452 58.5149 144.513 61.6189 139.036 67.0965C133.558 72.574 130.454 79.6949 129.724 86.8158C129.359 90.6501 126.437 93.5715 122.603 93.9367C115.3 94.667 108.361 97.771 102.884 103.249C97.4061 108.726 94.3021 115.847 93.5718 122.968C93.2066 126.802 90.2852 129.724 86.4509 130.089C79.1475 130.819 72.2092 133.923 66.7316 139.401C61.254 144.878 58.15 151.999 57.4197 159.12C57.0545 162.772 54.3157 165.876 50.664 166.241C42.8127 166.971 35.3267 170.44 29.4839 176.648C18.7113 188.699 19.7521 206.3 30.3421 218.351C30.8899 218.899 31.255 219.447 31.8028 219.812L219.684 31.9486V31.9486Z" fill="url(#paint27_radial_3_720)"/>
<path d="M219.684 31.9486C207.086 19.3501 187.786 18.3459 175.188 30.9443C169.71 36.4219 166.606 43.5428 165.876 50.6637C165.511 54.498 162.589 57.4194 158.755 57.7846C151.452 58.5149 144.513 61.6189 139.036 67.0965C133.558 72.574 130.454 79.6949 129.724 86.8158C129.359 90.6501 126.437 93.5715 122.603 93.9367C115.3 94.667 108.361 97.771 102.884 103.249C97.4061 108.726 94.3021 115.847 93.5718 122.968C93.2066 126.802 90.2852 129.724 86.4509 130.089C79.1475 130.819 72.2092 133.923 66.7316 139.401C61.254 144.878 58.15 151.999 57.4197 159.12C57.0545 162.772 54.3157 165.876 50.664 166.241C42.8127 166.971 35.3267 170.44 29.4839 176.648C18.7113 188.699 19.7521 206.3 30.3421 218.351C30.8899 218.899 31.255 219.447 31.8028 219.812L219.684 31.9486V31.9486Z" fill="url(#paint28_radial_3_720)"/>
</g>
<g filter="url(#filter3_f_3_720)">
<path d="M217.402 105.768C216.689 106.782 215.82 107.675 214.827 108.416L222.861 114.368L224.03 113.09L217.402 105.787V105.768Z" fill="url(#paint29_linear_3_720)"/>
</g>
<g filter="url(#filter4_f_3_720)">
<path d="M181.158 142.286C180.452 143.298 179.589 144.192 178.602 144.933L186.617 150.885L187.804 149.607L181.158 142.304V142.286Z" fill="url(#paint30_linear_3_720)"/>
</g>
<g filter="url(#filter5_f_3_720)">
<path d="M144.933 178.657C144.227 179.669 143.364 180.563 142.377 181.304L150.374 187.257L151.561 185.979L144.933 178.675V178.657Z" fill="url(#paint31_linear_3_720)"/>
</g>
<g filter="url(#filter6_f_3_720)">
<path d="M109.274 215.539C108.566 216.545 107.703 217.433 106.718 218.169L114.715 224.121L115.902 222.843L109.274 215.539Z" fill="url(#paint32_linear_3_720)"/>
</g>
<defs>
<filter id="filter0_f_3_720" x="69.1343" y="71.1794" width="175.056" height="174.979" filterUnits="userSpaceOnUse" color-interpolation-filters="sRGB">
<feFlood flood-opacity="0" result="BackgroundImageFix"/>
<feBlend mode="normal" in="SourceGraphic" in2="BackgroundImageFix" result="shape"/>
<feGaussianBlur stdDeviation="0.25" result="effect1_foregroundBlur_3_720"/>
</filter>
<filter id="filter1_f_3_720" x="22.1943" y="22.9535" width="190.57" height="187.73" filterUnits="userSpaceOnUse" color-interpolation-filters="sRGB">
<feFlood flood-opacity="0" result="BackgroundImageFix"/>
<feBlend mode="normal" in="SourceGraphic" in2="BackgroundImageFix" result="shape"/>
<feGaussianBlur stdDeviation="0.375" result="effect1_foregroundBlur_3_720"/>
</filter>
<filter id="filter2_i_3_720" x="21.8862" y="21.9826" width="197.798" height="201.829" filterUnits="userSpaceOnUse" color-interpolation-filters="sRGB">
<feFlood flood-opacity="0" result="BackgroundImageFix"/>
<feBlend mode="normal" in="SourceGraphic" in2="BackgroundImageFix" result="shape"/>
<feColorMatrix in="SourceAlpha" type="matrix" values="0 0 0 0 0 0 0 0 0 0 0 0 0 0 0 0 0 0 127 0" result="hardAlpha"/>
<feOffset dy="4"/>
<feGaussianBlur stdDeviation="2"/>
<feComposite in2="hardAlpha" operator="arithmetic" k2="-1" k3="1"/>
<feColorMatrix type="matrix" values="0 0 0 0 0 0 0 0 0 0 0 0 0 0 0 0 0 0 0.25 0"/>
<feBlend mode="normal" in2="shape" result="effect1_innerShadow_3_720"/>
</filter>
<filter id="filter3_f_3_720" x="214.577" y="105.518" width="9.70215" height="9.09982" filterUnits="userSpaceOnUse" color-interpolation-filters="sRGB">
<feFlood flood-opacity="0" result="BackgroundImageFix"/>
<feBlend mode="normal" in="SourceGraphic" in2="BackgroundImageFix" result="shape"/>
<feGaussianBlur stdDeviation="0.125" result="effect1_foregroundBlur_3_720"/>
</filter>
<filter id="filter4_f_3_720" x="178.352" y="142.036" width="9.70215" height="9.09982" filterUnits="userSpaceOnUse" color-interpolation-filters="sRGB">
<feFlood flood-opacity="0" result="BackgroundImageFix"/>
<feBlend mode="normal" in="SourceGraphic" in2="BackgroundImageFix" result="shape"/>
<feGaussianBlur stdDeviation="0.125" result="effect1_foregroundBlur_3_720"/>
</filter>
<filter id="filter5_f_3_720" x="142.127" y="178.407" width="9.68408" height="9.09984" filterUnits="userSpaceOnUse" color-interpolation-filters="sRGB">
<feFlood flood-opacity="0" result="BackgroundImageFix"/>
<feBlend mode="normal" in="SourceGraphic" in2="BackgroundImageFix" result="shape"/>
<feGaussianBlur stdDeviation="0.125" result="effect1_foregroundBlur_3_720"/>
</filter>
<filter id="filter6_f_3_720" x="106.468" y="215.289" width="9.68408" height="9.08157" filterUnits="userSpaceOnUse" color-interpolation-filters="sRGB">
<feFlood flood-opacity="0" result="BackgroundImageFix"/>
<feBlend mode="normal" in="SourceGraphic" in2="BackgroundImageFix" result="shape"/>
<feGaussianBlur stdDeviation="0.125" result="effect1_foregroundBlur_3_720"/>
</filter>
<linearGradient id="paint0_linear_3_720" x1="303.418" y1="86.5967" x2="92.2932" y2="293.139" gradientUnits="userSpaceOnUse">
<stop stop-color="#FCD6AD"/>
<stop offset="0.128" stop-color="#FFD5AB"/>
<stop offset="0.281" stop-color="#FFD3B7"/>
<stop offset="0.527" stop-color="#F3BBA2"/>
<stop offset="0.817" stop-color="#E4A59D"/>
<stop offset="1" stop-color="#D79EA2"/>
</linearGradient>
<radialGradient id="paint1_radial_3_720" cx="0" cy="0" r="1" gradientUnits="userSpaceOnUse" gradientTransform="translate(63.7549 265.586) rotate(55.1) scale(115.682 115.645)">
<stop stop-color="#E6AE9D"/>
<stop offset="1" stop-color="#E3ACA4" stop-opacity="0"/>
</radialGradient>
<linearGradient id="paint2_linear_3_720" x1="546.477" y1="333.088" x2="394.291" y2="507.495" gradientUnits="userSpaceOnUse">
<stop stop-color="#C0BFBF"/>
<stop offset="0.059" stop-color="#B2B0B2"/>
<stop offset="0.231" stop-color="#D8D3DB"/>
<stop offset="0.345" stop-color="#E0D7E8"/>
<stop offset="0.554" stop-color="#BFB2CD"/>
<stop offset="0.713" stop-color="#AB9ABC"/>
<stop offset="1" stop-color="#A58DBD"/>
</linearGradient>
<linearGradient id="paint3_linear_3_720" x1="454.527" y1="220.104" x2="236.08" y2="449.487" gradientUnits="userSpaceOnUse">
<stop stop-color="#C3C2C3"/>
<stop offset="0.123" stop-color="#B4B2B4"/>
<stop offset="0.191" stop-color="#D6D0DB"/>
<stop offset="0.278" stop-color="#EBE2F3"/>
<stop offset="0.449" stop-color="#DFD4E9"/>
<stop offset="0.561" stop-color="#C8B9D6"/>
<stop offset="0.666" stop-color="#C6B3D8"/>
<stop offset="0.833" stop-color="#BEA6D4"/>
<stop offset="1" stop-color="#CAAFE2"/>
</linearGradient>
<radialGradient id="paint4_radial_3_720" cx="0" cy="0" r="1" gradientUnits="userSpaceOnUse" gradientTransform="translate(136.662 136.625) rotate(48.013) scale(88.5587 156.028)">
<stop offset="0.671" stop-color="#FFCF4D"/>
<stop offset="1" stop-color="#E9AF38"/>
</radialGradient>
<radialGradient id="paint5_radial_3_720" cx="0" cy="0" r="1" gradientUnits="userSpaceOnUse" gradientTransform="translate(131.094 131.095) rotate(48.013) scale(84.4404 148.773)">
<stop offset="0.604" stop-color="#F64C8F"/>
<stop offset="1" stop-color="#DE396D"/>
</radialGradient>
<linearGradient id="paint6_linear_3_720" x1="148.494" y1="159.01" x2="173.325" y2="182.455" gradientUnits="userSpaceOnUse">
<stop stop-color="#6E4A43"/>
<stop offset="1" stop-color="#512316"/>
</linearGradient>
<radialGradient id="paint7_radial_3_720" cx="0" cy="0" r="1" gradientUnits="userSpaceOnUse" gradientTransform="translate(238.089 81.4478) rotate(52.5778) scale(12.5729 17.4076)">
<stop stop-color="#775756"/>
<stop offset="1" stop-color="#745352" stop-opacity="0"/>
</radialGradient>
<radialGradient id="paint8_radial_3_720" cx="0" cy="0" r="1" gradientUnits="userSpaceOnUse" gradientTransform="translate(202.996 117.673) rotate(50.0419) scale(13.771 19.0664)">
<stop stop-color="#775756"/>
<stop offset="1" stop-color="#745352" stop-opacity="0"/>
</radialGradient>
<radialGradient id="paint9_radial_3_720" cx="0" cy="0" r="1" gradientUnits="userSpaceOnUse" gradientTransform="translate(165.036 153.916) rotate(53.8066) scale(14.4937 20.0672)">
<stop stop-color="#775756"/>
<stop offset="1" stop-color="#745352" stop-opacity="0"/>
</radialGradient>
<radialGradient id="paint10_radial_3_720" cx="0" cy="0" r="1" gradientUnits="userSpaceOnUse" gradientTransform="translate(130.527 192.57) rotate(46.3324) scale(13.0153 18.02)">
<stop stop-color="#775756"/>
<stop offset="1" stop-color="#745352" stop-opacity="0"/>
</radialGradient>
<radialGradient id="paint11_radial_3_720" cx="0" cy="0" r="1" gradientUnits="userSpaceOnUse" gradientTransform="translate(93.0238 227.955) rotate(48.2048) scale(12.6279 17.4838)">
<stop stop-color="#775756"/>
<stop offset="1" stop-color="#745352" stop-opacity="0"/>
</radialGradient>
<linearGradient id="paint12_linear_3_720" x1="68.3379" y1="67.1877" x2="183.586" y2="194.998" gradientUnits="userSpaceOnUse">
<stop stop-color="#DAB68C"/>
<stop offset="0.39" stop-color="#DCAB8A"/>
<stop offset="0.579" stop-color="#FACAA5"/>
</linearGradient>
<radialGradient id="paint13_radial_3_720" cx="0" cy="0" r="1" gradientUnits="userSpaceOnUse" gradientTransform="translate(85.4463 262.464) rotate(-32.79) scale(194.115 76.6297)">
<stop stop-color="#E5B08D"/>
<stop offset="1" stop-color="#E2AC85" stop-opacity="0"/>
</radialGradient>
<linearGradient id="paint14_linear_3_720" x1="14.8765" y1="192.716" x2="191.584" y2="4.43276" gradientUnits="userSpaceOnUse">
<stop stop-color="#407C64"/>
<stop offset="0.467" stop-color="#70B765"/>
<stop offset="0.653" stop-color="#7ECF51"/>
<stop offset="1" stop-color="#93DC40"/>
</linearGradient>
<radialGradient id="paint15_radial_3_720" cx="0" cy="0" r="1" gradientUnits="userSpaceOnUse" gradientTransform="translate(110.643 56.9264) rotate(82.0456) scale(28.2302 75.5378)">
<stop stop-color="#95DD77"/>
<stop offset="0.649" stop-color="#95DD77" stop-opacity="0"/>
</radialGradient>
<radialGradient id="paint16_radial_3_720" cx="0" cy="0" r="1" gradientUnits="userSpaceOnUse" gradientTransform="translate(44.6381 149.918) rotate(46.6368) scale(21.1904 72.8971)">
<stop stop-color="#70B682"/>
<stop offset="1" stop-color="#70B682" stop-opacity="0"/>
</radialGradient>
<radialGradient id="paint17_radial_3_720" cx="0" cy="0" r="1" gradientUnits="userSpaceOnUse" gradientTransform="translate(40.9418 47.8043) rotate(98.306) scale(78.9984 31.4456)">
<stop stop-color="#5F915A"/>
<stop offset="1" stop-color="#639060" stop-opacity="0"/>
</radialGradient>
<linearGradient id="paint18_linear_3_720" x1="104.856" y1="102.573" x2="132.244" y2="129.961" gradientUnits="userSpaceOnUse">
<stop stop-color="#F4DAB8"/>
<stop offset="0.865" stop-color="#E6B998"/>
</linearGradient>
<linearGradient id="paint19_linear_3_720" x1="214.681" y1="27.53" x2="180.739" y2="60.9068" gradientUnits="userSpaceOnUse">
<stop stop-color="#F9D0A1"/>
<stop offset="0.193" stop-color="#FFEACD"/>
<stop offset="0.711" stop-color="#FFDBC2"/>
<stop offset="1" stop-color="#FFE0C6" stop-opacity="0"/>
</linearGradient>
<linearGradient id="paint20_linear_3_720" x1="178.73" y1="62.6231" x2="139.657" y2="101.131" gradientUnits="userSpaceOnUse">
<stop stop-color="#F9D0A1" stop-opacity="0"/>
<stop offset="0.076" stop-color="#F9CFB5"/>
<stop offset="0.168" stop-color="#FFEACD"/>
<stop offset="0.711" stop-color="#FFDBC2"/>
<stop offset="1" stop-color="#FFE0C6" stop-opacity="0"/>
</linearGradient>
<linearGradient id="paint21_linear_3_720" x1="142.505" y1="99.9985" x2="103.139" y2="139.656" gradientUnits="userSpaceOnUse">
<stop stop-color="#F9D0A1" stop-opacity="0"/>
<stop offset="0.076" stop-color="#F9CFB5"/>
<stop offset="0.168" stop-color="#FFEACD"/>
<stop offset="0.711" stop-color="#FFDBC2"/>
<stop offset="1" stop-color="#FFE0C6" stop-opacity="0"/>
</linearGradient>
<linearGradient id="paint22_linear_3_720" x1="107.978" y1="135.366" x2="67.7541" y2="174.457" gradientUnits="userSpaceOnUse">
<stop stop-color="#F9D0A1" stop-opacity="0"/>
<stop offset="0.076" stop-color="#F9CFB5"/>
<stop offset="0.168" stop-color="#FFEACD"/>
<stop offset="0.711" stop-color="#FFDBC2"/>
<stop offset="1" stop-color="#FFE0C6" stop-opacity="0"/>
</linearGradient>
<linearGradient id="paint23_linear_3_720" x1="71.1867" y1="172.175" x2="26.6721" y2="216.69" gradientUnits="userSpaceOnUse">
<stop stop-color="#F9D0A1" stop-opacity="0"/>
<stop offset="0.076" stop-color="#F9CFB5"/>
<stop offset="0.168" stop-color="#FFEACD"/>
<stop offset="0.814" stop-color="#FFDBC2"/>
<stop offset="1" stop-color="#F8D2A5"/>
</linearGradient>
<radialGradient id="paint24_radial_3_720" cx="0" cy="0" r="1" gradientUnits="userSpaceOnUse" gradientTransform="translate(193.282 30.1044) rotate(84.6447) scale(9.16935 15.6966)">
<stop stop-color="#FFFFE2"/>
<stop offset="1" stop-color="#FFFFE2" stop-opacity="0"/>
</radialGradient>
<radialGradient id="paint25_radial_3_720" cx="0" cy="0" r="1" gradientUnits="userSpaceOnUse" gradientTransform="translate(154.191 66.9139) rotate(82.3035) scale(10.6518 18.2343)">
<stop stop-color="#FFF5D7"/>
<stop offset="1" stop-color="#FFF5D7" stop-opacity="0"/>
</radialGradient>
<radialGradient id="paint26_radial_3_720" cx="0" cy="0" r="1" gradientUnits="userSpaceOnUse" gradientTransform="translate(117.125 102.281) rotate(81.6744) scale(11.8216 20.2368)">
<stop stop-color="#FFF5D7"/>
<stop offset="1" stop-color="#FFF5D7" stop-opacity="0"/>
</radialGradient>
<radialGradient id="paint27_radial_3_720" cx="0" cy="0" r="1" gradientUnits="userSpaceOnUse" gradientTransform="translate(81.448 140.496) rotate(77.7994) scale(10.7996 18.4876)">
<stop stop-color="#FFF5D7"/>
<stop offset="1" stop-color="#FFF5D7" stop-opacity="0"/>
</radialGradient>
<radialGradient id="paint28_radial_3_720" cx="0" cy="0" r="1" gradientUnits="userSpaceOnUse" gradientTransform="translate(42.6484 176.174) rotate(78.6907) scale(10.183 17.4319)">
<stop stop-color="#FFF5D7"/>
<stop offset="1" stop-color="#FFF5D7" stop-opacity="0"/>
</radialGradient>
<linearGradient id="paint29_linear_3_720" x1="216.306" y1="107.284" x2="223.573" y2="114.697" gradientUnits="userSpaceOnUse">
<stop stop-color="#795B58"/>
<stop offset="0.829" stop-color="#C4C4C4" stop-opacity="0"/>
</linearGradient>
<linearGradient id="paint30_linear_3_720" x1="180.081" y1="143.801" x2="187.347" y2="151.214" gradientUnits="userSpaceOnUse">
<stop stop-color="#795B58"/>
<stop offset="0.829" stop-color="#C4C4C4" stop-opacity="0"/>
</linearGradient>
<linearGradient id="paint31_linear_3_720" x1="143.856" y1="180.172" x2="151.105" y2="187.585" gradientUnits="userSpaceOnUse">
<stop stop-color="#795B58"/>
<stop offset="0.829" stop-color="#C4C4C4" stop-opacity="0"/>
</linearGradient>
<linearGradient id="paint32_linear_3_720" x1="108.197" y1="217.036" x2="115.445" y2="224.431" gradientUnits="userSpaceOnUse">
<stop stop-color="#795B58"/>
<stop offset="0.829" stop-color="#C4C4C4" stop-opacity="0"/>
</linearGradient>
</defs>
</svg>
