<svg width="512" height="512" viewBox="0 0 512 512" fill="none" xmlns="http://www.w3.org/2000/svg">
<path d="M461.341 220.143C431.347 135.431 350.452 74.7142 255.56 74.7142C160.668 74.7142 79.7731 135.431 49.7784 220.143H37.417V292.857C37.417 413.381 135.036 511 255.56 511C376.084 511 473.703 413.381 473.703 292.857V220.143H461.341ZM337.363 286.313C337.363 326.487 304.824 359.027 264.649 359.027H246.471C206.296 359.027 173.756 326.487 173.756 286.313C173.756 246.138 206.296 220.143 246.471 220.143H264.649C304.824 220.143 337.363 246.138 337.363 286.313Z" fill="url(#paint0_linear_3_1122)"/>
<path d="M461.341 220.143C431.347 135.431 350.452 74.7142 255.56 74.7142C160.668 74.7142 79.7731 135.431 49.7784 220.143H37.417V292.857C37.417 413.381 135.036 511 255.56 511C376.084 511 473.703 413.381 473.703 292.857V220.143H461.341ZM337.363 286.313C337.363 326.487 304.824 359.027 264.649 359.027H246.471C206.296 359.027 173.756 326.487 173.756 286.313C173.756 246.138 206.296 220.143 246.471 220.143H264.649C304.824 220.143 337.363 246.138 337.363 286.313Z" fill="url(#paint1_radial_3_1122)"/>
<path d="M461.341 220.143C431.347 135.431 350.452 74.7142 255.56 74.7142C160.668 74.7142 79.7731 135.431 49.7784 220.143H37.417V292.857C37.417 413.381 135.036 511 255.56 511C376.084 511 473.703 413.381 473.703 292.857V220.143H461.341ZM337.363 286.313C337.363 326.487 304.824 359.027 264.649 359.027H246.471C206.296 359.027 173.756 326.487 173.756 286.313C173.756 246.138 206.296 220.143 246.471 220.143H264.649C304.824 220.143 337.363 246.138 337.363 286.313Z" fill="url(#paint2_radial_3_1122)"/>
<path d="M255.56 2C135.036 2 34 99.6189 34 220.143C34 340.667 127.765 444.539 255.56 444.539C383.374 444.539 478.248 340.667 478.248 220.143C478.248 99.6189 376.084 2 255.56 2V2ZM337.364 220.143C337.364 260.317 304.824 292.857 264.65 292.857H246.471C206.296 292.857 173.757 260.317 173.757 220.143C173.757 183.786 206.296 152.537 246.471 152.537H264.65C304.824 152.537 337.364 183.222 337.364 220.143Z" fill="url(#paint3_radial_3_1122)"/>
<path d="M255.56 2C135.036 2 34 99.6189 34 220.143C34 340.667 127.765 444.539 255.56 444.539C383.374 444.539 478.248 340.667 478.248 220.143C478.248 99.6189 376.084 2 255.56 2V2ZM337.364 220.143C337.364 260.317 304.824 292.857 264.65 292.857H246.471C206.296 292.857 173.757 260.317 173.757 220.143C173.757 183.786 206.296 152.537 246.471 152.537H264.65C304.824 152.537 337.364 183.222 337.364 220.143Z" fill="url(#paint4_radial_3_1122)"/>
<path d="M255.56 2C135.036 2 34 99.6189 34 220.143C34 340.667 127.765 444.539 255.56 444.539C383.374 444.539 478.248 340.667 478.248 220.143C478.248 99.6189 376.084 2 255.56 2V2ZM337.364 220.143C337.364 260.317 304.824 292.857 264.65 292.857H246.471C206.296 292.857 173.757 260.317 173.757 220.143C173.757 183.786 206.296 152.537 246.471 152.537H264.65C304.824 152.537 337.364 183.222 337.364 220.143Z" fill="url(#paint5_radial_3_1122)"/>
<g filter="url(#filter0_f_3_1122)">
<path d="M409.77 172.333C413.406 168.698 413.406 162.517 409.77 158.881L395.591 144.702C391.955 141.066 385.774 141.066 382.138 144.702C378.503 148.338 378.503 154.518 382.138 158.154L396.318 172.333C399.953 176.151 406.134 176.151 409.77 172.333Z" fill="#783C43"/>
</g>
<g filter="url(#filter1_f_3_1122)">
<path d="M383.829 259.954C380.194 256.318 380.194 250.137 383.829 246.501L398.009 232.322C401.644 228.686 407.825 228.686 411.461 232.322C415.096 235.958 415.096 242.139 411.461 245.774L397.281 259.954C393.646 263.771 387.465 263.771 383.829 259.954Z" fill="#733D42"/>
</g>
<g filter="url(#filter2_f_3_1122)">
<path d="M359.214 335.304C362.849 331.668 362.849 325.488 359.214 321.852L345.034 307.673C341.399 304.037 335.218 304.037 331.582 307.673C327.947 311.308 327.947 317.489 331.582 321.125L345.762 335.304C349.397 339.121 355.578 339.121 359.214 335.304Z" fill="#7E3B46"/>
</g>
<g filter="url(#filter3_f_3_1122)">
<path d="M219.804 388.986C216.169 385.35 216.169 379.169 219.804 375.534L233.984 361.354C237.619 357.719 243.8 357.719 247.436 361.354C251.072 364.99 251.072 371.171 247.436 374.806L233.257 388.986C229.621 392.803 223.44 392.803 219.804 388.986Z" fill="#823C46"/>
</g>
<path d="M414.678 170.898C411.042 174.533 404.862 174.533 401.226 170.898L387.047 156.718C383.411 153.083 383.411 146.902 387.047 143.266C390.682 139.63 396.863 139.63 400.499 143.266L414.678 157.445C418.496 161.081 418.496 167.262 414.678 170.898Z" fill="url(#paint6_linear_3_1122)"/>
<path d="M414.678 170.898C411.042 174.533 404.862 174.533 401.226 170.898L387.047 156.718C383.411 153.083 383.411 146.902 387.047 143.266C390.682 139.63 396.863 139.63 400.499 143.266L414.678 157.445C418.496 161.081 418.496 167.262 414.678 170.898Z" fill="url(#paint7_radial_3_1122)"/>
<g filter="url(#filter4_f_3_1122)">
<path d="M254.034 82.0222C250.398 78.3864 250.398 72.2057 254.034 68.57L268.213 54.3907C271.849 50.755 278.03 50.755 281.665 54.3907C285.301 58.0264 285.301 64.2072 281.665 67.8429L267.486 82.0222C263.85 85.8397 257.67 85.8397 254.034 82.0222V82.0222Z" fill="#67383D"/>
</g>
<g filter="url(#filter5_f_3_1122)">
<path d="M346.052 118.706C342.416 115.071 342.416 108.89 346.052 105.254L360.231 91.0751C363.867 87.4393 370.048 87.4393 373.683 91.0751C377.319 94.7108 377.319 100.891 373.683 104.527L359.504 118.706C355.868 122.524 349.688 122.524 346.052 118.706Z" fill="#6B3C40"/>
</g>
<path d="M258.286 79.8045C254.651 76.1688 254.651 69.9881 258.286 66.3524L272.466 52.1731C276.101 48.5374 282.282 48.5374 285.918 52.1731C289.554 55.8088 289.554 61.9895 285.918 65.6252L271.738 79.8045C268.103 83.622 261.922 83.622 258.286 79.8045Z" fill="url(#paint8_linear_3_1122)"/>
<path d="M258.286 79.8045C254.651 76.1688 254.651 69.9881 258.286 66.3524L272.466 52.1731C276.101 48.5374 282.282 48.5374 285.918 52.1731C289.554 55.8088 289.554 61.9895 285.918 65.6252L271.738 79.8045C268.103 83.622 261.922 83.622 258.286 79.8045Z" fill="url(#paint9_radial_3_1122)"/>
<g filter="url(#filter6_f_3_1122)">
<path d="M111.222 135.903C107.586 132.267 107.586 126.087 111.222 122.451L125.401 108.272C129.037 104.636 135.218 104.636 138.853 108.272C142.489 111.907 142.489 118.088 138.853 121.724L124.674 135.903C121.038 139.539 114.858 139.539 111.222 135.903V135.903Z" fill="#62393D"/>
</g>
<path d="M116.203 133.904C112.568 130.268 112.568 124.087 116.203 120.452L130.383 106.272C134.018 102.637 140.199 102.637 143.835 106.272C147.47 109.908 147.47 116.089 143.835 119.725L129.656 133.904C126.02 137.54 119.839 137.54 116.203 133.904V133.904Z" fill="url(#paint10_linear_3_1122)"/>
<path d="M116.203 133.904C112.568 130.268 112.568 124.087 116.203 120.452L130.383 106.272C134.018 102.637 140.199 102.637 143.835 106.272C147.47 109.908 147.47 116.089 143.835 119.725L129.656 133.904C126.02 137.54 119.839 137.54 116.203 133.904V133.904Z" fill="url(#paint11_radial_3_1122)"/>
<path d="M225.201 387.349C221.565 383.713 221.565 377.533 225.201 373.897L239.38 359.718C243.016 356.082 249.197 356.082 252.832 359.718C256.468 363.353 256.468 369.534 252.832 373.17L238.653 387.349C235.017 391.167 228.837 391.167 225.201 387.349Z" fill="url(#paint12_linear_3_1122)"/>
<path d="M225.201 387.349C221.565 383.713 221.565 377.533 225.201 373.897L239.38 359.718C243.016 356.082 249.197 356.082 252.832 359.718C256.468 363.353 256.468 369.534 252.832 373.17L238.653 387.349C235.017 391.167 228.837 391.167 225.201 387.349Z" fill="url(#paint13_radial_3_1122)"/>
<path d="M361.779 332.159C358.143 335.795 351.962 335.795 348.326 332.159L334.147 317.98C330.511 314.344 330.511 308.164 334.147 304.528C337.783 300.892 343.964 300.892 347.599 304.528L361.779 318.707C365.596 322.343 365.596 328.524 361.779 332.159Z" fill="url(#paint14_linear_3_1122)"/>
<path d="M361.779 332.159C358.143 335.795 351.962 335.795 348.326 332.159L334.147 317.98C330.511 314.344 330.511 308.164 334.147 304.528C337.783 300.892 343.964 300.892 347.599 304.528L361.779 318.707C365.596 322.343 365.596 328.524 361.779 332.159Z" fill="url(#paint15_radial_3_1122)"/>
<path d="M387.172 258.391C383.536 254.755 383.536 248.574 387.172 244.939L401.351 230.759C404.987 227.124 411.168 227.124 414.804 230.759C418.439 234.395 418.439 240.576 414.804 244.211L400.624 258.391C396.989 262.208 390.808 262.208 387.172 258.391Z" fill="url(#paint16_linear_3_1122)"/>
<path d="M387.172 258.391C383.536 254.755 383.536 248.574 387.172 244.939L401.351 230.759C404.987 227.124 411.168 227.124 414.804 230.759C418.439 234.395 418.439 240.576 414.804 244.211L400.624 258.391C396.989 262.208 390.808 262.208 387.172 258.391Z" fill="url(#paint17_radial_3_1122)"/>
<g filter="url(#filter7_f_3_1122)">
<path d="M175.901 351.992C172.265 355.628 166.085 355.628 162.449 351.992L148.27 337.813C144.634 334.177 144.634 327.997 148.27 324.361C151.905 320.725 158.086 320.725 161.722 324.361L175.901 338.54C179.719 342.176 179.719 348.357 175.901 351.992Z" fill="#693D49"/>
</g>
<path d="M179.902 348.72C176.266 352.355 170.086 352.355 166.45 348.72L152.271 334.54C148.635 330.905 148.635 324.724 152.271 321.088C155.906 317.453 162.087 317.453 165.723 321.088L179.902 335.268C183.72 338.903 183.72 345.084 179.902 348.72Z" fill="url(#paint18_linear_3_1122)"/>
<path d="M179.902 348.72C176.266 352.355 170.086 352.355 166.45 348.72L152.271 334.54C148.635 330.905 148.635 324.724 152.271 321.088C155.906 317.453 162.087 317.453 165.723 321.088L179.902 335.268C183.72 338.903 183.72 345.084 179.902 348.72Z" fill="url(#paint19_radial_3_1122)"/>
<g filter="url(#filter8_f_3_1122)">
<path d="M74.7746 223.161C71.1389 219.525 71.1389 213.344 74.7746 209.709L88.9539 195.529C92.5896 191.894 98.7704 191.894 102.406 195.529C106.042 199.165 106.042 205.346 102.406 208.982L88.2268 223.161C84.5911 226.978 78.4104 226.978 74.7746 223.161Z" fill="#5A3840"/>
</g>
<g filter="url(#filter9_f_3_1122)">
<path d="M193.48 98.7103C189.845 102.346 183.664 102.346 180.028 98.7103L165.667 84.531C162.032 80.8953 162.032 74.7146 165.667 71.0788C169.303 67.4431 175.484 67.4431 179.119 71.0788L193.299 85.2581C197.116 88.8938 197.116 95.0746 193.48 98.7103V98.7103Z" fill="#5A3840"/>
</g>
<path d="M196.679 96.4741C193.043 100.11 186.863 100.11 183.227 96.4741L168.866 82.2948C165.23 78.6591 165.23 72.4783 168.866 68.8426C172.502 65.2069 178.682 65.2069 182.318 68.8426L196.497 83.0219C200.315 86.6576 200.315 92.8383 196.679 96.4741V96.4741Z" fill="url(#paint20_linear_3_1122)"/>
<path d="M196.679 96.4741C193.043 100.11 186.863 100.11 183.227 96.4741L168.866 82.2948C165.23 78.6591 165.23 72.4783 168.866 68.8426C172.502 65.2069 178.682 65.2069 182.318 68.8426L196.497 83.0219C200.315 86.6576 200.315 92.8383 196.679 96.4741V96.4741Z" fill="url(#paint21_radial_3_1122)"/>
<path d="M79.8464 221.452C76.2107 217.816 76.2107 211.635 79.8464 208L94.0257 193.82C97.6614 190.185 103.842 190.185 107.478 193.82C111.114 197.456 111.114 203.637 107.478 207.273L93.2986 221.452C89.6628 225.269 83.4821 225.269 79.8464 221.452Z" fill="url(#paint22_linear_3_1122)"/>
<path d="M79.8464 221.452C76.2107 217.816 76.2107 211.635 79.8464 208L94.0257 193.82C97.6614 190.185 103.842 190.185 107.478 193.82C111.114 197.456 111.114 203.637 107.478 207.273L93.2986 221.452C89.6628 225.269 83.4821 225.269 79.8464 221.452Z" fill="url(#paint23_radial_3_1122)"/>
<path d="M350.744 117.234C347.108 113.598 347.108 107.417 350.744 103.782L364.923 89.6023C368.559 85.9666 374.74 85.9666 378.375 89.6023C382.011 93.238 382.011 99.4187 378.375 103.054L364.196 117.234C360.56 121.051 354.38 121.051 350.744 117.234Z" fill="url(#paint24_linear_3_1122)"/>
<path d="M350.744 117.234C347.108 113.598 347.108 107.417 350.744 103.782L364.923 89.6023C368.559 85.9666 374.74 85.9666 378.375 89.6023C382.011 93.238 382.011 99.4187 378.375 103.054L364.196 117.234C360.56 121.051 354.38 121.051 350.744 117.234Z" fill="url(#paint25_radial_3_1122)"/>
<g filter="url(#filter10_f_3_1122)">
<path d="M155.615 283.459C151.979 287.094 145.798 287.094 142.162 283.459L127.983 269.279C124.347 265.644 124.347 259.463 127.983 255.827C131.619 252.191 137.8 252.191 141.435 255.827L155.615 270.006C159.432 273.642 159.432 279.641 155.615 283.459V283.459Z" fill="#6F3A43"/>
</g>
<path d="M160.304 279.478C156.668 283.114 150.487 283.114 146.851 279.478L132.672 265.299C129.036 261.663 129.036 255.482 132.672 251.846C136.308 248.211 142.489 248.211 146.124 251.846L160.304 266.026C164.121 269.661 164.121 275.66 160.304 279.478V279.478Z" fill="url(#paint26_linear_3_1122)"/>
<path d="M160.304 279.478C156.668 283.114 150.487 283.114 146.851 279.478L132.672 265.299C129.036 261.663 129.036 255.482 132.672 251.846C136.308 248.211 142.489 248.211 146.124 251.846L160.304 266.026C164.121 269.661 164.121 275.66 160.304 279.478V279.478Z" fill="url(#paint27_radial_3_1122)"/>
<g filter="url(#filter11_f_3_1122)">
<path d="M156.995 156.227C127.073 203.928 165.23 249.12 165.23 249.12C156.122 226.742 158.94 194.584 168.356 174.987C184.753 140.812 208.695 119.306 261.249 115.616C211.53 108.526 178.464 122.015 156.995 156.227V156.227Z" fill="url(#paint28_radial_3_1122)"/>
</g>
<g filter="url(#filter12_f_3_1122)">
<path d="M425.985 332.632C339.636 433.741 195.335 396.257 195.335 396.257C315.459 396.257 368.795 376.624 414.623 313.308C460.451 249.992 454.398 141.739 403.261 68.4607C462.342 129.25 486.247 262.062 425.985 332.632V332.632Z" fill="url(#paint29_radial_3_1122)"/>
</g>
<defs>
<filter id="filter0_f_3_1122" x="379.162" y="141.725" width="33.585" height="33.7213" filterUnits="userSpaceOnUse" color-interpolation-filters="sRGB">
<feFlood flood-opacity="0" result="BackgroundImageFix"/>
<feBlend mode="normal" in="SourceGraphic" in2="BackgroundImageFix" result="shape"/>
<feGaussianBlur stdDeviation="0.125" result="effect1_foregroundBlur_3_1122"/>
</filter>
<filter id="filter1_f_3_1122" x="380.853" y="229.345" width="33.585" height="33.7213" filterUnits="userSpaceOnUse" color-interpolation-filters="sRGB">
<feFlood flood-opacity="0" result="BackgroundImageFix"/>
<feBlend mode="normal" in="SourceGraphic" in2="BackgroundImageFix" result="shape"/>
<feGaussianBlur stdDeviation="0.125" result="effect1_foregroundBlur_3_1122"/>
</filter>
<filter id="filter2_f_3_1122" x="328.605" y="304.696" width="33.585" height="33.7213" filterUnits="userSpaceOnUse" color-interpolation-filters="sRGB">
<feFlood flood-opacity="0" result="BackgroundImageFix"/>
<feBlend mode="normal" in="SourceGraphic" in2="BackgroundImageFix" result="shape"/>
<feGaussianBlur stdDeviation="0.125" result="effect1_foregroundBlur_3_1122"/>
</filter>
<filter id="filter3_f_3_1122" x="216.828" y="358.378" width="33.585" height="33.7213" filterUnits="userSpaceOnUse" color-interpolation-filters="sRGB">
<feFlood flood-opacity="0" result="BackgroundImageFix"/>
<feBlend mode="normal" in="SourceGraphic" in2="BackgroundImageFix" result="shape"/>
<feGaussianBlur stdDeviation="0.125" result="effect1_foregroundBlur_3_1122"/>
</filter>
<filter id="filter4_f_3_1122" x="251.057" y="51.4139" width="33.585" height="33.7213" filterUnits="userSpaceOnUse" color-interpolation-filters="sRGB">
<feFlood flood-opacity="0" result="BackgroundImageFix"/>
<feBlend mode="normal" in="SourceGraphic" in2="BackgroundImageFix" result="shape"/>
<feGaussianBlur stdDeviation="0.125" result="effect1_foregroundBlur_3_1122"/>
</filter>
<filter id="filter5_f_3_1122" x="343.075" y="88.0983" width="33.585" height="33.7213" filterUnits="userSpaceOnUse" color-interpolation-filters="sRGB">
<feFlood flood-opacity="0" result="BackgroundImageFix"/>
<feBlend mode="normal" in="SourceGraphic" in2="BackgroundImageFix" result="shape"/>
<feGaussianBlur stdDeviation="0.125" result="effect1_foregroundBlur_3_1122"/>
</filter>
<filter id="filter6_f_3_1122" x="108.245" y="105.295" width="33.585" height="33.585" filterUnits="userSpaceOnUse" color-interpolation-filters="sRGB">
<feFlood flood-opacity="0" result="BackgroundImageFix"/>
<feBlend mode="normal" in="SourceGraphic" in2="BackgroundImageFix" result="shape"/>
<feGaussianBlur stdDeviation="0.125" result="effect1_foregroundBlur_3_1122"/>
</filter>
<filter id="filter7_f_3_1122" x="145.293" y="321.384" width="33.7212" height="33.585" filterUnits="userSpaceOnUse" color-interpolation-filters="sRGB">
<feFlood flood-opacity="0" result="BackgroundImageFix"/>
<feBlend mode="normal" in="SourceGraphic" in2="BackgroundImageFix" result="shape"/>
<feGaussianBlur stdDeviation="0.125" result="effect1_foregroundBlur_3_1122"/>
</filter>
<filter id="filter8_f_3_1122" x="71.7979" y="192.553" width="33.585" height="33.7213" filterUnits="userSpaceOnUse" color-interpolation-filters="sRGB">
<feFlood flood-opacity="0" result="BackgroundImageFix"/>
<feBlend mode="normal" in="SourceGraphic" in2="BackgroundImageFix" result="shape"/>
<feGaussianBlur stdDeviation="0.125" result="effect1_foregroundBlur_3_1122"/>
</filter>
<filter id="filter9_f_3_1122" x="162.69" y="68.1021" width="33.7446" height="33.585" filterUnits="userSpaceOnUse" color-interpolation-filters="sRGB">
<feFlood flood-opacity="0" result="BackgroundImageFix"/>
<feBlend mode="normal" in="SourceGraphic" in2="BackgroundImageFix" result="shape"/>
<feGaussianBlur stdDeviation="0.125" result="effect1_foregroundBlur_3_1122"/>
</filter>
<filter id="filter10_f_3_1122" x="125.006" y="252.85" width="33.7212" height="33.585" filterUnits="userSpaceOnUse" color-interpolation-filters="sRGB">
<feFlood flood-opacity="0" result="BackgroundImageFix"/>
<feBlend mode="normal" in="SourceGraphic" in2="BackgroundImageFix" result="shape"/>
<feGaussianBlur stdDeviation="0.125" result="effect1_foregroundBlur_3_1122"/>
</filter>
<filter id="filter11_f_3_1122" x="144.54" y="112.785" width="117.709" height="137.335" filterUnits="userSpaceOnUse" color-interpolation-filters="sRGB">
<feFlood flood-opacity="0" result="BackgroundImageFix"/>
<feBlend mode="normal" in="SourceGraphic" in2="BackgroundImageFix" result="shape"/>
<feGaussianBlur stdDeviation="0.5" result="effect1_foregroundBlur_3_1122"/>
</filter>
<filter id="filter12_f_3_1122" x="194.335" y="67.4607" width="267.707" height="336.591" filterUnits="userSpaceOnUse" color-interpolation-filters="sRGB">
<feFlood flood-opacity="0" result="BackgroundImageFix"/>
<feBlend mode="normal" in="SourceGraphic" in2="BackgroundImageFix" result="shape"/>
<feGaussianBlur stdDeviation="0.5" result="effect1_foregroundBlur_3_1122"/>
</filter>
<linearGradient id="paint0_linear_3_1122" x1="29.473" y1="339.449" x2="480.52" y2="339.449" gradientUnits="userSpaceOnUse">
<stop stop-color="#BE8A63"/>
<stop offset="0.184" stop-color="#DF8777"/>
<stop offset="0.463" stop-color="#F28886"/>
<stop offset="0.804" stop-color="#F0AE9C"/>
<stop offset="1" stop-color="#EAC891"/>
</linearGradient>
<radialGradient id="paint1_radial_3_1122" cx="0" cy="0" r="1" gradientUnits="userSpaceOnUse" gradientTransform="translate(269.212 178.114) rotate(97.571) scale(181.092 166.601)">
<stop offset="0.405" stop-color="#F48F75"/>
<stop offset="0.599" stop-color="#FFA85B"/>
<stop offset="0.955" stop-color="#FFA85B" stop-opacity="0"/>
</radialGradient>
<radialGradient id="paint2_radial_3_1122" cx="0" cy="0" r="1" gradientUnits="userSpaceOnUse" gradientTransform="translate(249.888 269.007) rotate(90) scale(94.3013 107.071)">
<stop offset="0.53" stop-color="#CD777A"/>
<stop offset="1" stop-color="#D47A70" stop-opacity="0"/>
</radialGradient>
<radialGradient id="paint3_radial_3_1122" cx="0" cy="0" r="1" gradientUnits="userSpaceOnUse" gradientTransform="translate(398.707 331.469) rotate(-135.234) scale(393.662 339.065)">
<stop offset="0.393" stop-color="#AB6B59"/>
<stop offset="0.912" stop-color="#7E4C42"/>
<stop offset="1" stop-color="#664946"/>
</radialGradient>
<radialGradient id="paint4_radial_3_1122" cx="0" cy="0" r="1" gradientUnits="userSpaceOnUse" gradientTransform="translate(271.467 201.964) rotate(88.698) scale(100.008 103.166)">
<stop offset="0.686" stop-color="#854D42"/>
<stop offset="1" stop-color="#844C43" stop-opacity="0"/>
</radialGradient>
<radialGradient id="paint5_radial_3_1122" cx="0" cy="0" r="1" gradientUnits="userSpaceOnUse" gradientTransform="translate(261.25 142.884) rotate(90) scale(326.078 354.482)">
<stop offset="0.791" stop-color="#A15B79" stop-opacity="0"/>
<stop offset="0.914" stop-color="#A15B75"/>
</radialGradient>
<linearGradient id="paint6_linear_3_1122" x1="393.046" y1="164.48" x2="407.261" y2="150.283" gradientUnits="userSpaceOnUse">
<stop stop-color="#D256BC"/>
<stop offset="0.501" stop-color="#FF73E1"/>
<stop offset="1" stop-color="#FF82E8"/>
</linearGradient>
<radialGradient id="paint7_radial_3_1122" cx="0" cy="0" r="1" gradientUnits="userSpaceOnUse" gradientTransform="translate(413.915 162.063) rotate(138.897) scale(7.34516 4.70588)">
<stop stop-color="#FF94FF"/>
<stop offset="1" stop-color="#FF94FF" stop-opacity="0"/>
</radialGradient>
<linearGradient id="paint8_linear_3_1122" x1="266.358" y1="58.8083" x2="278.846" y2="73.0057" gradientUnits="userSpaceOnUse">
<stop stop-color="#F66EC9"/>
<stop offset="0.499" stop-color="#FF8AF5"/>
<stop offset="1" stop-color="#FF72DB"/>
</linearGradient>
<radialGradient id="paint9_radial_3_1122" cx="0" cy="0" r="1" gradientUnits="userSpaceOnUse" gradientTransform="translate(279.701 57.0813) rotate(135) scale(27.3152 15.6328)">
<stop offset="0.637" stop-color="#E55DC8" stop-opacity="0"/>
<stop offset="1" stop-color="#DB5BC1"/>
</radialGradient>
<linearGradient id="paint10_linear_3_1122" x1="124.275" y1="112.871" x2="136.709" y2="127.069" gradientUnits="userSpaceOnUse">
<stop stop-color="#F66EC9"/>
<stop offset="0.499" stop-color="#FF8AF5"/>
<stop offset="1" stop-color="#FF72DB"/>
</linearGradient>
<radialGradient id="paint11_radial_3_1122" cx="0" cy="0" r="1" gradientUnits="userSpaceOnUse" gradientTransform="translate(137.623 111.169) rotate(135.118) scale(27.2591 15.6005)">
<stop offset="0.637" stop-color="#E55DC8" stop-opacity="0"/>
<stop offset="1" stop-color="#DB5BC1"/>
</radialGradient>
<linearGradient id="paint12_linear_3_1122" x1="233.272" y1="366.353" x2="245.761" y2="380.55" gradientUnits="userSpaceOnUse">
<stop stop-color="#F66EC9"/>
<stop offset="0.499" stop-color="#FF8AF5"/>
<stop offset="1" stop-color="#FF72DB"/>
</linearGradient>
<radialGradient id="paint13_radial_3_1122" cx="0" cy="0" r="1" gradientUnits="userSpaceOnUse" gradientTransform="translate(246.597 364.644) rotate(135) scale(27.3152 15.6328)">
<stop offset="0.637" stop-color="#E55DC8" stop-opacity="0"/>
<stop offset="1" stop-color="#DB5BC1"/>
</radialGradient>
<linearGradient id="paint14_linear_3_1122" x1="340.146" y1="325.742" x2="354.362" y2="311.545" gradientUnits="userSpaceOnUse">
<stop stop-color="#D256BC"/>
<stop offset="0.501" stop-color="#FF73E1"/>
<stop offset="1" stop-color="#FF82E8"/>
</linearGradient>
<radialGradient id="paint15_radial_3_1122" cx="0" cy="0" r="1" gradientUnits="userSpaceOnUse" gradientTransform="translate(361.015 323.324) rotate(138.897) scale(7.34516 4.70588)">
<stop stop-color="#FF94FF"/>
<stop offset="1" stop-color="#FF94FF" stop-opacity="0"/>
</radialGradient>
<linearGradient id="paint16_linear_3_1122" x1="395.243" y1="237.394" x2="407.732" y2="251.592" gradientUnits="userSpaceOnUse">
<stop stop-color="#22A4FA"/>
<stop offset="0.499" stop-color="#49C0FF"/>
<stop offset="1" stop-color="#2AB1FF"/>
</linearGradient>
<radialGradient id="paint17_radial_3_1122" cx="0" cy="0" r="1" gradientUnits="userSpaceOnUse" gradientTransform="translate(408.586 235.698) rotate(133.986) scale(30.8878 31.6402)">
<stop offset="0.659" stop-color="#2A77DD" stop-opacity="0"/>
<stop offset="1" stop-color="#2B73DA"/>
</radialGradient>
<linearGradient id="paint18_linear_3_1122" x1="158.27" y1="342.284" x2="172.485" y2="328.087" gradientUnits="userSpaceOnUse">
<stop stop-color="#2A61B8"/>
<stop offset="0.501" stop-color="#25A1FF"/>
<stop offset="1" stop-color="#2DBFFF"/>
</linearGradient>
<radialGradient id="paint19_radial_3_1122" cx="0" cy="0" r="1" gradientUnits="userSpaceOnUse" gradientTransform="translate(179.139 339.867) rotate(138.897) scale(7.34516 4.70588)">
<stop stop-color="#4FC9FF"/>
<stop offset="1" stop-color="#50CBFF" stop-opacity="0"/>
</radialGradient>
<linearGradient id="paint20_linear_3_1122" x1="174.901" y1="90.057" x2="189.099" y2="75.8596" gradientUnits="userSpaceOnUse">
<stop stop-color="#2A61B8"/>
<stop offset="0.501" stop-color="#25A1FF"/>
<stop offset="1" stop-color="#2DBFFF"/>
</linearGradient>
<radialGradient id="paint21_radial_3_1122" cx="0" cy="0" r="1" gradientUnits="userSpaceOnUse" gradientTransform="translate(195.752 87.6393) rotate(138.918) scale(7.34818 4.70741)">
<stop stop-color="#4FC9FF"/>
<stop offset="1" stop-color="#50CBFF" stop-opacity="0"/>
</radialGradient>
<linearGradient id="paint22_linear_3_1122" x1="87.9177" y1="200.474" x2="100.406" y2="214.671" gradientUnits="userSpaceOnUse">
<stop stop-color="#22A4FA"/>
<stop offset="0.499" stop-color="#49C0FF"/>
<stop offset="1" stop-color="#2AB1FF"/>
</linearGradient>
<radialGradient id="paint23_radial_3_1122" cx="0" cy="0" r="1" gradientUnits="userSpaceOnUse" gradientTransform="translate(101.252 198.774) rotate(133.986) scale(30.8878 31.6402)">
<stop offset="0.659" stop-color="#2A77DD" stop-opacity="0"/>
<stop offset="1" stop-color="#2B73DA"/>
</radialGradient>
<linearGradient id="paint24_linear_3_1122" x1="358.815" y1="96.2375" x2="371.304" y2="110.435" gradientUnits="userSpaceOnUse">
<stop stop-color="#22A4FA"/>
<stop offset="0.499" stop-color="#49C0FF"/>
<stop offset="1" stop-color="#2AB1FF"/>
</linearGradient>
<radialGradient id="paint25_radial_3_1122" cx="0" cy="0" r="1" gradientUnits="userSpaceOnUse" gradientTransform="translate(372.171 94.5342) rotate(133.986) scale(30.8878 31.6402)">
<stop offset="0.659" stop-color="#2A77DD" stop-opacity="0"/>
<stop offset="1" stop-color="#2B73DA"/>
</radialGradient>
<linearGradient id="paint26_linear_3_1122" x1="138.689" y1="273.043" x2="152.887" y2="258.845" gradientUnits="userSpaceOnUse">
<stop stop-color="#D256BC"/>
<stop offset="0.501" stop-color="#FF73E1"/>
<stop offset="1" stop-color="#FF82E8"/>
</linearGradient>
<radialGradient id="paint27_radial_3_1122" cx="0" cy="0" r="1" gradientUnits="userSpaceOnUse" gradientTransform="translate(159.558 270.625) rotate(138.897) scale(7.34516 4.70588)">
<stop stop-color="#FF94FF"/>
<stop offset="1" stop-color="#FF94FF" stop-opacity="0"/>
</radialGradient>
<radialGradient id="paint28_radial_3_1122" cx="0" cy="0" r="1" gradientUnits="userSpaceOnUse" gradientTransform="translate(186.247 155.382) rotate(47.09) scale(110.137 536.664)">
<stop stop-color="#C79A91"/>
<stop offset="1" stop-color="#C79A91" stop-opacity="0"/>
</radialGradient>
<radialGradient id="paint29_radial_3_1122" cx="0" cy="0" r="1" gradientUnits="userSpaceOnUse" gradientTransform="translate(423.712 312.181) rotate(-157.529) scale(274.187 1297.3)">
<stop stop-color="#CF9689"/>
<stop offset="1" stop-color="#D1988A" stop-opacity="0"/>
</radialGradient>
</defs>
</svg>
