<svg width="512" height="512" viewBox="0 0 512 512" fill="none" xmlns="http://www.w3.org/2000/svg">
<path d="M465.611 492.739H46.6396C34.5352 492.739 22.9266 487.93 14.3675 479.371C5.80844 470.812 1 459.204 1 447.099V30.3186C1 24.1116 6.11163 19 12.3186 19H499.749C505.956 19 511.068 24.1116 511.068 30.3186V447.099C511.068 472.292 490.804 492.739 465.611 492.739V492.739Z" fill="#C2DBF2"/>
<path d="M465.611 492.739H46.6396C34.5352 492.739 22.9266 487.93 14.3675 479.371C5.80844 470.812 1 459.204 1 447.099V30.3186C1 24.1116 6.11163 19 12.3186 19H499.749C505.956 19 511.068 24.1116 511.068 30.3186V447.099C511.068 472.292 490.804 492.739 465.611 492.739V492.739Z" fill="url(#paint0_radial_3_926)"/>
<g filter="url(#filter0_f_3_926)">
<path d="M449.454 466.834H62.7776C39.5196 466.834 20.6614 448.304 20.6614 425.448V47.5157C20.6998 44.775 21.8181 42.1601 23.7733 40.2391C25.7285 38.318 28.3627 37.246 31.1037 37.2559H480.946C483.687 37.246 486.321 38.318 488.276 40.2391C490.231 42.1601 491.35 44.775 491.388 47.5157V425.448C491.388 448.304 472.694 466.834 449.436 466.834H449.454Z" fill="url(#paint1_linear_3_926)"/>
</g>
<path d="M465.611 115.409H46.6396C21.4465 115.409 1 111.247 1 106.117V21.3002C1 20.0406 6.11163 19 12.3186 19H499.749C505.956 19 511.068 20.0406 511.068 21.3002V106.117C511.068 111.247 490.804 115.427 465.611 115.427V115.409Z" fill="url(#paint2_radial_3_926)"/>
<path d="M47.735 437.971C32.0349 437.971 19.2559 425.375 19.2559 409.675V291.56C19.2559 281.519 27.2884 273.486 37.3291 273.486H474.739C484.78 273.486 492.812 281.519 492.812 291.56V409.675C492.812 425.375 480.033 438.154 464.333 438.154H47.735V437.971V437.971Z" fill="url(#paint3_linear_3_926)"/>
<path d="M47.735 437.971C32.0349 437.971 19.2559 425.375 19.2559 409.675V292.29C19.2559 281.884 27.6535 273.486 38.0594 273.486H474.009C484.414 273.486 492.812 281.884 492.812 292.29V409.675C492.812 425.375 480.033 438.154 464.333 438.154H47.735V437.971V437.971Z" fill="url(#paint4_linear_3_926)"/>
<path d="M377.654 183.302H136.932C127.841 183.302 120.502 191.299 120.502 201.23V273.486H394.066V201.23C394.066 191.299 386.763 183.302 377.654 183.302V183.302Z" fill="url(#paint5_linear_3_926)"/>
<path d="M377.654 183.302H136.932C127.841 183.302 120.502 191.299 120.502 201.23V273.486H394.066V201.23C394.066 191.299 386.763 183.302 377.654 183.302V183.302Z" fill="url(#paint6_linear_3_926)"/>
<path d="M394.066 273.486V201.303C394.066 191.317 386.636 183.302 377.398 183.302H271.916C262.679 183.302 255.23 191.335 255.23 201.303V273.486H394.066Z" fill="url(#paint7_linear_3_926)"/>
<path d="M394.066 273.486V201.303C394.066 191.317 386.636 183.302 377.398 183.302H271.916C262.679 183.302 255.23 191.335 255.23 201.303V273.486H394.066Z" fill="url(#paint8_linear_3_926)"/>
<path d="M394.067 273.486H120.521V385.577H394.049V273.486H394.067Z" fill="url(#paint9_linear_3_926)"/>
<path d="M447.993 56.0773H447.975C437.58 56.0773 429.153 64.5041 429.153 74.899V398.958C429.153 409.353 437.58 417.78 447.975 417.78H447.993C458.388 417.78 466.815 409.353 466.815 398.958V74.899C466.815 64.5041 458.388 56.0773 447.993 56.0773Z" fill="url(#paint10_linear_3_926)"/>
<defs>
<filter id="filter0_f_3_926" x="18.6614" y="35.2559" width="474.727" height="433.578" filterUnits="userSpaceOnUse" color-interpolation-filters="sRGB">
<feFlood flood-opacity="0" result="BackgroundImageFix"/>
<feBlend mode="normal" in="SourceGraphic" in2="BackgroundImageFix" result="shape"/>
<feGaussianBlur stdDeviation="1" result="effect1_foregroundBlur_3_926"/>
</filter>
<radialGradient id="paint0_radial_3_926" cx="0" cy="0" r="1" gradientUnits="userSpaceOnUse" gradientTransform="translate(256.034 469.7) rotate(90) scale(98.1251 264.162)">
<stop stop-color="#BDF2FF"/>
<stop offset="1" stop-color="#BCF1FF" stop-opacity="0"/>
</radialGradient>
<linearGradient id="paint1_linear_3_926" x1="20.6614" y1="157.325" x2="491.406" y2="157.325" gradientUnits="userSpaceOnUse">
<stop stop-color="#D0EDFF"/>
<stop offset="0.431" stop-color="#CCF1FF"/>
<stop offset="0.656" stop-color="#D5FAFF"/>
<stop offset="0.833" stop-color="#DBFAFD"/>
<stop offset="1" stop-color="#C7EBFF"/>
</linearGradient>
<radialGradient id="paint2_radial_3_926" cx="0" cy="0" r="1" gradientUnits="userSpaceOnUse" gradientTransform="translate(380.374 42.3857) rotate(90) scale(18.8263 189.404)">
<stop stop-color="#DFFFFF"/>
<stop offset="1" stop-color="#DFFFFF" stop-opacity="0"/>
</radialGradient>
<linearGradient id="paint3_linear_3_926" x1="256.071" y1="230.476" x2="256.071" y2="503.51" gradientUnits="userSpaceOnUse">
<stop stop-color="#FF8C00"/>
<stop offset="1" stop-color="#6A4531"/>
</linearGradient>
<linearGradient id="paint4_linear_3_926" x1="256.07" y1="273.486" x2="256.07" y2="438.154" gradientUnits="userSpaceOnUse">
<stop stop-color="#F4953F"/>
<stop offset="0.069" stop-color="#F6A562"/>
<stop offset="0.398" stop-color="#D28C49"/>
<stop offset="0.599" stop-color="#B77B43"/>
<stop offset="0.921" stop-color="#926D3D"/>
<stop offset="1" stop-color="#8C8978"/>
</linearGradient>
<linearGradient id="paint5_linear_3_926" x1="257.293" y1="183.302" x2="257.293" y2="273.486" gradientUnits="userSpaceOnUse">
<stop stop-color="#3AB8F2"/>
<stop offset="0.074" stop-color="#51C1FA"/>
<stop offset="0.158" stop-color="#4AB5EB"/>
<stop offset="1" stop-color="#449FC2"/>
</linearGradient>
<linearGradient id="paint6_linear_3_926" x1="257.293" y1="183.302" x2="236.043" y2="183.302" gradientUnits="userSpaceOnUse">
<stop stop-color="#3DC2FF"/>
<stop offset="0.329" stop-color="#3EB4F0"/>
<stop offset="0.718" stop-color="#3FABDF" stop-opacity="0"/>
</linearGradient>
<linearGradient id="paint7_linear_3_926" x1="324.657" y1="183.302" x2="324.657" y2="273.486" gradientUnits="userSpaceOnUse">
<stop stop-color="#88D8FF"/>
<stop offset="0.074" stop-color="#84F9FF"/>
<stop offset="0.158" stop-color="#6BE6FF"/>
<stop offset="0.873" stop-color="#69DBFF"/>
<stop offset="1" stop-color="#65C7EE"/>
</linearGradient>
<linearGradient id="paint8_linear_3_926" x1="255.23" y1="222.662" x2="271.989" y2="222.662" gradientUnits="userSpaceOnUse">
<stop stop-color="#3EBEFA"/>
<stop offset="0.199" stop-color="#5DD5FF"/>
<stop offset="0.489" stop-color="#59D0FF" stop-opacity="0"/>
</linearGradient>
<linearGradient id="paint9_linear_3_926" x1="257.258" y1="273.486" x2="257.258" y2="364.729" gradientUnits="userSpaceOnUse">
<stop stop-color="#978B52"/>
<stop offset="1" stop-color="#CD822C" stop-opacity="0"/>
</linearGradient>
<linearGradient id="paint10_linear_3_926" x1="447.975" y1="56.0773" x2="447.975" y2="417.78" gradientUnits="userSpaceOnUse">
<stop stop-color="white"/>
<stop offset="1" stop-color="white" stop-opacity="0"/>
</linearGradient>
</defs>
</svg>
