<svg width="512" height="512" viewBox="0 0 512 512" fill="none" xmlns="http://www.w3.org/2000/svg">
<path d="M237.514 289.593H172.337V327.214C172.337 327.214 180.507 325.914 184.407 330.593C186.449 333.007 186.078 339.005 186.078 339.005C186.078 349.682 194.62 358.112 205.018 358.112C215.417 358.112 223.959 349.496 223.959 339.005C223.959 339.005 223.773 331.522 226.001 327.789C228.786 322.906 233.986 322.72 233.986 322.72L237.514 289.593V289.593Z" fill="url(#paint0_radial_3_1167)"/>
<path d="M254.412 374.026H161.382L176.609 496.617C177.537 504.658 184.408 510.656 192.392 510.656H333.701C341.686 510.656 348.371 504.658 349.485 496.617L364.711 374.007H254.412V374.026Z" fill="url(#paint1_linear_3_1167)"/>
<path d="M254.412 374.026H161.382L176.609 496.617C177.537 504.658 184.408 510.656 192.392 510.656H333.701C341.686 510.656 348.371 504.658 349.485 496.617L364.711 374.007H254.412V374.026Z" fill="url(#paint2_linear_3_1167)"/>
<g opacity="0.5">
<path d="M331.102 374.026H305.105L264.068 415.379L223.031 374.007H197.035L165.096 406.206L171.038 454.67L197.963 481.837L177.909 502.04C179.251 504.627 181.275 506.797 183.763 508.316C186.251 509.835 189.106 510.644 192.021 510.656H193.321L209.847 493.999L226.373 510.656H250.327L222.288 481.837L264.254 439.518L306.219 481.837L277.623 510.656H301.577L318.104 493.999L334.63 510.656C340.943 510.284 346.142 506.162 348.371 500.35L329.988 481.837L354.127 457.511L357.469 429.974L317.918 469.841L275.952 427.541L317.918 385.241L358.027 425.666L360.626 404.145L331.102 374.007V374.026ZM210.218 469.655L168.253 427.356L210.218 385.056L252.184 427.356L210.218 469.655Z" fill="url(#paint3_linear_3_1167)"/>
<path d="M331.102 374.026H305.105L264.068 415.379L223.031 374.007H197.035L165.096 406.206L171.038 454.67L197.963 481.837L177.909 502.04C179.251 504.627 181.275 506.797 183.763 508.316C186.251 509.835 189.106 510.644 192.021 510.656H193.321L209.847 493.999L226.373 510.656H250.327L222.288 481.837L264.254 439.518L306.219 481.837L277.623 510.656H301.577L318.104 493.999L334.63 510.656C340.943 510.284 346.142 506.162 348.371 500.35L329.988 481.837L354.127 457.511L357.469 429.974L317.918 469.841L275.952 427.541L317.918 385.241L358.027 425.666L360.626 404.145L331.102 374.007V374.026ZM210.218 469.655L168.253 427.356L210.218 385.056L252.184 427.356L210.218 469.655Z" fill="url(#paint4_linear_3_1167)"/>
</g>
<path d="M368.128 91.3335C368.128 73.786 343.617 61.7534 330.247 61.7534H309.376C306.219 61.9391 296.898 59.5622 296.898 52.4689C296.898 52.4689 296.025 33.8258 296.025 24.0215C296.025 14.2171 290.937 -0.39658 274.411 1.1075C260.484 2.40732 255.712 15.3684 254.598 20.9762C253.484 27.1596 249.157 36.0912 240.616 42.4418C222.975 55.5514 169.961 76.2371 169.961 76.2371C154.345 81.492 141.736 98.9096 142.981 115.417C142.981 123.68 148.774 131.238 148.774 137.18C148.774 143.122 137.466 146.316 137.466 146.316L371.47 127.617C371.47 127.617 362.91 122.418 362.91 116.16C362.91 110.942 368.109 105.576 368.109 91.3521L368.128 91.3335Z" fill="url(#paint5_linear_3_1167)"/>
<path d="M368.128 91.3335C368.128 73.786 343.617 61.7534 330.247 61.7534H309.376C306.219 61.9391 296.898 59.5622 296.898 52.4689C296.898 52.4689 296.025 33.8258 296.025 24.0215C296.025 14.2171 290.937 -0.39658 274.411 1.1075C260.484 2.40732 255.712 15.3684 254.598 20.9762C253.484 27.1596 249.157 36.0912 240.616 42.4418C222.975 55.5514 169.961 76.2371 169.961 76.2371C154.345 81.492 141.736 98.9096 142.981 115.417C142.981 123.68 148.774 131.238 148.774 137.18C148.774 143.122 137.466 146.316 137.466 146.316L371.47 127.617C371.47 127.617 362.91 122.418 362.91 116.16C362.91 110.942 368.109 105.576 368.109 91.3521L368.128 91.3335Z" fill="url(#paint6_radial_3_1167)"/>
<path d="M368.128 91.3335C368.128 73.786 343.617 61.7534 330.247 61.7534H309.376C306.219 61.9391 296.898 59.5622 296.898 52.4689C296.898 52.4689 296.025 33.8258 296.025 24.0215C296.025 14.2171 290.937 -0.39658 274.411 1.1075C260.484 2.40732 255.712 15.3684 254.598 20.9762C253.484 27.1596 249.157 36.0912 240.616 42.4418C222.975 55.5514 169.961 76.2371 169.961 76.2371C154.345 81.492 141.736 98.9096 142.981 115.417C142.981 123.68 148.774 131.238 148.774 137.18C148.774 143.122 137.466 146.316 137.466 146.316L371.47 127.617C371.47 127.617 362.91 122.418 362.91 116.16C362.91 110.942 368.109 105.576 368.109 91.3521L368.128 91.3335Z" fill="url(#paint7_radial_3_1167)"/>
<path d="M368.128 91.3335C368.128 73.786 343.617 61.7534 330.247 61.7534H309.376C306.219 61.9391 296.898 59.5622 296.898 52.4689C296.898 52.4689 296.025 33.8258 296.025 24.0215C296.025 14.2171 290.937 -0.39658 274.411 1.1075C260.484 2.40732 255.712 15.3684 254.598 20.9762C253.484 27.1596 249.157 36.0912 240.616 42.4418C222.975 55.5514 169.961 76.2371 169.961 76.2371C154.345 81.492 141.736 98.9096 142.981 115.417C142.981 123.68 148.774 131.238 148.774 137.18C148.774 143.122 137.466 146.316 137.466 146.316L371.47 127.617C371.47 127.617 362.91 122.418 362.91 116.16C362.91 110.942 368.109 105.576 368.109 91.3521L368.128 91.3335Z" fill="url(#paint8_radial_3_1167)"/>
<path d="M358.212 125.426C330.173 127.765 145.784 144.143 145.784 144.143C120.531 146.39 103.67 168.227 103.67 188.671C103.67 203.471 111.209 207.11 111.209 215.967C111.209 224.806 103.67 227.257 103.67 227.257L411.932 207.11C411.932 207.11 404.374 202.171 404.374 190.937C404.374 184.029 409.462 181.578 409.462 168.227C409.462 144.57 386.251 123.105 358.212 125.426Z" fill="url(#paint9_linear_3_1167)"/>
<path d="M358.212 125.426C330.173 127.765 145.784 144.143 145.784 144.143C120.531 146.39 103.67 168.227 103.67 188.671C103.67 203.471 111.209 207.11 111.209 215.967C111.209 224.806 103.67 227.257 103.67 227.257L411.932 207.11C411.932 207.11 404.374 202.171 404.374 190.937C404.374 184.029 409.462 181.578 409.462 168.227C409.462 144.57 386.251 123.105 358.212 125.426Z" fill="url(#paint10_radial_3_1167)"/>
<path d="M358.212 125.426C330.173 127.765 145.784 144.143 145.784 144.143C120.531 146.39 103.67 168.227 103.67 188.671C103.67 203.471 111.209 207.11 111.209 215.967C111.209 224.806 103.67 227.257 103.67 227.257L411.932 207.11C411.932 207.11 404.374 202.171 404.374 190.937C404.374 184.029 409.462 181.578 409.462 168.227C409.462 144.57 386.251 123.105 358.212 125.426Z" fill="url(#paint11_radial_3_1167)"/>
<path d="M441.214 250.097C438.429 219.032 411.319 196.006 380.494 198.624L121.273 221.464C106.41 222.869 92.7042 230.089 83.14 241.552C73.5757 253.015 68.9279 267.793 70.2089 282.667C72.9942 313.733 100.105 336.758 130.929 334.14L280.223 321.03C285.236 320.659 343.728 315.422 348.185 315.051L390.15 311.3C405.013 309.896 418.719 302.676 428.283 291.212C437.848 279.749 442.495 264.971 441.214 250.097V250.097Z" fill="url(#paint12_radial_3_1167)"/>
<path d="M375.296 374.026H153.027C150.919 374.019 148.834 373.596 146.89 372.781C144.946 371.967 143.182 370.777 141.698 369.28C140.215 367.783 139.042 366.008 138.245 364.056C137.449 362.105 137.045 360.016 137.057 357.908V330.018L391.079 310.372V357.908C391.124 360.008 390.748 362.095 389.975 364.048C389.201 366.001 388.046 367.779 386.575 369.279C385.105 370.779 383.35 371.97 381.413 372.781C379.476 373.593 377.396 374.01 375.296 374.007V374.026Z" fill="url(#paint13_linear_3_1167)"/>
<path d="M375.296 374.026H153.027C150.919 374.019 148.834 373.596 146.89 372.781C144.946 371.967 143.182 370.777 141.698 369.28C140.215 367.783 139.042 366.008 138.245 364.056C137.449 362.105 137.045 360.016 137.057 357.908V330.018L391.079 310.372V357.908C391.124 360.008 390.748 362.095 389.975 364.048C389.201 366.001 388.046 367.779 386.575 369.279C385.105 370.779 383.35 371.97 381.413 372.781C379.476 373.593 377.396 374.01 375.296 374.007V374.026Z" fill="url(#paint14_linear_3_1167)"/>
<g filter="url(#filter0_f_3_1167)">
<path d="M380.494 209.952C324.676 214.872 192.985 277.357 150.37 314.736C141.68 322.367 163.424 327.771 174.676 332.636C180.247 335.05 181.175 343.536 182.011 346.08C184.481 353.749 191.295 360.007 200.58 360.007C209.864 360.007 219 349.942 219 344.483C219 340.732 217.255 334.084 238.293 332.636C259.332 331.188 275.58 330.241 349.131 324.503C422.663 318.765 387.624 258.658 380.512 209.952H380.494Z" fill="url(#paint15_linear_3_1167)"/>
<path d="M380.494 209.952C324.676 214.872 192.985 277.357 150.37 314.736C141.68 322.367 163.424 327.771 174.676 332.636C180.247 335.05 181.175 343.536 182.011 346.08C184.481 353.749 191.295 360.007 200.58 360.007C209.864 360.007 219 349.942 219 344.483C219 340.732 217.255 334.084 238.293 332.636C259.332 331.188 275.58 330.241 349.131 324.503C422.663 318.765 387.624 258.658 380.512 209.952H380.494Z" fill="url(#paint16_radial_3_1167)"/>
<path d="M380.494 209.952C324.676 214.872 192.985 277.357 150.37 314.736C141.68 322.367 163.424 327.771 174.676 332.636C180.247 335.05 181.175 343.536 182.011 346.08C184.481 353.749 191.295 360.007 200.58 360.007C209.864 360.007 219 349.942 219 344.483C219 340.732 217.255 334.084 238.293 332.636C259.332 331.188 275.58 330.241 349.131 324.503C422.663 318.765 387.624 258.658 380.512 209.952H380.494Z" fill="#C67B4D"/>
</g>
<path d="M441.214 250.097C438.429 219.032 411.319 196.006 380.494 198.624L121.273 221.464C106.41 222.869 92.7042 230.089 83.14 241.552C73.5757 253.015 68.9279 267.793 70.2089 282.667C72.9942 313.733 100.105 336.758 130.929 334.14L174.194 330.408C178.28 330.036 181.808 333.379 181.808 337.519L182.365 341.066C182.365 350.425 189.978 358.094 199.262 358.094C208.547 358.094 216.16 350.425 216.16 341.066L215.603 333.211C215.603 329.461 218.388 326.471 222.102 326.1L280.037 321.03C285.05 320.659 343.542 315.422 347.999 315.051L389.964 311.3C404.859 309.937 418.609 302.735 428.211 291.268C437.814 279.801 442.488 265 441.214 250.097V250.097Z" fill="url(#paint17_linear_3_1167)"/>
<path d="M441.214 250.097C438.429 219.032 411.319 196.006 380.494 198.624L121.273 221.464C106.41 222.869 92.7042 230.089 83.14 241.552C73.5757 253.015 68.9279 267.793 70.2089 282.667C72.9942 313.733 100.105 336.758 130.929 334.14L174.194 330.408C178.28 330.036 181.808 333.379 181.808 337.519L182.365 341.066C182.365 350.425 189.978 358.094 199.262 358.094C208.547 358.094 216.16 350.425 216.16 341.066L215.603 333.211C215.603 329.461 218.388 326.471 222.102 326.1L280.037 321.03C285.05 320.659 343.542 315.422 347.999 315.051L389.964 311.3C404.859 309.937 418.609 302.735 428.211 291.268C437.814 279.801 442.488 265 441.214 250.097V250.097Z" fill="url(#paint18_radial_3_1167)"/>
<path d="M441.214 250.097C438.429 219.032 411.319 196.006 380.494 198.624L121.273 221.464C106.41 222.869 92.7042 230.089 83.14 241.552C73.5757 253.015 68.9279 267.793 70.2089 282.667C72.9942 313.733 100.105 336.758 130.929 334.14L174.194 330.408C178.28 330.036 181.808 333.379 181.808 337.519L182.365 341.066C182.365 350.425 189.978 358.094 199.262 358.094C208.547 358.094 216.16 350.425 216.16 341.066L215.603 333.211C215.603 329.461 218.388 326.471 222.102 326.1L280.037 321.03C285.05 320.659 343.542 315.422 347.999 315.051L389.964 311.3C404.859 309.937 418.609 302.735 428.211 291.268C437.814 279.801 442.488 265 441.214 250.097V250.097Z" fill="url(#paint19_radial_3_1167)"/>
<path d="M441.214 250.097C438.429 219.032 411.319 196.006 380.494 198.624L121.273 221.464C106.41 222.869 92.7042 230.089 83.14 241.552C73.5757 253.015 68.9279 267.793 70.2089 282.667C72.9942 313.733 100.105 336.758 130.929 334.14L174.194 330.408C178.28 330.036 181.808 333.379 181.808 337.519L182.365 341.066C182.365 350.425 189.978 358.094 199.262 358.094C208.547 358.094 216.16 350.425 216.16 341.066L215.603 333.211C215.603 329.461 218.388 326.471 222.102 326.1L280.037 321.03C285.05 320.659 343.542 315.422 347.999 315.051L389.964 311.3C404.859 309.937 418.609 302.735 428.211 291.268C437.814 279.801 442.488 265 441.214 250.097V250.097Z" fill="url(#paint20_radial_3_1167)"/>
<defs>
<filter id="filter0_f_3_1167" x="147.368" y="208.952" width="248.71" height="152.055" filterUnits="userSpaceOnUse" color-interpolation-filters="sRGB">
<feFlood flood-opacity="0" result="BackgroundImageFix"/>
<feBlend mode="normal" in="SourceGraphic" in2="BackgroundImageFix" result="shape"/>
<feGaussianBlur stdDeviation="0.5" result="effect1_foregroundBlur_3_1167"/>
</filter>
<radialGradient id="paint0_radial_3_1167" cx="0" cy="0" r="1" gradientUnits="userSpaceOnUse" gradientTransform="translate(204.907 323.816) scale(33.3367 33.6046)">
<stop stop-color="#FFE0A8"/>
<stop offset="1" stop-color="#FFDEA3"/>
</radialGradient>
<linearGradient id="paint1_linear_3_1167" x1="169.237" y1="450.53" x2="357.247" y2="450.53" gradientUnits="userSpaceOnUse">
<stop stop-color="#C5987C"/>
<stop offset="0.216" stop-color="#CC8953"/>
<stop offset="0.568" stop-color="#EAA36E"/>
<stop offset="1" stop-color="#FCBD73"/>
</linearGradient>
<linearGradient id="paint2_linear_3_1167" x1="263.047" y1="374.007" x2="263.047" y2="510.656" gradientUnits="userSpaceOnUse">
<stop offset="0.883" stop-color="#C8746A" stop-opacity="0"/>
<stop offset="1" stop-color="#BE6D82"/>
</linearGradient>
<linearGradient id="paint3_linear_3_1167" x1="165.096" y1="431.961" x2="360.626" y2="431.961" gradientUnits="userSpaceOnUse">
<stop stop-color="#D4A789"/>
<stop offset="0.425" stop-color="#FAB88D"/>
<stop offset="0.757" stop-color="#FFF0C9"/>
<stop offset="1" stop-color="#F9CF9A"/>
</linearGradient>
<linearGradient id="paint4_linear_3_1167" x1="262.861" y1="374.007" x2="262.861" y2="510.656" gradientUnits="userSpaceOnUse">
<stop offset="0.917" stop-color="#E09A80" stop-opacity="0"/>
<stop offset="1" stop-color="#CA7D95"/>
</linearGradient>
<linearGradient id="paint5_linear_3_1167" x1="264.402" y1="136.604" x2="252.295" y2="13.0844" gradientUnits="userSpaceOnUse">
<stop offset="0.028" stop-color="#FFE4A8"/>
<stop offset="0.144" stop-color="#FFD59B"/>
<stop offset="0.251" stop-color="#FEDCAB"/>
</linearGradient>
<radialGradient id="paint6_radial_3_1167" cx="0" cy="0" r="1" gradientUnits="userSpaceOnUse" gradientTransform="translate(351.453 81.4735) rotate(115.278) scale(46.204 76.0602)">
<stop stop-color="#FFF6BA"/>
<stop offset="1" stop-color="#FFE5B1" stop-opacity="0"/>
</radialGradient>
<radialGradient id="paint7_radial_3_1167" cx="0" cy="0" r="1" gradientUnits="userSpaceOnUse" gradientTransform="translate(281.81 103.522) rotate(82.648) scale(108.826 202.215)">
<stop offset="0.454" stop-color="#E0BB89" stop-opacity="0"/>
<stop offset="0.662" stop-color="#E6BE8D"/>
</radialGradient>
<radialGradient id="paint8_radial_3_1167" cx="0" cy="0" r="1" gradientUnits="userSpaceOnUse" gradientTransform="translate(295.152 36.7968) rotate(177.089) scale(68.5611 175.259)">
<stop offset="0.128" stop-color="#FFF8BA"/>
<stop offset="0.347" stop-color="#FFE0AF"/>
<stop offset="0.646" stop-color="#FAD8A6" stop-opacity="0"/>
</radialGradient>
<linearGradient id="paint9_linear_3_1167" x1="276.565" y1="209.208" x2="269.434" y2="131.126" gradientUnits="userSpaceOnUse">
<stop offset="0.057" stop-color="#FFE4A8"/>
<stop offset="0.158" stop-color="#FFD59B"/>
<stop offset="0.356" stop-color="#FFDEA7"/>
<stop offset="0.846" stop-color="#FFE1A8"/>
<stop offset="0.968" stop-color="#FDD594"/>
</linearGradient>
<radialGradient id="paint10_radial_3_1167" cx="0" cy="0" r="1" gradientUnits="userSpaceOnUse" gradientTransform="translate(342.168 156.918) rotate(174.189) scale(263.641 145.499)">
<stop offset="0.685" stop-color="#FED29C" stop-opacity="0"/>
<stop offset="0.78" stop-color="#F9C994"/>
<stop offset="0.88" stop-color="#E4B783"/>
</radialGradient>
<radialGradient id="paint11_radial_3_1167" cx="0" cy="0" r="1" gradientUnits="userSpaceOnUse" gradientTransform="translate(387.421 149.955) rotate(123.275) scale(44.4205 67.8935)">
<stop stop-color="#FFF8BD"/>
<stop offset="1" stop-color="#FFE7B1" stop-opacity="0"/>
</radialGradient>
<radialGradient id="paint12_radial_3_1167" cx="0" cy="0" r="1" gradientUnits="userSpaceOnUse" gradientTransform="translate(255.712 266.364) scale(139.693 140.817)">
<stop offset="0.006" stop-color="#FFF5D4"/>
<stop offset="1" stop-color="#FFDEA3"/>
</radialGradient>
<linearGradient id="paint13_linear_3_1167" x1="137.057" y1="355.364" x2="382.779" y2="355.364" gradientUnits="userSpaceOnUse">
<stop stop-color="#D2AD8C"/>
<stop offset="0.088" stop-color="#D19870"/>
<stop offset="0.32" stop-color="#EAA26B"/>
<stop offset="0.745" stop-color="#F8BA81"/>
<stop offset="1" stop-color="#F8C589"/>
</linearGradient>
<linearGradient id="paint14_linear_3_1167" x1="264.068" y1="310.372" x2="264.068" y2="374.007" gradientUnits="userSpaceOnUse">
<stop offset="0.798" stop-color="#DB9176" stop-opacity="0"/>
<stop offset="0.898" stop-color="#E19978"/>
<stop offset="1" stop-color="#C97758"/>
</linearGradient>
<linearGradient id="paint15_linear_3_1167" x1="278.328" y1="343.48" x2="270.213" y2="218.159" gradientUnits="userSpaceOnUse">
<stop offset="0.03" stop-color="#D89387"/>
<stop offset="0.313" stop-color="#F8C6A3"/>
<stop offset="0.577" stop-color="#FFDBA7"/>
<stop offset="0.841" stop-color="#FFE0A6"/>
<stop offset="0.978" stop-color="#FDD594"/>
</linearGradient>
<radialGradient id="paint16_radial_3_1167" cx="0" cy="0" r="1" gradientUnits="userSpaceOnUse" gradientTransform="translate(307.355 251.799) rotate(83.325) scale(109.836 255.472)">
<stop offset="0.72" stop-color="#E1AE83" stop-opacity="0"/>
<stop offset="1" stop-color="#E7B286"/>
</radialGradient>
<linearGradient id="paint17_linear_3_1167" x1="278.329" y1="332.153" x2="270.214" y2="206.813" gradientUnits="userSpaceOnUse">
<stop offset="0.03" stop-color="#D89387"/>
<stop offset="0.313" stop-color="#F8C6A3"/>
<stop offset="0.577" stop-color="#FFDBA7"/>
<stop offset="0.841" stop-color="#FFE0A6"/>
<stop offset="0.978" stop-color="#FDD594"/>
</linearGradient>
<radialGradient id="paint18_radial_3_1167" cx="0" cy="0" r="1" gradientUnits="userSpaceOnUse" gradientTransform="translate(307.359 240.468) rotate(83.325) scale(109.836 255.472)">
<stop offset="0.72" stop-color="#E1AE83" stop-opacity="0"/>
<stop offset="0.925" stop-color="#E7B286"/>
</radialGradient>
<radialGradient id="paint19_radial_3_1167" cx="0" cy="0" r="1" gradientUnits="userSpaceOnUse" gradientTransform="translate(414.132 231.179) rotate(113.929) scale(51.5026 67.7457)">
<stop stop-color="#FFF8BD"/>
<stop offset="1" stop-color="#FFEEB6" stop-opacity="0"/>
</radialGradient>
<radialGradient id="paint20_radial_3_1167" cx="0" cy="0" r="1" gradientUnits="userSpaceOnUse" gradientTransform="translate(209.865 340.862) rotate(-5.07961) scale(26.2154 46.5725)">
<stop offset="0.197" stop-color="#FFD4A8"/>
<stop offset="0.407" stop-color="#FDC59F"/>
<stop offset="0.831" stop-color="#FBC49E" stop-opacity="0"/>
</radialGradient>
</defs>
</svg>
