<svg width="512" height="512" viewBox="0 0 512 512" fill="none" xmlns="http://www.w3.org/2000/svg">
<path d="M315.578 51H197.462C177.685 50.9976 158.101 54.8913 139.829 62.4586C121.556 70.0259 104.954 81.1187 90.9692 95.1033C76.9846 109.088 65.8919 125.69 58.3246 143.963C50.7572 162.235 46.8636 181.819 46.866 201.596V225.549H466.355V201.596C466.174 118.495 398.679 51 315.578 51Z" fill="#D99A64"/>
<path d="M315.578 51H197.462C177.685 50.9976 158.101 54.8913 139.829 62.4586C121.556 70.0259 104.954 81.1187 90.9692 95.1033C76.9846 109.088 65.8919 125.69 58.3246 143.963C50.7572 162.235 46.8636 181.819 46.866 201.596V225.549H466.355V201.596C466.174 118.495 398.679 51 315.578 51Z" fill="url(#paint0_radial_3_792)"/>
<g filter="url(#filter0_f_3_792)">
<path d="M252.301 168.157C254.178 168.224 256.049 167.913 257.803 167.241C259.556 166.57 261.157 165.552 262.508 164.248C263.86 162.944 264.934 161.382 265.669 159.653C266.403 157.925 266.781 156.067 266.781 154.189C266.781 152.311 266.403 150.452 265.669 148.724C264.934 146.996 263.86 145.433 262.508 144.129C261.157 142.826 259.556 141.808 257.803 141.136C256.049 140.465 254.178 140.153 252.301 140.221C248.684 140.351 245.258 141.88 242.745 144.485C240.232 147.09 238.827 150.569 238.827 154.189C238.827 157.809 240.232 161.287 242.745 163.892C245.258 166.498 248.684 168.026 252.301 168.157V168.157Z" fill="#E5A671"/>
</g>
<path d="M256.429 164.391C258.306 164.458 260.177 164.147 261.93 163.475C263.684 162.804 265.284 161.786 266.636 160.482C267.987 159.178 269.062 157.616 269.796 155.887C270.531 154.159 270.909 152.301 270.909 150.423C270.909 148.545 270.531 146.686 269.796 144.958C269.062 143.23 267.987 141.667 266.636 140.363C265.284 139.06 263.684 138.042 261.93 137.37C260.177 136.699 258.306 136.387 256.429 136.455C252.812 136.585 249.386 138.114 246.873 140.719C244.359 143.324 242.955 146.803 242.955 150.423C242.955 154.043 244.359 157.521 246.873 160.126C249.386 162.732 252.812 164.26 256.429 164.391V164.391Z" fill="url(#paint1_radial_3_792)"/>
<g filter="url(#filter1_f_3_792)">
<path d="M154.499 154.198C162.918 154.198 169.761 147.318 169.761 138.808C169.761 130.299 162.918 123.419 154.481 123.419C152.467 123.426 150.474 123.83 148.617 124.607C146.759 125.385 145.072 126.52 143.653 127.949C142.234 129.378 141.111 131.073 140.347 132.936C139.583 134.799 139.193 136.795 139.2 138.808C139.2 147.318 146.044 154.198 154.481 154.198H154.499Z" fill="#DE9B64"/>
</g>
<path d="M163.733 148.44C167.44 148.438 170.994 146.963 173.614 144.34C176.233 141.717 177.703 138.161 177.701 134.454C177.699 130.747 176.224 127.193 173.601 124.574C170.978 121.954 167.422 120.484 163.715 120.486C160.008 120.486 156.453 121.959 153.832 124.58C151.211 127.201 149.738 130.756 149.738 134.463C149.738 138.17 151.211 141.725 153.832 144.347C156.453 146.968 160.008 148.44 163.715 148.44H163.733Z" fill="url(#paint2_radial_3_792)"/>
<g filter="url(#filter2_f_3_792)">
<path d="M344.997 150.414C346.874 150.481 348.745 150.17 350.499 149.498C352.252 148.827 353.853 147.809 355.204 146.505C356.556 145.201 357.631 143.639 358.365 141.91C359.099 140.182 359.477 138.323 359.477 136.446C359.477 134.568 359.099 132.709 358.365 130.981C357.631 129.253 356.556 127.69 355.204 126.386C353.853 125.082 352.252 124.064 350.499 123.393C348.745 122.721 346.874 122.41 344.997 122.478C341.38 122.608 337.954 124.137 335.441 126.742C332.928 129.347 331.523 132.826 331.523 136.446C331.523 140.065 332.928 143.544 335.441 146.149C337.954 148.755 341.38 150.283 344.997 150.414V150.414Z" fill="#F4B982"/>
</g>
<path d="M349.144 148.44C352.851 148.44 356.406 146.968 359.027 144.347C361.648 141.725 363.121 138.17 363.121 134.463C363.121 130.756 361.648 127.201 359.027 124.58C356.406 121.959 352.851 120.486 349.144 120.486C345.437 120.486 341.882 121.959 339.261 124.58C336.64 127.201 335.167 130.756 335.167 134.463C335.167 138.17 336.64 141.725 339.261 144.347C341.882 146.968 345.437 148.44 349.144 148.44V148.44Z" fill="url(#paint3_radial_3_792)"/>
<g filter="url(#filter3_f_3_792)">
<path d="M204.939 112.068C213.375 112.068 220.219 105.188 220.219 96.6785C220.226 94.6647 219.837 92.6693 219.073 90.806C218.308 88.9428 217.185 87.2483 215.766 85.8193C214.347 84.3903 212.661 83.2547 210.803 82.4775C208.945 81.7002 206.952 81.2965 204.939 81.2894C202.925 81.2965 200.932 81.7002 199.074 82.4775C197.216 83.2547 195.53 84.3903 194.111 85.8193C192.692 87.2483 191.569 88.9428 190.805 90.806C190.04 92.6693 189.651 94.6647 189.658 96.6785C189.658 105.188 196.502 112.068 204.939 112.068Z" fill="#DE9D64"/>
</g>
<path d="M212.343 109.243C214.22 109.311 216.091 109 217.845 108.328C219.598 107.657 221.199 106.639 222.55 105.335C223.902 104.031 224.976 102.469 225.711 100.74C226.445 99.012 226.823 97.1534 226.823 95.2756C226.823 93.3978 226.445 91.5392 225.711 89.8109C224.976 88.0825 223.902 86.5199 222.55 85.2161C221.199 83.9124 219.598 82.8944 217.845 82.2229C216.091 81.5514 214.22 81.2401 212.343 81.3077C208.726 81.438 205.3 82.9666 202.787 85.5719C200.274 88.1771 198.869 91.6558 198.869 95.2756C198.869 98.8954 200.274 102.374 202.787 104.979C205.3 107.585 208.726 109.113 212.343 109.243V109.243Z" fill="url(#paint4_radial_3_792)"/>
<g filter="url(#filter4_f_3_792)">
<path d="M293.725 112.068C295.602 112.135 297.473 111.824 299.226 111.152C300.98 110.481 302.58 109.463 303.932 108.159C305.283 106.855 306.358 105.293 307.093 103.564C307.827 101.836 308.205 99.9775 308.205 98.0997C308.205 96.2219 307.827 94.3633 307.093 92.635C306.358 90.9066 305.283 89.3439 303.932 88.0402C302.58 86.7365 300.98 85.7185 299.226 85.047C297.473 84.3755 295.602 84.0642 293.725 84.1318C290.108 84.2621 286.682 85.7907 284.169 88.3959C281.656 91.0012 280.251 94.4798 280.251 98.0997C280.251 101.72 281.656 105.198 284.169 107.803C286.682 110.409 290.108 111.937 293.725 112.068V112.068Z" fill="#E6A769"/>
</g>
<path d="M300.515 109.243C302.391 109.311 304.262 109 306.016 108.328C307.77 107.657 309.37 106.639 310.721 105.335C312.073 104.031 313.148 102.469 313.882 100.74C314.616 99.012 314.995 97.1534 314.995 95.2756C314.995 93.3978 314.616 91.5392 313.882 89.8109C313.148 88.0825 312.073 86.5199 310.721 85.2161C309.37 83.9124 307.77 82.8944 306.016 82.2229C304.262 81.5514 302.391 81.2401 300.515 81.3077C296.897 81.438 293.471 82.9666 290.958 85.5719C288.445 88.1771 287.041 91.6558 287.041 95.2756C287.041 98.8954 288.445 102.374 290.958 104.979C293.471 107.585 296.897 109.113 300.515 109.243V109.243Z" fill="url(#paint5_radial_3_792)"/>
<path d="M463.457 221.367H49.3997V279.429H463.457V221.367V221.367Z" fill="url(#paint6_linear_3_792)"/>
<path d="M463.457 221.367H49.3997V279.429H463.457V221.367V221.367Z" fill="url(#paint7_linear_3_792)"/>
<path d="M467.803 379.404H45.0549C33.8939 379.394 23.1928 374.956 15.3007 367.064C7.40872 359.172 2.97077 348.471 2.96118 337.31C2.97077 326.149 7.40872 315.448 15.3007 307.556C23.1928 299.664 33.8939 295.226 45.0549 295.216H467.803C478.964 295.226 489.665 299.664 497.557 307.556C505.449 315.448 509.887 326.149 509.897 337.31C509.887 348.471 505.449 359.172 497.557 367.064C489.665 374.956 478.964 379.394 467.803 379.404V379.404Z" fill="url(#paint8_linear_3_792)"/>
<path d="M467.803 379.404H45.0549C33.8939 379.394 23.1928 374.956 15.3007 367.064C7.40872 359.172 2.97077 348.471 2.96118 337.31C2.97077 326.149 7.40872 315.448 15.3007 307.556C23.1928 299.664 33.8939 295.226 45.0549 295.216H467.803C478.964 295.226 489.665 299.664 497.557 307.556C505.449 315.448 509.887 326.149 509.897 337.31C509.887 348.471 505.449 359.172 497.557 367.064C489.665 374.956 478.964 379.394 467.803 379.404V379.404Z" fill="url(#paint9_radial_3_792)"/>
<path d="M467.803 379.404H45.0549C33.8939 379.394 23.1928 374.956 15.3007 367.064C7.40872 359.172 2.97077 348.471 2.96118 337.31C2.97077 326.149 7.40872 315.448 15.3007 307.556C23.1928 299.664 33.8939 295.226 45.0549 295.216H467.803C478.964 295.226 489.665 299.664 497.557 307.556C505.449 315.448 509.887 326.149 509.897 337.31C509.887 348.471 505.449 359.172 497.557 367.064C489.665 374.956 478.964 379.394 467.803 379.404V379.404Z" fill="url(#paint10_radial_3_792)"/>
<g filter="url(#filter5_f_3_792)">
<path fill-rule="evenodd" clip-rule="evenodd" d="M141.752 203.28C170.358 203.28 198.583 214.957 211.329 221.765C224.093 228.59 234.141 233.949 256.61 233.949C290.212 233.949 390.73 203.28 431.81 225.259C444.556 232.085 429.275 233.949 451.617 233.949L457.284 259.767C444.266 259.767 432.661 256.218 416.91 247.8L416.548 247.619C403.784 240.793 393.808 235.452 371.467 235.452C349.125 235.452 339.131 240.775 326.386 247.582L325.987 247.8C310.2 256.236 291.461 266.104 256.61 266.104C221.758 266.104 203.019 256.236 187.232 247.818L186.852 247.6C174.088 240.775 164.094 235.452 141.77 235.452C119.393 235.452 109.363 240.793 96.5446 247.619L96.2006 247.8C80.4132 256.218 77.0819 259.767 58.3977 259.767C58.3977 259.767 59.3754 228.554 72.1212 221.765C87.9448 213.328 106.738 203.298 141.752 203.298V203.28Z" fill="url(#paint11_linear_3_792)"/>
<path fill-rule="evenodd" clip-rule="evenodd" d="M141.752 203.28C170.358 203.28 198.583 214.957 211.329 221.765C224.093 228.59 234.141 233.949 256.61 233.949C290.212 233.949 390.73 203.28 431.81 225.259C444.556 232.085 429.275 233.949 451.617 233.949L457.284 259.767C444.266 259.767 432.661 256.218 416.91 247.8L416.548 247.619C403.784 240.793 393.808 235.452 371.467 235.452C349.125 235.452 339.131 240.775 326.386 247.582L325.987 247.8C310.2 256.236 291.461 266.104 256.61 266.104C221.758 266.104 203.019 256.236 187.232 247.818L186.852 247.6C174.088 240.775 164.094 235.452 141.77 235.452C119.393 235.452 109.363 240.793 96.5446 247.619L96.2006 247.8C80.4132 256.218 77.0819 259.767 58.3977 259.767C58.3977 259.767 59.3754 228.554 72.1212 221.765C87.9448 213.328 106.738 203.298 141.752 203.298V203.28Z" fill="#E0215C"/>
</g>
<path fill-rule="evenodd" clip-rule="evenodd" d="M72.4658 199.007C88.2533 190.588 106.992 180.721 141.753 180.721C176.532 180.721 195.235 190.606 211.004 199.007L211.33 199.188C224.094 206.014 234.142 211.373 256.61 211.373C279.078 211.373 289.126 206.014 301.872 199.206L302.216 199.025C317.967 190.606 336.688 180.721 371.467 180.721C406.229 180.721 424.949 190.606 440.7 199.025L441.062 199.206C453.79 206.032 463.784 211.373 486.143 211.373C492.837 211.373 499.256 214.032 503.989 218.765C508.722 223.498 511.381 229.917 511.381 236.611C511.381 243.304 508.722 249.724 503.989 254.457C499.256 259.19 492.837 261.849 486.143 261.849C451.346 261.849 432.644 251.946 416.892 243.527L416.53 243.346C403.784 236.52 393.809 231.179 371.449 231.179C349.126 231.179 339.132 236.52 326.368 243.328L326.006 243.545C310.2 251.964 291.462 261.831 256.61 261.831C221.758 261.831 203.02 251.964 187.232 243.545L186.852 243.328C174.088 236.52 164.094 231.198 141.771 231.198C119.394 231.198 109.363 236.538 96.5453 243.364L96.2013 243.545C80.4139 251.964 61.6753 261.831 26.9141 261.831C23.5441 261.921 20.1901 261.335 17.0502 260.108C13.9104 258.881 11.0482 257.037 8.63267 254.685C6.21716 252.334 4.29727 249.522 2.98634 246.416C1.6754 243.31 1 239.973 1 236.602C1 233.231 1.6754 229.894 2.98634 226.788C4.29727 223.682 6.21716 220.87 8.63267 218.518C11.0482 216.167 13.9104 214.323 17.0502 213.096C20.1901 211.868 23.5441 211.282 26.9141 211.373C49.2735 211.373 59.3217 206.032 72.1218 199.188L72.4658 199.007V199.007Z" fill="url(#paint12_linear_3_792)"/>
<path fill-rule="evenodd" clip-rule="evenodd" d="M72.4658 199.007C88.2533 190.588 106.992 180.721 141.753 180.721C176.532 180.721 195.235 190.606 211.004 199.007L211.33 199.188C224.094 206.014 234.142 211.373 256.61 211.373C279.078 211.373 289.126 206.014 301.872 199.206L302.216 199.025C317.967 190.606 336.688 180.721 371.467 180.721C406.229 180.721 424.949 190.606 440.7 199.025L441.062 199.206C453.79 206.032 463.784 211.373 486.143 211.373C492.837 211.373 499.256 214.032 503.989 218.765C508.722 223.498 511.381 229.917 511.381 236.611C511.381 243.304 508.722 249.724 503.989 254.457C499.256 259.19 492.837 261.849 486.143 261.849C451.346 261.849 432.644 251.946 416.892 243.527L416.53 243.346C403.784 236.52 393.809 231.179 371.449 231.179C349.126 231.179 339.132 236.52 326.368 243.328L326.006 243.545C310.2 251.964 291.462 261.831 256.61 261.831C221.758 261.831 203.02 251.964 187.232 243.545L186.852 243.328C174.088 236.52 164.094 231.198 141.771 231.198C119.394 231.198 109.363 236.538 96.5453 243.364L96.2013 243.545C80.4139 251.964 61.6753 261.831 26.9141 261.831C23.5441 261.921 20.1901 261.335 17.0502 260.108C13.9104 258.881 11.0482 257.037 8.63267 254.685C6.21716 252.334 4.29727 249.522 2.98634 246.416C1.6754 243.31 1 239.973 1 236.602C1 233.231 1.6754 229.894 2.98634 226.788C4.29727 223.682 6.21716 220.87 8.63267 218.518C11.0482 216.167 13.9104 214.323 17.0502 213.096C20.1901 211.868 23.5441 211.282 26.9141 211.373C49.2735 211.373 59.3217 206.032 72.1218 199.188L72.4658 199.007V199.007Z" fill="url(#paint13_radial_3_792)"/>
<path d="M416.64 461.962H96.202C90.0783 461.962 84.0145 460.755 78.3571 458.411C72.6998 456.067 67.5596 452.632 63.2303 448.301C58.901 443.97 55.4674 438.828 53.1256 433.17C50.7838 427.512 49.5797 421.448 49.582 415.324V379.422H463.622V415.161C463.555 427.589 458.576 439.486 449.771 448.257C440.966 457.028 429.05 461.961 416.621 461.98L416.64 461.962Z" fill="url(#paint14_linear_3_792)"/>
<path d="M416.64 461.962H96.202C90.0783 461.962 84.0145 460.755 78.3571 458.411C72.6998 456.067 67.5596 452.632 63.2303 448.301C58.901 443.97 55.4674 438.828 53.1256 433.17C50.7838 427.512 49.5797 421.448 49.582 415.324V379.422H463.622V415.161C463.555 427.589 458.576 439.486 449.771 448.257C440.966 457.028 429.05 461.961 416.621 461.98L416.64 461.962Z" fill="url(#paint15_radial_3_792)"/>
<path d="M463.457 279.429H49.3997V295.216L181.312 324.781C230.665 335.862 282.011 335.862 331.364 324.781L463.258 295.216V279.429H463.439H463.457Z" fill="url(#paint16_linear_3_792)"/>
<g filter="url(#filter6_f_3_792)">
<path d="M455.021 286.924C414.846 301.082 346.501 314.426 335.638 315.783" stroke="url(#paint17_linear_3_792)" stroke-width="0.25"/>
</g>
<g filter="url(#filter7_f_3_792)">
<path d="M55.0127 286.924C95.1873 301.082 163.533 314.426 174.396 315.783" stroke="url(#paint18_linear_3_792)" stroke-width="0.25"/>
</g>
<g filter="url(#filter8_f_3_792)">
<path d="M185.151 213.944C198.729 222.634 236.749 245.066 257.57 245.066C283.587 245.066 366.38 176.63 415.408 202.628C452.758 222.435 484.623 221.294 481.617 222.435" stroke="url(#paint19_radial_3_792)" stroke-width="0.75"/>
</g>
<g filter="url(#filter9_f_3_792)">
<path d="M108.204 219.882C81.3908 233.895 43.6965 252.416 21.6267 257.504L15.3987 219.882C15.3987 219.882 24.3968 225.73 59.5383 209.417C107.063 187.348 132.809 177.734 160.527 186.786L187.413 239.978C170.249 228.084 120.642 213.364 108.186 219.882H108.204Z" fill="url(#paint20_linear_3_792)"/>
</g>
<defs>
<filter id="filter0_f_3_792" x="238.327" y="139.712" width="28.9539" height="28.9539" filterUnits="userSpaceOnUse" color-interpolation-filters="sRGB">
<feFlood flood-opacity="0" result="BackgroundImageFix"/>
<feBlend mode="normal" in="SourceGraphic" in2="BackgroundImageFix" result="shape"/>
<feGaussianBlur stdDeviation="0.25" result="effect1_foregroundBlur_3_792"/>
</filter>
<filter id="filter1_f_3_792" x="138.7" y="122.919" width="31.561" height="31.7782" filterUnits="userSpaceOnUse" color-interpolation-filters="sRGB">
<feFlood flood-opacity="0" result="BackgroundImageFix"/>
<feBlend mode="normal" in="SourceGraphic" in2="BackgroundImageFix" result="shape"/>
<feGaussianBlur stdDeviation="0.25" result="effect1_foregroundBlur_3_792"/>
</filter>
<filter id="filter2_f_3_792" x="331.023" y="121.969" width="28.9539" height="28.9539" filterUnits="userSpaceOnUse" color-interpolation-filters="sRGB">
<feFlood flood-opacity="0" result="BackgroundImageFix"/>
<feBlend mode="normal" in="SourceGraphic" in2="BackgroundImageFix" result="shape"/>
<feGaussianBlur stdDeviation="0.25" result="effect1_foregroundBlur_3_792"/>
</filter>
<filter id="filter3_f_3_792" x="189.158" y="80.7894" width="31.5613" height="31.7782" filterUnits="userSpaceOnUse" color-interpolation-filters="sRGB">
<feFlood flood-opacity="0" result="BackgroundImageFix"/>
<feBlend mode="normal" in="SourceGraphic" in2="BackgroundImageFix" result="shape"/>
<feGaussianBlur stdDeviation="0.25" result="effect1_foregroundBlur_3_792"/>
</filter>
<filter id="filter4_f_3_792" x="279.751" y="83.6227" width="28.9539" height="28.9539" filterUnits="userSpaceOnUse" color-interpolation-filters="sRGB">
<feFlood flood-opacity="0" result="BackgroundImageFix"/>
<feBlend mode="normal" in="SourceGraphic" in2="BackgroundImageFix" result="shape"/>
<feGaussianBlur stdDeviation="0.25" result="effect1_foregroundBlur_3_792"/>
</filter>
<filter id="filter5_f_3_792" x="57.8977" y="202.78" width="399.886" height="63.8238" filterUnits="userSpaceOnUse" color-interpolation-filters="sRGB">
<feFlood flood-opacity="0" result="BackgroundImageFix"/>
<feBlend mode="normal" in="SourceGraphic" in2="BackgroundImageFix" result="shape"/>
<feGaussianBlur stdDeviation="0.25" result="effect1_foregroundBlur_3_792"/>
</filter>
<filter id="filter6_f_3_792" x="335.372" y="286.556" width="119.94" height="29.6011" filterUnits="userSpaceOnUse" color-interpolation-filters="sRGB">
<feFlood flood-opacity="0" result="BackgroundImageFix"/>
<feBlend mode="normal" in="SourceGraphic" in2="BackgroundImageFix" result="shape"/>
<feGaussianBlur stdDeviation="0.125" result="effect1_foregroundBlur_3_792"/>
</filter>
<filter id="filter7_f_3_792" x="54.7212" y="286.556" width="119.94" height="29.6011" filterUnits="userSpaceOnUse" color-interpolation-filters="sRGB">
<feFlood flood-opacity="0" result="BackgroundImageFix"/>
<feBlend mode="normal" in="SourceGraphic" in2="BackgroundImageFix" result="shape"/>
<feGaussianBlur stdDeviation="0.125" result="effect1_foregroundBlur_3_792"/>
</filter>
<filter id="filter8_f_3_792" x="184.448" y="195.859" width="298.241" height="50.0815" filterUnits="userSpaceOnUse" color-interpolation-filters="sRGB">
<feFlood flood-opacity="0" result="BackgroundImageFix"/>
<feBlend mode="normal" in="SourceGraphic" in2="BackgroundImageFix" result="shape"/>
<feGaussianBlur stdDeviation="0.25" result="effect1_foregroundBlur_3_792"/>
</filter>
<filter id="filter9_f_3_792" x="14.8987" y="182.899" width="173.014" height="75.1045" filterUnits="userSpaceOnUse" color-interpolation-filters="sRGB">
<feFlood flood-opacity="0" result="BackgroundImageFix"/>
<feBlend mode="normal" in="SourceGraphic" in2="BackgroundImageFix" result="shape"/>
<feGaussianBlur stdDeviation="0.25" result="effect1_foregroundBlur_3_792"/>
</filter>
<radialGradient id="paint0_radial_3_792" cx="0" cy="0" r="1" gradientUnits="userSpaceOnUse" gradientTransform="translate(411.46 129.082) rotate(154.335) scale(290 280.958)">
<stop offset="0.131" stop-color="#FFD39B"/>
<stop offset="1" stop-color="#FFD39A" stop-opacity="0"/>
</radialGradient>
<radialGradient id="paint1_radial_3_792" cx="0" cy="0" r="1" gradientUnits="userSpaceOnUse" gradientTransform="translate(264.293 142.366) rotate(124.244) scale(38.8289 38.8289)">
<stop offset="0.182" stop-color="#F6E8D9"/>
<stop offset="0.607" stop-color="#E2CFC1"/>
</radialGradient>
<radialGradient id="paint2_radial_3_792" cx="0" cy="0" r="1" gradientUnits="userSpaceOnUse" gradientTransform="translate(171.592 126.408) rotate(124.244) scale(38.8289 38.8289)">
<stop offset="0.182" stop-color="#F6E8D9"/>
<stop offset="0.607" stop-color="#E2CFC1"/>
</radialGradient>
<radialGradient id="paint3_radial_3_792" cx="0" cy="0" r="1" gradientUnits="userSpaceOnUse" gradientTransform="translate(357.023 126.41) rotate(124.244) scale(38.8289 38.8289)">
<stop offset="0.182" stop-color="#F6E8D9"/>
<stop offset="0.607" stop-color="#E2CFC1"/>
</radialGradient>
<radialGradient id="paint4_radial_3_792" cx="0" cy="0" r="1" gradientUnits="userSpaceOnUse" gradientTransform="translate(220.233 87.2074) rotate(124.244) scale(38.8289 38.8289)">
<stop offset="0.182" stop-color="#F6E8D9"/>
<stop offset="0.607" stop-color="#E2CFC1"/>
</radialGradient>
<radialGradient id="paint5_radial_3_792" cx="0" cy="0" r="1" gradientUnits="userSpaceOnUse" gradientTransform="translate(308.403 87.2054) rotate(124.244) scale(38.8289 38.8289)">
<stop offset="0.182" stop-color="#F6E8D9"/>
<stop offset="0.607" stop-color="#E2CFC1"/>
</radialGradient>
<linearGradient id="paint6_linear_3_792" x1="49.4178" y1="279.429" x2="463.457" y2="279.429" gradientUnits="userSpaceOnUse">
<stop stop-color="#DD7476"/>
<stop offset="0.085" stop-color="#E2565F"/>
<stop offset="0.243" stop-color="#DE445C"/>
<stop offset="0.508" stop-color="#D62650"/>
<stop offset="0.784" stop-color="#EB4A80"/>
<stop offset="0.94" stop-color="#DB4379"/>
<stop offset="1" stop-color="#D45E85"/>
</linearGradient>
<linearGradient id="paint7_linear_3_792" x1="256.428" y1="285.24" x2="256.428" y2="268.258" gradientUnits="userSpaceOnUse">
<stop offset="0.467" stop-color="#E72D62"/>
<stop offset="0.846" stop-color="#E72E64" stop-opacity="0"/>
</linearGradient>
<linearGradient id="paint8_linear_3_792" x1="256.429" y1="295.216" x2="256.429" y2="379.404" gradientUnits="userSpaceOnUse">
<stop stop-color="#946B52"/>
<stop offset="0.312" stop-color="#A77A6F"/>
<stop offset="0.661" stop-color="#98655D"/>
<stop offset="1" stop-color="#86536D"/>
</linearGradient>
<radialGradient id="paint9_radial_3_792" cx="0" cy="0" r="1" gradientUnits="userSpaceOnUse" gradientTransform="translate(165.905 288.626) rotate(84.2894) scale(102.348 338.215)">
<stop stop-color="#6B544C"/>
<stop offset="1" stop-color="#6B544C" stop-opacity="0"/>
</radialGradient>
<radialGradient id="paint10_radial_3_792" cx="0" cy="0" r="1" gradientUnits="userSpaceOnUse" gradientTransform="translate(256.429 365.572) rotate(90) scale(67.8932 213.208)">
<stop stop-color="#803E4C"/>
<stop offset="1" stop-color="#824456" stop-opacity="0"/>
</radialGradient>
<linearGradient id="paint11_linear_3_792" x1="7.4869" y1="225.549" x2="504.247" y2="225.549" gradientUnits="userSpaceOnUse">
<stop stop-color="#437151"/>
<stop offset="0.508" stop-color="#619F49"/>
<stop offset="1" stop-color="#79B142"/>
</linearGradient>
<linearGradient id="paint12_linear_3_792" x1="7.48756" y1="221.276" x2="504.248" y2="221.276" gradientUnits="userSpaceOnUse">
<stop stop-color="#437151"/>
<stop offset="0.508" stop-color="#619F49"/>
<stop offset="1" stop-color="#79B142"/>
</linearGradient>
<radialGradient id="paint13_radial_3_792" cx="0" cy="0" r="1" gradientUnits="userSpaceOnUse" gradientTransform="translate(16.54 233.75) rotate(81.8699) scale(32.0051 88.636)">
<stop stop-color="#6C9B83"/>
<stop offset="1" stop-color="#6D9B85" stop-opacity="0"/>
</radialGradient>
<linearGradient id="paint14_linear_3_792" x1="256.611" y1="379.404" x2="256.611" y2="461.962" gradientUnits="userSpaceOnUse">
<stop stop-color="#E18F63"/>
<stop offset="0.381" stop-color="#E89C6E"/>
<stop offset="0.573" stop-color="#EA9D75"/>
<stop offset="1" stop-color="#E0819D"/>
</linearGradient>
<radialGradient id="paint15_radial_3_792" cx="0" cy="0" r="1" gradientUnits="userSpaceOnUse" gradientTransform="translate(470.302 407.448) rotate(90) scale(65.6301 370.526)">
<stop stop-color="#FFD5AE"/>
<stop offset="1" stop-color="#FFC8A0" stop-opacity="0"/>
</radialGradient>
<linearGradient id="paint16_linear_3_792" x1="256.428" y1="262.609" x2="256.428" y2="333.092" gradientUnits="userSpaceOnUse">
<stop stop-color="#C7850F"/>
<stop offset="0.488" stop-color="#F0CD2D"/>
<stop offset="1" stop-color="#F7C747"/>
</linearGradient>
<linearGradient id="paint17_linear_3_792" x1="317.533" y1="307.872" x2="319.977" y2="271.988" gradientUnits="userSpaceOnUse">
<stop stop-color="#FFE07A" stop-opacity="0"/>
<stop offset="0.218" stop-color="#FFE68F"/>
<stop offset="1" stop-color="#FFDB5C"/>
</linearGradient>
<linearGradient id="paint18_linear_3_792" x1="192.501" y1="307.872" x2="190.039" y2="271.988" gradientUnits="userSpaceOnUse">
<stop stop-color="#FFE07A" stop-opacity="0"/>
<stop offset="0.218" stop-color="#FFE68F"/>
<stop offset="1" stop-color="#FFDB5C"/>
</linearGradient>
<radialGradient id="paint19_radial_3_792" cx="0" cy="0" r="1" gradientUnits="userSpaceOnUse" gradientTransform="translate(359.41 202.628) rotate(15.6949) scale(142.22 68.6634)">
<stop offset="0.227" stop-color="#87BE66"/>
<stop offset="1" stop-color="#92C771" stop-opacity="0"/>
</radialGradient>
<linearGradient id="paint20_linear_3_792" x1="31.2585" y1="238.277" x2="177.781" y2="216.768" gradientUnits="userSpaceOnUse">
<stop stop-color="#66987E"/>
<stop offset="0.458" stop-color="#66987E" stop-opacity="0.542"/>
<stop offset="1" stop-color="#66987E" stop-opacity="0"/>
</linearGradient>
</defs>
</svg>
