<svg width="512" height="512" viewBox="0 0 512 512" fill="none" xmlns="http://www.w3.org/2000/svg">
<path d="M506.999 42.7739C506.999 42.7739 386.499 41.7264 374.94 39.3785C363.381 37.0487 349.258 6.65271 302.968 6.65271H218.824C211.419 6.65271 205.278 12.7933 205.278 20.1982C205.278 27.603 211.419 34.8815 218.824 34.8815H272.915C272.915 34.8815 282.09 34.159 282.09 42.485C282.09 50.8109 272.915 50.1066 272.915 50.1066H218.824C211.419 50.1066 205.278 56.2472 205.278 63.652C205.278 71.0569 211.419 77.1975 218.824 77.1975H272.915C272.915 77.1975 282.09 76.0777 282.09 84.6746C282.09 93.2895 272.915 92.1517 272.915 92.1517H218.824C211.419 92.1517 205.278 99.1411 205.278 106.546C205.278 113.951 211.419 120.38 218.824 120.38H302.986C359.697 120.38 362.803 87.6365 379.166 85.9569C395.529 84.2592 506.999 84.2592 506.999 84.2592V42.7739Z" fill="url(#paint0_linear_3_966)"/>
<path d="M506.999 42.7739C506.999 42.7739 386.499 41.7264 374.94 39.3785C363.381 37.0487 349.258 6.65271 302.968 6.65271H218.824C211.419 6.65271 205.278 12.7933 205.278 20.1982C205.278 27.603 211.419 34.8815 218.824 34.8815H272.915C272.915 34.8815 282.09 34.159 282.09 42.485C282.09 50.8109 272.915 50.1066 272.915 50.1066H218.824C211.419 50.1066 205.278 56.2472 205.278 63.652C205.278 71.0569 211.419 77.1975 218.824 77.1975H272.915C272.915 77.1975 282.09 76.0777 282.09 84.6746C282.09 93.2895 272.915 92.1517 272.915 92.1517H218.824C211.419 92.1517 205.278 99.1411 205.278 106.546C205.278 113.951 211.419 120.38 218.824 120.38H302.986C359.697 120.38 362.803 87.6365 379.166 85.9569C395.529 84.2592 506.999 84.2592 506.999 84.2592V42.7739Z" fill="url(#paint1_radial_3_966)"/>
<path d="M506.999 42.7739C506.999 42.7739 386.499 41.7264 374.94 39.3785C363.381 37.0487 349.258 6.65271 302.968 6.65271H218.824C211.419 6.65271 205.278 12.7933 205.278 20.1982C205.278 27.603 211.419 34.8815 218.824 34.8815H272.915C272.915 34.8815 282.09 34.159 282.09 42.485C282.09 50.8109 272.915 50.1066 272.915 50.1066H218.824C211.419 50.1066 205.278 56.2472 205.278 63.652C205.278 71.0569 211.419 77.1975 218.824 77.1975H272.915C272.915 77.1975 282.09 76.0777 282.09 84.6746C282.09 93.2895 272.915 92.1517 272.915 92.1517H218.824C211.419 92.1517 205.278 99.1411 205.278 106.546C205.278 113.951 211.419 120.38 218.824 120.38H302.986C359.697 120.38 362.803 87.6365 379.166 85.9569C395.529 84.2592 506.999 84.2592 506.999 84.2592V42.7739Z" fill="url(#paint2_radial_3_966)"/>
<path d="M506.999 42.7739C506.999 42.7739 386.499 41.7264 374.94 39.3785C363.381 37.0487 349.258 6.65271 302.968 6.65271H218.824C211.419 6.65271 205.278 12.7933 205.278 20.1982C205.278 27.603 211.419 34.8815 218.824 34.8815H272.915C272.915 34.8815 282.09 34.159 282.09 42.485C282.09 50.8109 272.915 50.1066 272.915 50.1066H218.824C211.419 50.1066 205.278 56.2472 205.278 63.652C205.278 71.0569 211.419 77.1975 218.824 77.1975H272.915C272.915 77.1975 282.09 76.0777 282.09 84.6746C282.09 93.2895 272.915 92.1517 272.915 92.1517H218.824C211.419 92.1517 205.278 99.1411 205.278 106.546C205.278 113.951 211.419 120.38 218.824 120.38H302.986C359.697 120.38 362.803 87.6365 379.166 85.9569C395.529 84.2592 506.999 84.2592 506.999 84.2592V42.7739Z" fill="url(#paint3_radial_3_966)"/>
<path d="M506.999 42.7739C506.999 42.7739 386.499 41.7264 374.94 39.3785C363.381 37.0487 349.258 6.65271 302.968 6.65271H218.824C211.419 6.65271 205.278 12.7933 205.278 20.1982C205.278 27.603 211.419 34.8815 218.824 34.8815H272.915C272.915 34.8815 282.09 34.159 282.09 42.485C282.09 50.8109 272.915 50.1066 272.915 50.1066H218.824C211.419 50.1066 205.278 56.2472 205.278 63.652C205.278 71.0569 211.419 77.1975 218.824 77.1975H272.915C272.915 77.1975 282.09 76.0777 282.09 84.6746C282.09 93.2895 272.915 92.1517 272.915 92.1517H218.824C211.419 92.1517 205.278 99.1411 205.278 106.546C205.278 113.951 211.419 120.38 218.824 120.38H302.986C359.697 120.38 362.803 87.6365 379.166 85.9569C395.529 84.2592 506.999 84.2592 506.999 84.2592V42.7739Z" fill="url(#paint4_radial_3_966)"/>
<path d="M506.999 42.7739C506.999 42.7739 386.499 41.7264 374.94 39.3785C363.381 37.0487 349.258 6.65271 302.968 6.65271H218.824C211.419 6.65271 205.278 12.7933 205.278 20.1982C205.278 27.603 211.419 34.8815 218.824 34.8815H272.915C272.915 34.8815 282.09 34.159 282.09 42.485C282.09 50.8109 272.915 50.1066 272.915 50.1066H218.824C211.419 50.1066 205.278 56.2472 205.278 63.652C205.278 71.0569 211.419 77.1975 218.824 77.1975H272.915C272.915 77.1975 282.09 76.0777 282.09 84.6746C282.09 93.2895 272.915 92.1517 272.915 92.1517H218.824C211.419 92.1517 205.278 99.1411 205.278 106.546C205.278 113.951 211.419 120.38 218.824 120.38H302.986C359.697 120.38 362.803 87.6365 379.166 85.9569C395.529 84.2592 506.999 84.2592 506.999 84.2592V42.7739Z" fill="url(#paint5_radial_3_966)"/>
<path d="M506.999 42.7739C506.999 42.7739 386.499 41.7264 374.94 39.3785C363.381 37.0487 349.258 6.65271 302.968 6.65271H218.824C211.419 6.65271 205.278 12.7933 205.278 20.1982C205.278 27.603 211.419 34.8815 218.824 34.8815H272.915C272.915 34.8815 282.09 34.159 282.09 42.485C282.09 50.8109 272.915 50.1066 272.915 50.1066H218.824C211.419 50.1066 205.278 56.2472 205.278 63.652C205.278 71.0569 211.419 77.1975 218.824 77.1975H272.915C272.915 77.1975 282.09 76.0777 282.09 84.6746C282.09 93.2895 272.915 92.1517 272.915 92.1517H218.824C211.419 92.1517 205.278 99.1411 205.278 106.546C205.278 113.951 211.419 120.38 218.824 120.38H302.986C359.697 120.38 362.803 87.6365 379.166 85.9569C395.529 84.2592 506.999 84.2592 506.999 84.2592V42.7739Z" fill="url(#paint6_radial_3_966)"/>
<g filter="url(#filter0_f_3_966)">
<path d="M498.258 52.9426C498.258 52.9426 386.499 57.819 374.94 55.4711C363.382 53.1232 349.258 17.6522 302.969 17.6522L225.94 12.5952C218.535 12.5952 217.253 12.7939 217.253 20.1987C217.253 27.6036 218.517 28.1093 225.922 28.1093H272.916C280.393 28.1093 287.184 34.1596 287.184 42.4855C287.184 50.8115 279.689 55.4892 272.916 55.4892H223.394C215.989 55.4892 214.707 56.2477 214.707 63.6526C214.707 71.0574 215.989 72.123 223.394 72.123H272.916C279.544 72.123 287.184 76.0783 287.184 84.6751C287.184 93.29 280.538 97.2453 272.916 97.2453H221.985C214.58 97.2453 213.298 99.1417 213.298 106.547C213.298 113.951 216.007 114.728 223.412 114.728H302.969C359.697 114.728 363.652 80.3045 380.015 78.6068C396.378 76.9271 498.258 78.6068 498.258 78.6068V52.9426Z" fill="#B5AABB"/>
<path d="M498.258 52.9426C498.258 52.9426 386.499 57.819 374.94 55.4711C363.382 53.1232 349.258 17.6522 302.969 17.6522L225.94 12.5952C218.535 12.5952 217.253 12.7939 217.253 20.1987C217.253 27.6036 218.517 28.1093 225.922 28.1093H272.916C280.393 28.1093 287.184 34.1596 287.184 42.4855C287.184 50.8115 279.689 55.4892 272.916 55.4892H223.394C215.989 55.4892 214.707 56.2477 214.707 63.6526C214.707 71.0574 215.989 72.123 223.394 72.123H272.916C279.544 72.123 287.184 76.0783 287.184 84.6751C287.184 93.29 280.538 97.2453 272.916 97.2453H221.985C214.58 97.2453 213.298 99.1417 213.298 106.547C213.298 113.951 216.007 114.728 223.412 114.728H302.969C359.697 114.728 363.652 80.3045 380.015 78.6068C396.378 76.9271 498.258 78.6068 498.258 78.6068V52.9426Z" fill="url(#paint7_linear_3_966)"/>
<path d="M498.258 52.9426C498.258 52.9426 386.499 57.819 374.94 55.4711C363.382 53.1232 349.258 17.6522 302.969 17.6522L225.94 12.5952C218.535 12.5952 217.253 12.7939 217.253 20.1987C217.253 27.6036 218.517 28.1093 225.922 28.1093H272.916C280.393 28.1093 287.184 34.1596 287.184 42.4855C287.184 50.8115 279.689 55.4892 272.916 55.4892H223.394C215.989 55.4892 214.707 56.2477 214.707 63.6526C214.707 71.0574 215.989 72.123 223.394 72.123H272.916C279.544 72.123 287.184 76.0783 287.184 84.6751C287.184 93.29 280.538 97.2453 272.916 97.2453H221.985C214.58 97.2453 213.298 99.1417 213.298 106.547C213.298 113.951 216.007 114.728 223.412 114.728H302.969C359.697 114.728 363.652 80.3045 380.015 78.6068C396.378 76.9271 498.258 78.6068 498.258 78.6068V52.9426Z" fill="url(#paint8_radial_3_966)"/>
<path d="M498.258 52.9426C498.258 52.9426 386.499 57.819 374.94 55.4711C363.382 53.1232 349.258 17.6522 302.969 17.6522L225.94 12.5952C218.535 12.5952 217.253 12.7939 217.253 20.1987C217.253 27.6036 218.517 28.1093 225.922 28.1093H272.916C280.393 28.1093 287.184 34.1596 287.184 42.4855C287.184 50.8115 279.689 55.4892 272.916 55.4892H223.394C215.989 55.4892 214.707 56.2477 214.707 63.6526C214.707 71.0574 215.989 72.123 223.394 72.123H272.916C279.544 72.123 287.184 76.0783 287.184 84.6751C287.184 93.29 280.538 97.2453 272.916 97.2453H221.985C214.58 97.2453 213.298 99.1417 213.298 106.547C213.298 113.951 216.007 114.728 223.412 114.728H302.969C359.697 114.728 363.652 80.3045 380.015 78.6068C396.378 76.9271 498.258 78.6068 498.258 78.6068V52.9426Z" fill="url(#paint9_radial_3_966)"/>
</g>
<path d="M338.746 510.724H171.144C88.7875 510.724 39.6626 451.847 39.6626 379.243V327.229H470.228V379.243C470.228 451.847 425.726 510.724 338.746 510.724Z" fill="#9B86B5"/>
<path d="M338.746 510.724H171.144C88.7875 510.724 39.6626 451.847 39.6626 379.243V327.229H470.228V379.243C470.228 451.847 425.726 510.724 338.746 510.724Z" fill="url(#paint10_radial_3_966)"/>
<path d="M364.393 193.183H147.846C67.8376 193.183 3 254.408 3 341.461C3 422.589 67.8376 480.166 147.846 480.166H364.393C444.401 480.166 509.239 422.589 509.239 341.461C509.058 260.332 444.221 193.183 364.393 193.183V193.183Z" fill="url(#paint11_linear_3_966)"/>
<path d="M364.393 193.183H147.846C67.8376 193.183 3 254.408 3 341.461C3 422.589 67.8376 480.166 147.846 480.166H364.393C444.401 480.166 509.239 422.589 509.239 341.461C509.058 260.332 444.221 193.183 364.393 193.183V193.183Z" fill="url(#paint12_linear_3_966)"/>
<g filter="url(#filter1_f_3_966)">
<path d="M357.891 197.427H149.291C72.2263 197.427 9.77271 255.221 9.77271 337.397C9.77271 413.974 72.2263 468.337 149.291 468.337H357.891C434.956 468.337 497.409 413.974 497.409 337.397C497.229 260.82 434.775 197.427 357.891 197.427V197.427Z" fill="url(#paint13_linear_3_966)"/>
<path d="M357.891 197.427H149.291C72.2263 197.427 9.77271 255.221 9.77271 337.397C9.77271 413.974 72.2263 468.337 149.291 468.337H357.891C434.956 468.337 497.409 413.974 497.409 337.397C497.229 260.82 434.775 197.427 357.891 197.427V197.427Z" fill="url(#paint14_radial_3_966)"/>
</g>
<g filter="url(#filter2_f_3_966)">
<path d="M255.542 187.259C175.623 187.259 113.585 210.9 66.176 261.56C1.95246 329.956 59.8909 442.221 157.942 442.221H340.95C448.122 442.221 504.489 327.969 437.575 256.774C389.967 206.114 327.26 187.259 255.542 187.259Z" fill="url(#paint15_linear_3_966)"/>
</g>
<path d="M257.655 183.304C178.532 183.304 117.126 207.018 70.168 257.804C6.59462 326.398 63.9551 438.97 161.031 438.97H342.197C448.303 438.97 504.11 324.412 437.864 253.018C390.726 202.214 328.652 183.304 257.655 183.304V183.304Z" fill="#AD8E36"/>
<path d="M257.655 183.304C178.532 183.304 117.126 207.018 70.168 257.804C6.59462 326.398 63.9551 438.97 161.031 438.97H342.197C448.303 438.97 504.11 324.412 437.864 253.018C390.726 202.214 328.652 183.304 257.655 183.304V183.304Z" fill="url(#paint16_radial_3_966)"/>
<path d="M257.655 183.304C178.532 183.304 117.126 207.018 70.168 257.804C6.59462 326.398 63.9551 438.97 161.031 438.97H342.197C448.303 438.97 504.11 324.412 437.864 253.018C390.726 202.214 328.652 183.304 257.655 183.304V183.304Z" fill="url(#paint17_radial_3_966)"/>
<path d="M257.655 183.304C178.532 183.304 117.126 207.018 70.168 257.804C6.59462 326.398 63.9551 438.97 161.031 438.97H342.197C448.303 438.97 504.11 324.412 437.864 253.018C390.726 202.214 328.652 183.304 257.655 183.304V183.304Z" fill="url(#paint18_radial_3_966)"/>
<g filter="url(#filter3_f_3_966)">
<path d="M382.833 223.38C412.814 248.936 432.861 291.685 414.439 335.699C406.727 354.157 376.313 378.738 323.287 386.486C302.463 389.538 234.339 388.292 195.743 388.183C167.514 388.183 143.169 387.858 115.319 358.275C83.7131 324.682 94.1521 284.895 127.727 232.41C84.562 251.88 59.9995 327.789 106 374.367C121.442 389.971 145.787 405.395 195.743 405.395H323.287C378.607 405.395 414.638 374.566 428.833 339.925C447.075 295.406 417.437 239.255 382.833 223.38V223.38Z" fill="url(#paint19_linear_3_966)"/>
</g>
<path d="M123.79 291.884C123.79 348.053 190.253 371.857 256.409 371.821C322.023 371.766 387.348 348.342 387.348 291.866C387.348 231.797 322.023 206.277 256.409 206.44C190.235 206.62 123.79 233.007 123.79 291.866V291.884Z" fill="#BF2B3B"/>
<path d="M123.79 291.884C123.79 348.053 190.253 371.857 256.409 371.821C322.023 371.766 387.348 348.342 387.348 291.866C387.348 231.797 322.023 206.277 256.409 206.44C190.235 206.62 123.79 233.007 123.79 291.866V291.884Z" fill="url(#paint20_radial_3_966)"/>
<path d="M123.79 291.884C123.79 348.053 190.253 371.857 256.409 371.821C322.023 371.766 387.348 348.342 387.348 291.866C387.348 231.797 322.023 206.277 256.409 206.44C190.235 206.62 123.79 233.007 123.79 291.866V291.884Z" fill="url(#paint21_radial_3_966)"/>
<path d="M123.79 291.884C123.79 348.053 190.253 371.857 256.409 371.821C322.023 371.766 387.348 348.342 387.348 291.866C387.348 231.797 322.023 206.277 256.409 206.44C190.235 206.62 123.79 233.007 123.79 291.866V291.884Z" fill="url(#paint22_radial_3_966)"/>
<g filter="url(#filter4_f_3_966)">
<path d="M197.711 330.191C204.384 330.191 210.783 327.54 215.501 322.822C220.219 318.104 222.87 311.705 222.87 305.032C222.87 298.36 220.219 291.961 215.501 287.243C210.783 282.524 204.384 279.874 197.711 279.874C191.039 279.874 184.64 282.524 179.922 287.243C175.204 291.961 172.553 298.36 172.553 305.032C172.553 311.705 175.204 318.104 179.922 322.822C184.64 327.54 191.039 330.191 197.711 330.191Z" fill="#B61738"/>
</g>
<g filter="url(#filter5_f_3_966)">
<path d="M315.575 333.189C322.25 333.189 328.651 330.537 333.371 325.817C338.091 321.098 340.742 314.696 340.742 308.021C340.742 301.346 338.091 294.945 333.371 290.225C328.651 285.505 322.25 282.854 315.575 282.854C308.902 282.854 302.503 285.504 297.785 290.223C293.067 294.941 290.416 301.34 290.416 308.012C290.416 314.685 293.067 321.084 297.785 325.802C302.503 330.52 308.902 333.171 315.575 333.171V333.189Z" fill="#B61738"/>
</g>
<path d="M201.432 330.191C208.186 330.191 214.663 327.508 219.439 322.732C224.215 317.956 226.898 311.479 226.898 304.725C226.898 297.971 224.215 291.494 219.439 286.719C214.663 281.943 208.186 279.26 201.432 279.26C194.678 279.26 188.201 281.943 183.425 286.719C178.65 291.494 175.967 297.971 175.967 304.725C175.967 311.479 178.65 317.956 183.425 322.732C188.201 327.508 194.678 330.191 201.432 330.191Z" fill="url(#paint23_radial_3_966)"/>
<g filter="url(#filter6_f_3_966)">
<path d="M254.729 261.253C261.401 261.253 267.8 258.603 272.518 253.884C277.237 249.166 279.887 242.767 279.887 236.095C279.887 229.422 277.237 223.023 272.518 218.305C267.8 213.587 261.401 210.936 254.729 210.936C248.056 210.936 241.657 213.587 236.939 218.305C232.221 223.023 229.57 229.422 229.57 236.095C229.57 242.767 232.221 249.166 236.939 253.884C241.657 258.603 248.056 261.253 254.729 261.253V261.253Z" fill="#B61738"/>
</g>
<path d="M257.655 261.253C264.327 261.253 270.727 258.603 275.445 253.884C280.163 249.166 282.813 242.767 282.813 236.095C282.813 229.422 280.163 223.023 275.445 218.305C270.727 213.587 264.327 210.936 257.655 210.936C250.983 210.936 244.583 213.587 239.865 218.305C235.147 223.023 232.497 229.422 232.497 236.095C232.497 242.767 235.147 249.166 239.865 253.884C244.583 258.603 250.983 261.253 257.655 261.253Z" fill="url(#paint24_radial_3_966)"/>
<path d="M318.067 333.189C324.845 333.189 331.345 330.496 336.137 325.704C340.93 320.911 343.623 314.411 343.623 307.633C343.623 300.855 340.93 294.355 336.137 289.562C331.345 284.77 324.845 282.077 318.067 282.077C311.289 282.077 304.789 284.77 299.996 289.562C295.203 294.355 292.511 300.855 292.511 307.633C292.511 314.411 295.203 320.911 299.996 325.704C304.789 330.496 311.289 333.189 318.067 333.189V333.189Z" fill="url(#paint25_radial_3_966)"/>
<g filter="url(#filter7_f_3_966)">
<path d="M407.106 262.897C427.425 296.183 449.549 384.228 312.288 384.228C392.911 358.366 421.212 340.775 407.106 262.897Z" fill="url(#paint26_linear_3_966)"/>
</g>
<g filter="url(#filter8_f_3_966)">
<path d="M441.259 320.456C441.259 271.837 405.986 229.593 377.758 219.425C393.181 226.017 437.014 254.969 437.014 320.456C437.014 354.591 397.353 408.231 340.643 408.231H191.083V412.168H340.625C410.628 412.168 441.259 348.685 441.259 320.456Z" fill="url(#paint27_radial_3_966)"/>
</g>
<g filter="url(#filter9_f_3_966)">
<path d="M70.167 319.608C70.167 270.988 104.879 231.291 138.454 221.683C123.03 228.275 78.3485 254.12 78.3485 319.608C78.3485 353.742 121.802 408.213 178.531 408.213H328.091V412.186H178.531C108.546 412.186 70.167 347.836 70.167 319.608V319.608Z" fill="url(#paint28_linear_3_966)"/>
</g>
<path fill-rule="evenodd" clip-rule="evenodd" d="M228.938 37.9698C231.333 37.9698 233.63 38.9213 235.324 40.6148C237.017 42.3083 237.968 44.6052 237.968 47.0002V180.342C237.968 183.033 239.341 187.259 239.341 187.259C234.537 191.485 225.073 192.189 218.752 188.957C218.752 188.957 219.908 185.146 219.908 182.184V47.0002C219.908 44.6052 220.859 42.3083 222.553 40.6148C224.246 38.9213 226.543 37.9698 228.938 37.9698V37.9698Z" fill="url(#paint29_linear_3_966)"/>
<path fill-rule="evenodd" clip-rule="evenodd" d="M264.878 79.4556C267.273 79.4556 269.57 80.407 271.264 82.1005C272.957 83.794 273.909 86.0909 273.909 88.4859V181.317C273.909 183.593 275.173 186.844 275.173 186.844C270.947 191.486 258.954 191.359 254.71 186.844C254.71 186.844 255.848 183.593 255.848 181.335V88.5039C255.848 86.1089 256.799 83.8121 258.493 82.1185C260.186 80.425 262.483 79.4736 264.878 79.4736V79.4556Z" fill="url(#paint30_linear_3_966)"/>
<path fill-rule="evenodd" clip-rule="evenodd" d="M301.361 1.01806C303.756 1.01806 306.053 1.96947 307.746 3.66298C309.44 5.35649 310.391 7.65338 310.391 10.0484V184.713C310.391 188.252 312.017 191.485 312.017 191.485C305.515 194.447 293.812 192.912 290.416 188.668C290.416 188.668 292.331 185.995 292.331 182.599V10.0303C292.331 7.63532 293.282 5.33843 294.976 3.64492C296.669 1.9514 298.966 1 301.361 1V1.01806Z" fill="url(#paint31_linear_3_966)"/>
<defs>
<filter id="filter0_f_3_966" x="213.048" y="12.3452" width="285.46" height="102.633" filterUnits="userSpaceOnUse" color-interpolation-filters="sRGB">
<feFlood flood-opacity="0" result="BackgroundImageFix"/>
<feBlend mode="normal" in="SourceGraphic" in2="BackgroundImageFix" result="shape"/>
<feGaussianBlur stdDeviation="0.125" result="effect1_foregroundBlur_3_966"/>
</filter>
<filter id="filter1_f_3_966" x="9.27271" y="196.927" width="488.637" height="271.909" filterUnits="userSpaceOnUse" color-interpolation-filters="sRGB">
<feFlood flood-opacity="0" result="BackgroundImageFix"/>
<feBlend mode="normal" in="SourceGraphic" in2="BackgroundImageFix" result="shape"/>
<feGaussianBlur stdDeviation="0.25" result="effect1_foregroundBlur_3_966"/>
</filter>
<filter id="filter2_f_3_966" x="38.8713" y="187.009" width="427.849" height="255.462" filterUnits="userSpaceOnUse" color-interpolation-filters="sRGB">
<feFlood flood-opacity="0" result="BackgroundImageFix"/>
<feBlend mode="normal" in="SourceGraphic" in2="BackgroundImageFix" result="shape"/>
<feGaussianBlur stdDeviation="0.125" result="effect1_foregroundBlur_3_966"/>
</filter>
<filter id="filter3_f_3_966" x="80.7759" y="222.88" width="354.113" height="183.015" filterUnits="userSpaceOnUse" color-interpolation-filters="sRGB">
<feFlood flood-opacity="0" result="BackgroundImageFix"/>
<feBlend mode="normal" in="SourceGraphic" in2="BackgroundImageFix" result="shape"/>
<feGaussianBlur stdDeviation="0.25" result="effect1_foregroundBlur_3_966"/>
</filter>
<filter id="filter4_f_3_966" x="172.303" y="279.624" width="50.8169" height="50.8169" filterUnits="userSpaceOnUse" color-interpolation-filters="sRGB">
<feFlood flood-opacity="0" result="BackgroundImageFix"/>
<feBlend mode="normal" in="SourceGraphic" in2="BackgroundImageFix" result="shape"/>
<feGaussianBlur stdDeviation="0.125" result="effect1_foregroundBlur_3_966"/>
</filter>
<filter id="filter5_f_3_966" x="290.166" y="282.604" width="50.8259" height="50.835" filterUnits="userSpaceOnUse" color-interpolation-filters="sRGB">
<feFlood flood-opacity="0" result="BackgroundImageFix"/>
<feBlend mode="normal" in="SourceGraphic" in2="BackgroundImageFix" result="shape"/>
<feGaussianBlur stdDeviation="0.125" result="effect1_foregroundBlur_3_966"/>
</filter>
<filter id="filter6_f_3_966" x="229.32" y="210.686" width="50.8169" height="50.8169" filterUnits="userSpaceOnUse" color-interpolation-filters="sRGB">
<feFlood flood-opacity="0" result="BackgroundImageFix"/>
<feBlend mode="normal" in="SourceGraphic" in2="BackgroundImageFix" result="shape"/>
<feGaussianBlur stdDeviation="0.125" result="effect1_foregroundBlur_3_966"/>
</filter>
<filter id="filter7_f_3_966" x="311.788" y="262.397" width="110.951" height="122.331" filterUnits="userSpaceOnUse" color-interpolation-filters="sRGB">
<feFlood flood-opacity="0" result="BackgroundImageFix"/>
<feBlend mode="normal" in="SourceGraphic" in2="BackgroundImageFix" result="shape"/>
<feGaussianBlur stdDeviation="0.25" result="effect1_foregroundBlur_3_966"/>
</filter>
<filter id="filter8_f_3_966" x="190.583" y="218.925" width="251.176" height="193.743" filterUnits="userSpaceOnUse" color-interpolation-filters="sRGB">
<feFlood flood-opacity="0" result="BackgroundImageFix"/>
<feBlend mode="normal" in="SourceGraphic" in2="BackgroundImageFix" result="shape"/>
<feGaussianBlur stdDeviation="0.25" result="effect1_foregroundBlur_3_966"/>
</filter>
<filter id="filter9_f_3_966" x="69.667" y="221.183" width="258.924" height="191.503" filterUnits="userSpaceOnUse" color-interpolation-filters="sRGB">
<feFlood flood-opacity="0" result="BackgroundImageFix"/>
<feBlend mode="normal" in="SourceGraphic" in2="BackgroundImageFix" result="shape"/>
<feGaussianBlur stdDeviation="0.25" result="effect1_foregroundBlur_3_966"/>
</filter>
<linearGradient id="paint0_linear_3_966" x1="205.278" y1="63.5075" x2="497.409" y2="63.5075" gradientUnits="userSpaceOnUse">
<stop stop-color="#888291"/>
<stop offset="0.055" stop-color="#AEADB3"/>
<stop offset="0.884" stop-color="#AFAEB3"/>
<stop offset="1" stop-color="#B1B1B6"/>
</linearGradient>
<radialGradient id="paint1_radial_3_966" cx="0" cy="0" r="1" gradientUnits="userSpaceOnUse" gradientTransform="translate(352.924 37.6989) rotate(49.1596) scale(44.0155 29.8984)">
<stop stop-color="#D8D4DF"/>
<stop offset="1" stop-color="#CECBD6" stop-opacity="0"/>
</radialGradient>
<radialGradient id="paint2_radial_3_966" cx="0" cy="0" r="1" gradientUnits="userSpaceOnUse" gradientTransform="translate(435.894 87.9255) rotate(90) scale(18.625 129.811)">
<stop stop-color="#9F83AD"/>
<stop offset="1" stop-color="#9F82AD" stop-opacity="0"/>
</radialGradient>
<radialGradient id="paint3_radial_3_966" cx="0" cy="0" r="1" gradientUnits="userSpaceOnUse" gradientTransform="translate(252.471 41.0762) rotate(90) scale(22.4347 84.7184)">
<stop stop-color="#8E74A0"/>
<stop offset="1" stop-color="#8F74A2" stop-opacity="0"/>
</radialGradient>
<radialGradient id="paint4_radial_3_966" cx="0" cy="0" r="1" gradientUnits="userSpaceOnUse" gradientTransform="translate(252.471 83.9702) rotate(90) scale(22.5758 85.2512)">
<stop stop-color="#8E74A0"/>
<stop offset="1" stop-color="#8F74A2" stop-opacity="0"/>
</radialGradient>
<radialGradient id="paint5_radial_3_966" cx="0" cy="0" r="1" gradientUnits="userSpaceOnUse" gradientTransform="translate(291.969 123.487) rotate(90) scale(27.6553 228.432)">
<stop stop-color="#9C816C"/>
<stop offset="0.695" stop-color="#9E8373" stop-opacity="0"/>
</radialGradient>
<radialGradient id="paint6_radial_3_966" cx="0" cy="0" r="1" gradientUnits="userSpaceOnUse" gradientTransform="translate(292.529 55.1996) rotate(90) scale(65.1874 11.311)">
<stop offset="0.438" stop-color="#85747F"/>
<stop offset="1" stop-color="#867680" stop-opacity="0"/>
</radialGradient>
<linearGradient id="paint7_linear_3_966" x1="280.122" y1="72.6829" x2="305.515" y2="72.6829" gradientUnits="userSpaceOnUse">
<stop stop-color="#7E6C77" stop-opacity="0"/>
<stop offset="0.467" stop-color="#7E6D77"/>
<stop offset="1" stop-color="#7E6E77" stop-opacity="0"/>
</linearGradient>
<radialGradient id="paint8_radial_3_966" cx="0" cy="0" r="1" gradientUnits="userSpaceOnUse" gradientTransform="translate(257.546 110.502) rotate(90) scale(38.9432 11.8523)">
<stop offset="0.174" stop-color="#80736F"/>
<stop offset="1" stop-color="#7F7371" stop-opacity="0"/>
</radialGradient>
<radialGradient id="paint9_radial_3_966" cx="0" cy="0" r="1" gradientUnits="userSpaceOnUse" gradientTransform="translate(217.47 81.1533) rotate(90) scale(69.9849 31.6061)">
<stop offset="0.174" stop-color="#80736F"/>
<stop offset="1" stop-color="#7F7371" stop-opacity="0"/>
</radialGradient>
<radialGradient id="paint10_radial_3_966" cx="0" cy="0" r="1" gradientUnits="userSpaceOnUse" gradientTransform="translate(254.945 495.427) rotate(90) scale(40.6364 202.263)">
<stop stop-color="#AB85D4"/>
<stop offset="1" stop-color="#AB85D4" stop-opacity="0"/>
</radialGradient>
<linearGradient id="paint11_linear_3_966" x1="3" y1="322.714" x2="492.894" y2="322.714" gradientUnits="userSpaceOnUse">
<stop stop-color="#9A98A5"/>
<stop offset="1" stop-color="#F4F2FF"/>
</linearGradient>
<linearGradient id="paint12_linear_3_966" x1="256.12" y1="193.183" x2="256.12" y2="480.184" gradientUnits="userSpaceOnUse">
<stop offset="0.542" stop-color="#C8A0F5" stop-opacity="0"/>
<stop offset="1" stop-color="#BD8DEF"/>
</linearGradient>
<linearGradient id="paint13_linear_3_966" x1="16.5454" y1="332.882" x2="497.409" y2="332.882" gradientUnits="userSpaceOnUse">
<stop stop-color="#BCB4C3"/>
<stop offset="1" stop-color="#DFD5DB"/>
</linearGradient>
<radialGradient id="paint14_radial_3_966" cx="0" cy="0" r="1" gradientUnits="userSpaceOnUse" gradientTransform="translate(199.434 354.328) rotate(87.166) scale(114.147 278.012)">
<stop stop-color="#9A56A5"/>
<stop offset="1" stop-color="#A68EAA" stop-opacity="0"/>
</radialGradient>
<linearGradient id="paint15_linear_3_966" x1="56.0621" y1="314.749" x2="466.472" y2="314.749" gradientUnits="userSpaceOnUse">
<stop stop-color="#8E6E6C"/>
<stop offset="1" stop-color="#B8A46E"/>
</linearGradient>
<radialGradient id="paint16_radial_3_966" cx="0" cy="0" r="1" gradientUnits="userSpaceOnUse" gradientTransform="translate(387.926 301.276) rotate(90) scale(274.296 423.588)">
<stop stop-color="#FFEB4A"/>
<stop offset="0.424" stop-color="#F8D640"/>
<stop offset="0.846" stop-color="#FFEF4F" stop-opacity="0"/>
</radialGradient>
<radialGradient id="paint17_radial_3_966" cx="0" cy="0" r="1" gradientUnits="userSpaceOnUse" gradientTransform="translate(254.946 452.534) rotate(90) scale(224.629 511.074)">
<stop offset="0.032" stop-color="#DA9360"/>
<stop offset="0.653" stop-color="#DA9260" stop-opacity="0"/>
</radialGradient>
<radialGradient id="paint18_radial_3_966" cx="0" cy="0" r="1" gradientUnits="userSpaceOnUse" gradientTransform="translate(343.895 286.593) rotate(120.277) scale(176.455 138.458)">
<stop stop-color="#FFF254"/>
<stop offset="1" stop-color="#FFF254" stop-opacity="0"/>
</radialGradient>
<linearGradient id="paint19_linear_3_966" x1="434.396" y1="271.927" x2="82.2863" y2="275.304" gradientUnits="userSpaceOnUse">
<stop stop-color="#FFEB59"/>
<stop offset="0.501" stop-color="#EAB342"/>
<stop offset="1" stop-color="#D5AA38"/>
</linearGradient>
<radialGradient id="paint20_radial_3_966" cx="0" cy="0" r="1" gradientUnits="userSpaceOnUse" gradientTransform="translate(354.063 289.121) rotate(75.0089) scale(69.8215 138.441)">
<stop stop-color="#FF6E9A"/>
<stop offset="1" stop-color="#DF2C66"/>
</radialGradient>
<radialGradient id="paint21_radial_3_966" cx="0" cy="0" r="1" gradientUnits="userSpaceOnUse" gradientTransform="translate(279.563 273.047) rotate(84.8414) scale(163.207 268.141)">
<stop offset="0.342" stop-color="#BB2635" stop-opacity="0"/>
<stop offset="0.714" stop-color="#D92B83"/>
<stop offset="1" stop-color="#B72733"/>
</radialGradient>
<radialGradient id="paint22_radial_3_966" cx="0" cy="0" r="1" gradientUnits="userSpaceOnUse" gradientTransform="translate(293.114 297.879) rotate(99.34) scale(173.881 226.964)">
<stop offset="0.473" stop-color="#B52833" stop-opacity="0"/>
<stop offset="0.729" stop-color="#AE2E36"/>
</radialGradient>
<radialGradient id="paint23_radial_3_966" cx="0" cy="0" r="1" gradientUnits="userSpaceOnUse" gradientTransform="translate(211.016 299.844) rotate(136.169) scale(39.5918)">
<stop stop-color="#916561"/>
<stop offset="0.848" stop-color="#6C2730"/>
</radialGradient>
<radialGradient id="paint24_radial_3_966" cx="0" cy="0" r="1" gradientUnits="userSpaceOnUse" gradientTransform="translate(267.128 231.287) rotate(136.169) scale(39.1188)">
<stop stop-color="#9B6E66"/>
<stop offset="0.847" stop-color="#6C2730"/>
</radialGradient>
<radialGradient id="paint25_radial_3_966" cx="0" cy="0" r="1" gradientUnits="userSpaceOnUse" gradientTransform="translate(327.699 302.747) rotate(136.169) scale(39.7236)">
<stop stop-color="#A17269"/>
<stop offset="0.82" stop-color="#793C4F"/>
</radialGradient>
<linearGradient id="paint26_linear_3_966" x1="392.279" y1="264.866" x2="309.362" y2="398.569" gradientUnits="userSpaceOnUse">
<stop stop-color="#F6CE2C"/>
<stop offset="1" stop-color="#F4C924"/>
</linearGradient>
<radialGradient id="paint27_radial_3_966" cx="0" cy="0" r="1" gradientUnits="userSpaceOnUse" gradientTransform="translate(417.96 333.153) rotate(144.127) scale(123.282 163.168)">
<stop stop-color="#E7BE4C"/>
<stop offset="1" stop-color="#D79963" stop-opacity="0"/>
</radialGradient>
<linearGradient id="paint28_linear_3_966" x1="113.621" y1="256.395" x2="113.621" y2="412.168" gradientUnits="userSpaceOnUse">
<stop offset="0.471" stop-color="#AF9345"/>
<stop offset="0.841" stop-color="#D39A4A"/>
</linearGradient>
<linearGradient id="paint29_linear_3_966" x1="218.427" y1="111.729" x2="250.322" y2="111.729" gradientUnits="userSpaceOnUse">
<stop stop-color="#BA8C3D"/>
<stop offset="0.251" stop-color="#DEB030"/>
<stop offset="0.496" stop-color="#FFD851"/>
<stop offset="0.708" stop-color="#E8B83E"/>
</linearGradient>
<linearGradient id="paint30_linear_3_966" x1="254.367" y1="139.074" x2="286.262" y2="139.074" gradientUnits="userSpaceOnUse">
<stop stop-color="#BA8C3D"/>
<stop offset="0.251" stop-color="#DEB030"/>
<stop offset="0.496" stop-color="#FFD851"/>
<stop offset="0.708" stop-color="#E8B83E"/>
</linearGradient>
<linearGradient id="paint31_linear_3_966" x1="290.85" y1="87.6187" x2="322.745" y2="87.6187" gradientUnits="userSpaceOnUse">
<stop stop-color="#BA8C3D"/>
<stop offset="0.251" stop-color="#DEB030"/>
<stop offset="0.496" stop-color="#FFD851"/>
<stop offset="0.708" stop-color="#E8B83E"/>
</linearGradient>
</defs>
</svg>
