<svg width="512" height="512" viewBox="0 0 512 512" fill="none" xmlns="http://www.w3.org/2000/svg">
<path d="M490.619 188.521C490.619 84.867 406.752 1 303.098 1H208.521C105.048 1 21 84.867 21 188.521H106.319V346.452H405.299V188.521H490.619V188.521Z" fill="url(#paint0_linear_3_748)"/>
<g filter="url(#filter0_f_3_748)">
<path d="M482.781 191.897C482.781 90.4582 403.034 8.37023 304.518 8.37023H214.588C116.217 8.37023 36.3252 90.4582 36.3252 191.897H117.433V346.452H401.655V191.897H482.762H482.781Z" fill="url(#paint1_linear_3_748)"/>
<path d="M482.781 191.897C482.781 90.4582 403.034 8.37023 304.518 8.37023H214.588C116.217 8.37023 36.3252 90.4582 36.3252 191.897H117.433V346.452H401.655V191.897H482.762H482.781Z" fill="url(#paint2_linear_3_748)"/>
</g>
<path d="M385.145 188.52V190.336C385.145 261.677 327.237 319.585 255.896 319.585C184.554 319.585 126.646 261.677 126.646 190.336V188.52H21.1772L87.0727 478.243C89.1881 487.585 94.4214 495.93 101.911 501.902C109.401 507.874 118.701 511.118 128.28 511.1H383.512C403.298 511.1 420.362 497.485 424.719 478.243L490.614 188.52H385.145V188.52Z" fill="url(#paint3_linear_3_748)"/>
<g filter="url(#filter1_f_3_748)">
<path d="M184.377 56.5848C184.286 46.4191 208.92 38.105 216.435 33.6212C221.446 33.5668 263.978 41.2818 264.014 46.292L267.101 377.585C267.12 379.989 266.185 382.302 264.5 384.018C262.815 385.733 260.519 386.71 258.115 386.734L196.63 387.315C195.437 387.327 194.253 387.103 193.146 386.657C192.039 386.211 191.031 385.551 190.179 384.714C189.328 383.878 188.65 382.882 188.184 381.783C187.717 380.684 187.473 379.504 187.463 378.311L184.377 56.5848Z" fill="#9A1B2B"/>
</g>
<path d="M202.619 39.6297C202.6 37.2256 203.535 34.912 205.22 33.1967C206.905 31.4814 209.201 30.5046 211.605 30.4806L273.089 29.8997C274.281 29.8877 275.464 30.1107 276.57 30.5558C277.676 31.0009 278.683 31.6594 279.534 32.4938C280.386 33.3283 281.064 34.3222 281.531 35.4189C281.998 36.5155 282.245 37.6935 282.257 38.8854L285.343 370.178C285.362 372.582 284.427 374.896 282.742 376.611C281.058 378.326 278.761 379.303 276.357 379.327L214.873 379.908C213.679 379.92 212.495 379.697 211.388 379.25C210.281 378.804 209.273 378.144 208.422 377.308C207.57 376.471 206.892 375.475 206.426 374.376C205.96 373.278 205.715 372.098 205.705 370.904L202.619 39.6297V39.6297Z" fill="url(#paint4_linear_3_748)"/>
<path d="M202.619 39.6297C202.6 37.2256 203.535 34.912 205.22 33.1967C206.905 31.4814 209.201 30.5046 211.605 30.4806L273.089 29.8997C274.281 29.8877 275.464 30.1107 276.57 30.5558C277.676 31.0009 278.683 31.6594 279.534 32.4938C280.386 33.3283 281.064 34.3222 281.531 35.4189C281.998 36.5155 282.245 37.6935 282.257 38.8854L285.343 370.178C285.362 372.582 284.427 374.896 282.742 376.611C281.058 378.326 278.761 379.303 276.357 379.327L214.873 379.908C213.679 379.92 212.495 379.697 211.388 379.25C210.281 378.804 209.273 378.144 208.422 377.308C207.57 376.471 206.892 375.475 206.426 374.376C205.96 373.278 205.715 372.098 205.705 370.904L202.619 39.6297V39.6297Z" fill="url(#paint5_linear_3_748)"/>
<path d="M359.371 100.315C359.517 99.1312 359.895 97.9877 360.483 96.9499C361.071 95.9122 361.858 95.0006 362.799 94.2672C363.74 93.5338 364.816 92.993 365.966 92.6758C367.116 92.3586 368.317 92.2712 369.501 92.4185L430.531 99.8613C431.715 100.005 432.859 100.381 433.897 100.967C434.936 101.553 435.848 102.338 436.584 103.277C437.319 104.216 437.861 105.291 438.181 106.439C438.5 107.588 438.59 108.789 438.446 109.972L398.328 438.814C398.037 441.202 396.811 443.376 394.918 444.86C393.026 446.344 390.622 447.016 388.234 446.729L327.186 439.286C326.002 439.143 324.858 438.767 323.82 438.181C322.781 437.595 321.868 436.81 321.133 435.871C320.398 434.932 319.856 433.857 319.536 432.708C319.217 431.559 319.126 430.359 319.271 429.175L359.389 100.315H359.371Z" fill="url(#paint6_linear_3_748)"/>
<path d="M359.371 100.315C359.517 99.1312 359.895 97.9877 360.483 96.9499C361.071 95.9122 361.858 95.0006 362.799 94.2672C363.74 93.5338 364.816 92.993 365.966 92.6758C367.116 92.3586 368.317 92.2712 369.501 92.4185L430.531 99.8613C431.715 100.005 432.859 100.381 433.897 100.967C434.936 101.553 435.848 102.338 436.584 103.277C437.319 104.216 437.861 105.291 438.181 106.439C438.5 107.588 438.59 108.789 438.446 109.972L398.328 438.814C398.037 441.202 396.811 443.376 394.918 444.86C393.026 446.344 390.622 447.016 388.234 446.729L327.186 439.286C326.002 439.143 324.858 438.767 323.82 438.181C322.781 437.595 321.868 436.81 321.133 435.871C320.398 434.932 319.856 433.857 319.536 432.708C319.217 431.559 319.126 430.359 319.271 429.175L359.389 100.315H359.371Z" fill="url(#paint7_linear_3_748)"/>
<path d="M292.01 74.9372C292.163 73.7547 292.547 72.6138 293.14 71.5796C293.733 70.5455 294.525 69.6384 295.469 68.9101C296.413 68.1819 297.491 67.6467 298.642 67.3353C299.793 67.0239 300.994 66.9423 302.176 67.0951L363.17 75.0098C365.555 75.3218 367.719 76.5677 369.186 78.4737C370.653 80.3798 371.303 82.7902 370.994 85.1755L328.444 413.709C328.291 414.891 327.907 416.032 327.314 417.066C326.721 418.101 325.929 419.008 324.985 419.736C324.041 420.464 322.963 420.999 321.812 421.311C320.661 421.622 319.46 421.704 318.278 421.551L257.284 413.654C256.101 413.502 254.96 413.118 253.926 412.525C252.892 411.932 251.985 411.14 251.257 410.196C250.528 409.252 249.993 408.174 249.682 407.023C249.37 405.872 249.289 404.671 249.442 403.489L292.029 74.9372H292.01Z" fill="url(#paint8_linear_3_748)"/>
<path d="M292.01 74.9372C292.163 73.7547 292.547 72.6138 293.14 71.5796C293.733 70.5455 294.525 69.6384 295.469 68.9101C296.413 68.1819 297.491 67.6467 298.642 67.3353C299.793 67.0239 300.994 66.9423 302.176 67.0951L363.17 75.0098C365.555 75.3218 367.719 76.5677 369.186 78.4737C370.653 80.3798 371.303 82.7902 370.994 85.1755L328.444 413.709C328.291 414.891 327.907 416.032 327.314 417.066C326.721 418.101 325.929 419.008 324.985 419.736C324.041 420.464 322.963 420.999 321.812 421.311C320.661 421.622 319.46 421.704 318.278 421.551L257.284 413.654C256.101 413.502 254.96 413.118 253.926 412.525C252.892 411.932 251.985 411.14 251.257 410.196C250.528 409.252 249.993 408.174 249.682 407.023C249.37 405.872 249.289 404.671 249.442 403.489L292.029 74.9372H292.01Z" fill="url(#paint9_linear_3_748)"/>
<path d="M292.01 74.9372C292.163 73.7547 292.547 72.6138 293.14 71.5796C293.733 70.5455 294.525 69.6384 295.469 68.9101C296.413 68.1819 297.491 67.6467 298.642 67.3353C299.793 67.0239 300.994 66.9423 302.176 67.0951L363.17 75.0098C365.555 75.3218 367.719 76.5677 369.186 78.4737C370.653 80.3798 371.303 82.7902 370.994 85.1755L328.444 413.709C328.291 414.891 327.907 416.032 327.314 417.066C326.721 418.101 325.929 419.008 324.985 419.736C324.041 420.464 322.963 420.999 321.812 421.311C320.661 421.622 319.46 421.704 318.278 421.551L257.284 413.654C256.101 413.502 254.96 413.118 253.926 412.525C252.892 411.932 251.985 411.14 251.257 410.196C250.528 409.252 249.993 408.174 249.682 407.023C249.37 405.872 249.289 404.671 249.442 403.489L292.029 74.9372H292.01Z" fill="url(#paint10_radial_3_748)"/>
<g filter="url(#filter2_f_3_748)">
<path d="M65.1682 124.386C64.1879 116.399 83.8295 99.1898 94.2312 90.5308C95.4515 89.4517 97.0317 88.8689 98.6605 88.897C109.08 89.3327 143.281 94.5063 143.934 98.9719L171.599 334.453C171.777 335.633 171.72 336.837 171.432 337.995C171.144 339.153 170.63 340.243 169.92 341.202C169.211 342.162 168.318 342.972 167.295 343.586C166.272 344.2 165.137 344.607 163.957 344.782L103.144 353.858C100.783 354.214 98.3756 353.625 96.4455 352.218C94.5154 350.811 93.2175 348.7 92.8334 346.343L92.8152 346.216L65.1682 124.386V124.386Z" fill="#93142A"/>
</g>
<path d="M85.5916 94.6875C85.2377 92.3095 85.8418 89.8883 87.2712 87.9552C88.7006 86.0221 90.8385 84.7351 93.2158 84.3766L154.047 75.2819C155.225 75.1041 156.428 75.1603 157.585 75.4473C158.742 75.7342 159.831 76.2463 160.791 76.9544C161.75 77.6624 162.56 78.5524 163.175 79.5736C163.79 80.5949 164.198 81.7273 164.376 82.9062L213.389 410.568C213.742 412.949 213.136 415.373 211.703 417.306C210.27 419.24 208.127 420.525 205.746 420.879L144.934 429.956C143.755 430.133 142.553 430.077 141.395 429.79C140.238 429.503 139.149 428.991 138.19 428.283C137.231 427.575 136.42 426.685 135.805 425.664C135.19 424.643 134.782 423.51 134.605 422.331L85.5916 94.6875V94.6875Z" fill="url(#paint11_linear_3_748)"/>
<path d="M85.5916 94.6875C85.2377 92.3095 85.8418 89.8883 87.2712 87.9552C88.7006 86.0221 90.8385 84.7351 93.2158 84.3766L154.047 75.2819C155.225 75.1041 156.428 75.1603 157.585 75.4473C158.742 75.7342 159.831 76.2463 160.791 76.9544C161.75 77.6624 162.56 78.5524 163.175 79.5736C163.79 80.5949 164.198 81.7273 164.376 82.9062L213.389 410.568C213.742 412.949 213.136 415.373 211.703 417.306C210.27 419.24 208.127 420.525 205.746 420.879L144.934 429.956C143.755 430.133 142.553 430.077 141.395 429.79C140.238 429.503 139.149 428.991 138.19 428.283C137.231 427.575 136.42 426.685 135.805 425.664C135.19 424.643 134.782 423.51 134.605 422.331L85.5916 94.6875V94.6875Z" fill="url(#paint12_linear_3_748)"/>
<path d="M85.5916 94.6875C85.2377 92.3095 85.8418 89.8883 87.2712 87.9552C88.7006 86.0221 90.8385 84.7351 93.2158 84.3766L154.047 75.2819C155.225 75.1041 156.428 75.1603 157.585 75.4473C158.742 75.7342 159.831 76.2463 160.791 76.9544C161.75 77.6624 162.56 78.5524 163.175 79.5736C163.79 80.5949 164.198 81.7273 164.376 82.9062L213.389 410.568C213.742 412.949 213.136 415.373 211.703 417.306C210.27 419.24 208.127 420.525 205.746 420.879L144.934 429.956C143.755 430.133 142.553 430.077 141.395 429.79C140.238 429.503 139.149 428.991 138.19 428.283C137.231 427.575 136.42 426.685 135.805 425.664C135.19 424.643 134.782 423.51 134.605 422.331L85.5916 94.6875V94.6875Z" fill="url(#paint13_radial_3_748)"/>
<path d="M160.419 108.684C160.18 106.288 160.903 103.897 162.429 102.035C163.954 100.172 166.156 98.9924 168.551 98.7538L229.727 92.6544C230.916 92.5341 232.116 92.6497 233.26 92.9945C234.404 93.3394 235.469 93.9067 236.393 94.664C237.318 95.4212 238.083 96.3535 238.646 97.4074C239.209 98.4612 239.559 99.6159 239.675 100.805L272.441 430.464C272.679 432.859 271.956 435.251 270.431 437.113C268.906 438.975 266.703 440.155 264.308 440.394L203.133 446.475C201.945 446.595 200.746 446.48 199.603 446.137C198.46 445.793 197.396 445.227 196.472 444.472C195.548 443.717 194.782 442.786 194.218 441.735C193.654 440.683 193.303 439.53 193.185 438.342L160.419 108.684Z" fill="url(#paint14_linear_3_748)"/>
<path d="M160.419 108.684C160.18 106.288 160.903 103.897 162.429 102.035C163.954 100.172 166.156 98.9924 168.551 98.7538L229.727 92.6544C230.916 92.5341 232.116 92.6497 233.26 92.9945C234.404 93.3394 235.469 93.9067 236.393 94.664C237.318 95.4212 238.083 96.3535 238.646 97.4074C239.209 98.4612 239.559 99.6159 239.675 100.805L272.441 430.464C272.679 432.859 271.956 435.251 270.431 437.113C268.906 438.975 266.703 440.155 264.308 440.394L203.133 446.475C201.945 446.595 200.746 446.48 199.603 446.137C198.46 445.793 197.396 445.227 196.472 444.472C195.548 443.717 194.782 442.786 194.218 441.735C193.654 440.683 193.303 439.53 193.185 438.342L160.419 108.684Z" fill="url(#paint15_linear_3_748)"/>
<path d="M408.563 188.52C395.856 188.52 385.327 197.779 383.149 210.304C372.438 270.935 319.613 317.044 255.896 317.044C192.179 317.044 139.353 270.935 128.643 210.304C126.465 197.779 115.936 188.52 103.229 188.52H21.1772L87.0727 478.243C89.1881 487.585 94.4214 495.93 101.911 501.902C109.401 507.874 118.701 511.118 128.28 511.1H383.512C403.298 511.1 420.362 497.485 424.719 478.243L490.614 188.52H408.563V188.52Z" fill="url(#paint16_linear_3_748)"/>
<g filter="url(#filter3_f_3_748)">
<path d="M118.014 202.39C122.915 243.597 161.69 323.779 254.162 323.779" stroke="url(#paint17_radial_3_748)" stroke-width="0.3" stroke-linecap="round"/>
</g>
<g filter="url(#filter4_f_3_748)">
<path d="M481.631 199.558L395.695 200.973C390.303 200.973 388.07 208.561 387.163 214.007C384.549 229.746 353.707 320.384 266.917 320.384" stroke="url(#paint18_linear_3_748)" stroke-width="0.3" stroke-linecap="round"/>
</g>
<defs>
<filter id="filter0_f_3_748" x="35.8252" y="7.87023" width="447.456" height="339.082" filterUnits="userSpaceOnUse" color-interpolation-filters="sRGB">
<feFlood flood-opacity="0" result="BackgroundImageFix"/>
<feBlend mode="normal" in="SourceGraphic" in2="BackgroundImageFix" result="shape"/>
<feGaussianBlur stdDeviation="0.25" result="effect1_foregroundBlur_3_748"/>
</filter>
<filter id="filter1_f_3_748" x="182.377" y="31.6209" width="86.7236" height="357.694" filterUnits="userSpaceOnUse" color-interpolation-filters="sRGB">
<feFlood flood-opacity="0" result="BackgroundImageFix"/>
<feBlend mode="normal" in="SourceGraphic" in2="BackgroundImageFix" result="shape"/>
<feGaussianBlur stdDeviation="1" result="effect1_foregroundBlur_3_748"/>
</filter>
<filter id="filter2_f_3_748" x="63.1328" y="86.896" width="110.568" height="269.064" filterUnits="userSpaceOnUse" color-interpolation-filters="sRGB">
<feFlood flood-opacity="0" result="BackgroundImageFix"/>
<feBlend mode="normal" in="SourceGraphic" in2="BackgroundImageFix" result="shape"/>
<feGaussianBlur stdDeviation="1" result="effect1_foregroundBlur_3_748"/>
</filter>
<filter id="filter3_f_3_748" x="117.614" y="201.99" width="136.948" height="122.189" filterUnits="userSpaceOnUse" color-interpolation-filters="sRGB">
<feFlood flood-opacity="0" result="BackgroundImageFix"/>
<feBlend mode="normal" in="SourceGraphic" in2="BackgroundImageFix" result="shape"/>
<feGaussianBlur stdDeviation="0.125" result="effect1_foregroundBlur_3_748"/>
</filter>
<filter id="filter4_f_3_748" x="266.517" y="199.158" width="215.514" height="121.627" filterUnits="userSpaceOnUse" color-interpolation-filters="sRGB">
<feFlood flood-opacity="0" result="BackgroundImageFix"/>
<feBlend mode="normal" in="SourceGraphic" in2="BackgroundImageFix" result="shape"/>
<feGaussianBlur stdDeviation="0.125" result="effect1_foregroundBlur_3_748"/>
</filter>
<linearGradient id="paint0_linear_3_748" x1="255.809" y1="1" x2="255.809" y2="264.219" gradientUnits="userSpaceOnUse">
<stop stop-color="#B22D50"/>
<stop offset="1" stop-color="#A7273C"/>
</linearGradient>
<linearGradient id="paint1_linear_3_748" x1="108.901" y1="44.9849" x2="304.663" y2="196.417" gradientUnits="userSpaceOnUse">
<stop stop-color="#B5425F"/>
<stop offset="1" stop-color="#B74561" stop-opacity="0"/>
</linearGradient>
<linearGradient id="paint2_linear_3_748" x1="187.794" y1="215.442" x2="187.794" y2="8.37023" gradientUnits="userSpaceOnUse">
<stop offset="0.11" stop-color="#902438"/>
<stop offset="0.214" stop-color="#94273B" stop-opacity="0"/>
</linearGradient>
<linearGradient id="paint3_linear_3_748" x1="21.1046" y1="349.792" x2="490.596" y2="349.792" gradientUnits="userSpaceOnUse">
<stop stop-color="#ED1C26"/>
<stop offset="0.456" stop-color="#ED1452"/>
<stop offset="1" stop-color="#EC098C"/>
</linearGradient>
<linearGradient id="paint4_linear_3_748" x1="251.324" y1="62.2665" x2="299.756" y2="369.143" gradientUnits="userSpaceOnUse">
<stop offset="0.048" stop-color="#FEE654"/>
<stop offset="0.327" stop-color="#CB9A28"/>
<stop offset="0.686" stop-color="#995C11"/>
</linearGradient>
<linearGradient id="paint5_linear_3_748" x1="208.229" y1="104.454" x2="226.345" y2="104.472" gradientUnits="userSpaceOnUse">
<stop stop-color="#D3A524"/>
<stop offset="0.467" stop-color="#DBAD29"/>
<stop offset="1" stop-color="#D1A71E" stop-opacity="0"/>
</linearGradient>
<linearGradient id="paint6_linear_3_748" x1="354.76" y1="96.9931" x2="409.909" y2="441.047" gradientUnits="userSpaceOnUse">
<stop offset="0.048" stop-color="#FFE855"/>
<stop offset="0.686" stop-color="#F7BC4A"/>
</linearGradient>
<linearGradient id="paint7_linear_3_748" x1="357.392" y1="171.184" x2="381.754" y2="174.343" gradientUnits="userSpaceOnUse">
<stop stop-color="#DDA80E"/>
<stop offset="0.552" stop-color="#DDA80E"/>
<stop offset="1" stop-color="#CFAB2B" stop-opacity="0"/>
</linearGradient>
<linearGradient id="paint8_linear_3_748" x1="285.639" y1="71.6697" x2="339.807" y2="416.196" gradientUnits="userSpaceOnUse">
<stop offset="0.048" stop-color="#FFE855"/>
<stop offset="0.686" stop-color="#F7BC4A"/>
</linearGradient>
<linearGradient id="paint9_linear_3_748" x1="281.391" y1="143.955" x2="306.279" y2="147.822" gradientUnits="userSpaceOnUse">
<stop stop-color="#BA8F22"/>
<stop offset="0.552" stop-color="#CAA92E"/>
<stop offset="1" stop-color="#CFAB2B" stop-opacity="0"/>
</linearGradient>
<radialGradient id="paint10_radial_3_748" cx="0" cy="0" r="1" gradientUnits="userSpaceOnUse" gradientTransform="translate(340.951 309.601) rotate(98.9726) scale(130.943 67.1549)">
<stop stop-color="#B96D11"/>
<stop offset="1" stop-color="#C07617" stop-opacity="0"/>
</radialGradient>
<linearGradient id="paint11_linear_3_748" x1="123.64" y1="79.8202" x2="175.34" y2="425.417" gradientUnits="userSpaceOnUse">
<stop offset="0.048" stop-color="#FDE252"/>
<stop offset="0.686" stop-color="#D3A538"/>
</linearGradient>
<linearGradient id="paint12_linear_3_748" x1="94.1779" y1="150.762" x2="117.722" y2="147.368" gradientUnits="userSpaceOnUse">
<stop stop-color="#BA8F22"/>
<stop offset="0.552" stop-color="#CAA92E"/>
<stop offset="1" stop-color="#CFAB2B" stop-opacity="0"/>
</linearGradient>
<radialGradient id="paint13_radial_3_748" cx="0" cy="0" r="1" gradientUnits="userSpaceOnUse" gradientTransform="translate(182.113 252.629) rotate(82.763) scale(180.127 84.6067)">
<stop stop-color="#A7650A"/>
<stop offset="1" stop-color="#A15D0A" stop-opacity="0"/>
</radialGradient>
<linearGradient id="paint14_linear_3_748" x1="193.784" y1="97.2471" x2="252.091" y2="439.668" gradientUnits="userSpaceOnUse">
<stop offset="0.048" stop-color="#FFE855"/>
<stop offset="0.686" stop-color="#F7BC4A"/>
</linearGradient>
<linearGradient id="paint15_linear_3_748" x1="167.97" y1="167.989" x2="190.698" y2="165.775" gradientUnits="userSpaceOnUse">
<stop stop-color="#BA8F22"/>
<stop offset="0.552" stop-color="#CAA92E"/>
<stop offset="1" stop-color="#CFAB2B" stop-opacity="0"/>
</linearGradient>
<linearGradient id="paint16_linear_3_748" x1="62.9837" y1="373.137" x2="473.696" y2="322.09" gradientUnits="userSpaceOnUse">
<stop stop-color="#BB2C41"/>
<stop offset="0.161" stop-color="#DD2B5D"/>
<stop offset="0.49" stop-color="#E92F74"/>
<stop offset="1" stop-color="#F2368C"/>
</linearGradient>
<radialGradient id="paint17_radial_3_748" cx="0" cy="0" r="1" gradientUnits="userSpaceOnUse" gradientTransform="translate(161.69 246.066) rotate(54.9799) scale(94.899 106.429)">
<stop stop-color="#FF6983"/>
<stop offset="1" stop-color="#FB5471" stop-opacity="0"/>
</radialGradient>
<linearGradient id="paint18_linear_3_748" x1="285.36" y1="208.634" x2="453.494" y2="268.521" gradientUnits="userSpaceOnUse">
<stop stop-color="#FB5471" stop-opacity="0"/>
<stop offset="0.521" stop-color="#DE316B"/>
<stop offset="0.623" stop-color="#FC5396"/>
</linearGradient>
</defs>
</svg>
