<svg width="512" height="512" viewBox="0 0 512 512" fill="none" xmlns="http://www.w3.org/2000/svg">
<g clip-path="url(#clip0_3_14)">
<path d="M301.289 99.2896C207.277 45.0117 87.0683 77.2215 32.7904 171.234L7.63504 214.804C-4.89756 236.511 2.56086 264.346 24.268 276.879L286.159 428.081C307.866 440.614 335.701 433.156 348.234 411.449L373.299 368.034C427.511 273.776 395.301 153.568 301.289 99.2896V99.2896Z" fill="#E38F38"/>
<path d="M252.1 135.439C220.415 117.146 182.761 112.189 147.422 121.658C112.082 131.127 81.9513 154.247 63.6582 185.932L45.9863 216.54C37.1504 231.845 42.3647 251.305 57.6689 260.141L241.477 366.262C256.781 375.098 276.241 369.884 285.077 354.579L302.749 323.971C340.641 257.978 318.002 173.488 252.1 135.439V135.439Z" fill="#68394F"/>
<path d="M465.793 210.715C465.325 210.445 464.7 210.084 464.322 209.658C438.272 192.744 421.664 165.248 416.97 134.428C414.749 119.471 409.184 105.206 400.69 92.695C392.195 80.1843 380.99 69.7495 367.906 62.1665C340.421 46.2979 308.353 44.8578 280.794 55.8067C251.912 67.2417 219.64 66.5165 191.968 52.414C191.499 52.1435 190.875 51.7829 190.316 51.6685C145.657 29.841 90.8819 44.6499 62.9639 85.7924C29.5524 135.007 45.2047 201.305 95.4903 230.337C141.403 256.845 199.686 242.812 229.269 199.508C237.879 214.89 250.412 228.164 266.654 237.541C282.895 246.918 300.814 251.225 318.284 250.9C295.572 298.172 312.561 355.663 358.474 382.171C408.916 411.294 474.001 391.61 499.917 338.067C521.678 293.162 506.87 238.387 465.793 210.715V210.715Z" fill="url(#paint0_linear_3_14)"/>
<path d="M465.793 210.715C465.325 210.445 464.7 210.084 464.322 209.658C438.272 192.744 421.664 165.248 416.97 134.428C414.749 119.471 409.184 105.206 400.69 92.695C392.195 80.1843 380.99 69.7495 367.906 62.1665C340.421 46.2979 308.353 44.8578 280.794 55.8067C251.912 67.2417 219.64 66.5165 191.968 52.414C191.499 52.1435 190.875 51.7829 190.316 51.6685C145.657 29.841 90.8819 44.6499 62.9639 85.7924C29.5524 135.007 45.2047 201.305 95.4903 230.337C141.403 256.845 199.686 242.812 229.269 199.508C237.879 214.89 250.412 228.164 266.654 237.541C282.895 246.918 300.814 251.225 318.284 250.9C295.572 298.172 312.561 355.663 358.474 382.171C408.916 411.294 474.001 391.61 499.917 338.067C521.678 293.162 506.87 238.387 465.793 210.715V210.715Z" fill="url(#paint1_radial_3_14)"/>
<path d="M465.793 210.715C465.325 210.445 464.7 210.084 464.322 209.658C438.272 192.744 421.664 165.248 416.97 134.428C414.749 119.471 409.184 105.206 400.69 92.695C392.195 80.1843 380.99 69.7495 367.906 62.1665C340.421 46.2979 308.353 44.8578 280.794 55.8067C251.912 67.2417 219.64 66.5165 191.968 52.414C191.499 52.1435 190.875 51.7829 190.316 51.6685C145.657 29.841 90.8819 44.6499 62.9639 85.7924C29.5524 135.007 45.2047 201.305 95.4903 230.337C141.403 256.845 199.686 242.812 229.269 199.508C237.879 214.89 250.412 228.164 266.654 237.541C282.895 246.918 300.814 251.225 318.284 250.9C295.572 298.172 312.561 355.663 358.474 382.171C408.916 411.294 474.001 391.61 499.917 338.067C521.678 293.162 506.87 238.387 465.793 210.715V210.715Z" fill="url(#paint2_radial_3_14)"/>
<path d="M465.793 210.715C465.325 210.445 464.7 210.084 464.322 209.658C438.272 192.744 421.664 165.248 416.97 134.428C414.749 119.471 409.184 105.206 400.69 92.695C392.195 80.1843 380.99 69.7495 367.906 62.1665C340.421 46.2979 308.353 44.8578 280.794 55.8067C251.912 67.2417 219.64 66.5165 191.968 52.414C191.499 52.1435 190.875 51.7829 190.316 51.6685C145.657 29.841 90.8819 44.6499 62.9639 85.7924C29.5524 135.007 45.2047 201.305 95.4903 230.337C141.403 256.845 199.686 242.812 229.269 199.508C237.879 214.89 250.412 228.164 266.654 237.541C282.895 246.918 300.814 251.225 318.284 250.9C295.572 298.172 312.561 355.663 358.474 382.171C408.916 411.294 474.001 391.61 499.917 338.067C521.678 293.162 506.87 238.387 465.793 210.715V210.715Z" fill="url(#paint3_radial_3_14)"/>
<path d="M133.299 218.226C149.701 227.696 169.192 230.262 187.486 225.36C205.779 220.459 221.376 208.491 230.846 192.089C240.315 175.688 242.881 156.196 237.979 137.903C233.078 119.609 221.11 104.012 204.708 94.5428C188.307 85.0734 168.815 82.5073 150.522 87.4091C132.228 92.3108 116.631 104.279 107.162 120.68C97.6927 137.082 95.1266 156.573 100.028 174.867C104.93 193.16 116.898 208.757 133.299 218.226V218.226Z" fill="url(#paint4_radial_3_14)"/>
<path d="M381.571 273.281C397.973 282.75 417.464 285.316 435.758 280.414C454.051 275.513 469.648 263.545 479.117 247.143C488.587 230.742 491.153 211.25 486.251 192.957C481.349 174.663 469.381 159.066 452.98 149.597C436.579 140.127 417.087 137.561 398.794 142.463C380.5 147.365 364.903 159.333 355.434 175.734C345.964 192.136 343.398 211.627 348.3 229.921C353.202 248.214 365.17 263.811 381.571 273.281V273.281Z" fill="url(#paint5_radial_3_14)"/>
<path d="M367.659 137.609C273.647 83.3308 153.439 115.541 99.161 209.553L74.0056 253.123C61.473 274.83 68.9315 302.665 90.6386 315.198L352.529 466.401C374.236 478.933 402.072 471.475 414.604 449.768L439.669 406.353C493.881 312.095 461.671 191.887 367.659 137.609V137.609Z" fill="url(#paint6_radial_3_14)"/>
<path d="M367.659 137.609C273.647 83.3308 153.439 115.541 99.161 209.553L74.0056 253.123C61.473 274.83 68.9315 302.665 90.6386 315.198L352.529 466.401C374.236 478.933 402.072 471.475 414.604 449.768L439.669 406.353C493.881 312.095 461.671 191.887 367.659 137.609V137.609Z" fill="url(#paint7_linear_3_14)"/>
</g>
<defs>
<linearGradient id="paint0_linear_3_14" x1="78.7335" y1="57.9376" x2="516.171" y2="310.492" gradientUnits="userSpaceOnUse">
<stop stop-color="#499976"/>
<stop offset="0.324" stop-color="#5E9C59"/>
<stop offset="0.518" stop-color="#6EB25B"/>
<stop offset="1" stop-color="#86B942"/>
</linearGradient>
<radialGradient id="paint1_radial_3_14" cx="0" cy="0" r="1" gradientUnits="userSpaceOnUse" gradientTransform="translate(407.043 140.732) rotate(127.431) scale(52.2826 117.685)">
<stop stop-color="#91C575"/>
<stop offset="1" stop-color="#92DE69" stop-opacity="0"/>
</radialGradient>
<radialGradient id="paint2_radial_3_14" cx="0" cy="0" r="1" gradientUnits="userSpaceOnUse" gradientTransform="translate(496.132 288.47) rotate(97.567) scale(132.904 59.0354)">
<stop stop-color="#ADE76F"/>
<stop offset="1" stop-color="#AFEA71" stop-opacity="0"/>
</radialGradient>
<radialGradient id="paint3_radial_3_14" cx="0" cy="0" r="1" gradientUnits="userSpaceOnUse" gradientTransform="translate(65.8655 213.233) rotate(55.3581) scale(123.473 162.175)">
<stop stop-color="#446568"/>
<stop offset="1" stop-color="#446667" stop-opacity="0"/>
</radialGradient>
<radialGradient id="paint4_radial_3_14" cx="0" cy="0" r="1" gradientUnits="userSpaceOnUse" gradientTransform="translate(205.998 141.78) rotate(155.189) scale(107.565 107.565)">
<stop stop-color="#D33B44"/>
<stop offset="0.534" stop-color="#F03B72"/>
<stop offset="0.876" stop-color="#E73F89"/>
</radialGradient>
<radialGradient id="paint5_radial_3_14" cx="0" cy="0" r="1" gradientUnits="userSpaceOnUse" gradientTransform="translate(474.817 205.898) rotate(172.431) scale(110.908)">
<stop stop-color="#FF6A7F"/>
<stop offset="0.649" stop-color="#F43668"/>
</radialGradient>
<radialGradient id="paint6_radial_3_14" cx="0" cy="0" r="1" gradientUnits="userSpaceOnUse" gradientTransform="translate(131.131 287.258) rotate(1.41101) scale(372.128 354.525)">
<stop offset="0.169" stop-color="#EFB44C"/>
<stop offset="0.684" stop-color="#F6D34B"/>
<stop offset="0.896" stop-color="#FFE657"/>
</radialGradient>
<linearGradient id="paint7_linear_3_14" x1="367.737" y1="137.654" x2="221.584" y2="390.799" gradientUnits="userSpaceOnUse">
<stop offset="0.886" stop-color="#ECB24E" stop-opacity="0"/>
<stop offset="1" stop-color="#E49E53"/>
</linearGradient>
<clipPath id="clip0_3_14">
<rect width="512" height="512" fill="white"/>
</clipPath>
</defs>
</svg>
