<svg width="512" height="512" viewBox="0 0 512 512" fill="none" xmlns="http://www.w3.org/2000/svg">
<path d="M399.662 502.64L113.023 337.29L81.4189 258.898L426.92 49.7787L481.473 104.332V455.397C481.473 497.385 436.031 523.625 399.662 502.64Z" fill="url(#paint0_radial_3_854)"/>
<path d="M399.662 502.64L113.023 337.29L81.4189 258.898L426.92 49.7787L481.473 104.332V455.397C481.473 497.385 436.031 523.625 399.662 502.64Z" fill="url(#paint1_linear_3_854)"/>
<path d="M399.662 502.64L113.023 337.29L81.4189 258.898L426.92 49.7787L481.473 104.332V455.397C481.473 497.385 436.031 523.625 399.662 502.64Z" fill="url(#paint2_linear_3_854)"/>
<path d="M481.474 113.788C324.325 120.243 188.616 209.782 117.115 339.636L56.7435 304.813C30.3399 289.575 21.3569 255.425 39.5048 230.913C161.139 66.7994 337.109 16.8107 425.848 1.6996C456.161 -3.46473 481.474 20.6476 481.474 51.4154V113.788Z" fill="url(#paint3_radial_3_854)"/>
<path d="M481.474 113.788C324.325 120.243 188.616 209.782 117.115 339.636L56.7435 304.813C30.3399 289.575 21.3569 255.425 39.5048 230.913C161.139 66.7994 337.109 16.8107 425.848 1.6996C456.161 -3.46473 481.474 20.6476 481.474 51.4154V113.788Z" fill="url(#paint4_linear_3_854)"/>
<path d="M481.474 113.788C324.325 120.243 188.616 209.782 117.115 339.636L56.7435 304.813C30.3399 289.575 21.3569 255.425 39.5048 230.913C161.139 66.7994 337.109 16.8107 425.848 1.6996C456.161 -3.46473 481.474 20.6476 481.474 51.4154V113.788Z" fill="url(#paint5_radial_3_854)"/>
<path d="M445.105 231.622C445.105 248.501 438.4 264.69 426.464 276.625C414.528 288.561 398.34 295.267 381.46 295.267C364.58 295.267 348.392 288.561 336.456 276.625C324.52 264.69 317.815 248.501 317.815 231.622C317.815 214.742 324.52 198.554 336.456 186.618C348.392 174.682 364.58 167.977 381.46 167.977C398.34 167.977 414.528 174.682 426.464 186.618C438.4 198.554 445.105 214.742 445.105 231.622V231.622Z" fill="url(#paint6_radial_3_854)"/>
<path d="M445.105 231.622C445.105 248.501 438.4 264.69 426.464 276.625C414.528 288.561 398.34 295.267 381.46 295.267C364.58 295.267 348.392 288.561 336.456 276.625C324.52 264.69 317.815 248.501 317.815 231.622C317.815 214.742 324.52 198.554 336.456 186.618C348.392 174.682 364.58 167.977 381.46 167.977C398.34 167.977 414.528 174.682 426.464 186.618C438.4 198.554 445.105 214.742 445.105 231.622V231.622Z" fill="url(#paint7_radial_3_854)"/>
<path d="M390.552 422.557C400.197 422.557 409.448 418.725 416.268 411.904C423.089 405.084 426.92 395.834 426.92 386.188C426.92 376.542 423.089 367.292 416.268 360.472C409.448 353.651 400.197 349.819 390.552 349.819C380.906 349.819 371.656 353.651 364.835 360.472C358.015 367.292 354.183 376.542 354.183 386.188C354.183 395.834 358.015 405.084 364.835 411.904C371.656 418.725 380.906 422.557 390.552 422.557V422.557Z" fill="url(#paint8_radial_3_854)"/>
<path d="M390.552 422.557C400.197 422.557 409.448 418.725 416.268 411.904C423.089 405.084 426.92 395.834 426.92 386.188C426.92 376.542 423.089 367.292 416.268 360.472C409.448 353.651 400.197 349.819 390.552 349.819C380.906 349.819 371.656 353.651 364.835 360.472C358.015 367.292 354.183 376.542 354.183 386.188C354.183 395.834 358.015 405.084 364.835 411.904C371.656 418.725 380.906 422.557 390.552 422.557V422.557Z" fill="url(#paint9_radial_3_854)"/>
<path d="M299.631 340.727C299.631 352.784 294.841 364.347 286.316 372.873C277.79 381.398 266.227 386.188 254.17 386.188C242.113 386.188 230.55 381.398 222.025 372.873C213.499 364.347 208.709 352.784 208.709 340.727C208.709 328.67 213.499 317.107 222.025 308.582C230.55 300.056 242.113 295.267 254.17 295.267C266.227 295.267 277.79 300.056 286.316 308.582C294.841 317.107 299.631 328.67 299.631 340.727V340.727Z" fill="#FF3478"/>
<path d="M299.631 340.727C299.631 352.784 294.841 364.347 286.316 372.873C277.79 381.398 266.227 386.188 254.17 386.188C242.113 386.188 230.55 381.398 222.025 372.873C213.499 364.347 208.709 352.784 208.709 340.727C208.709 328.67 213.499 317.107 222.025 308.582C230.55 300.056 242.113 295.267 254.17 295.267C266.227 295.267 277.79 300.056 286.316 308.582C294.841 317.107 299.631 328.67 299.631 340.727V340.727Z" fill="url(#paint10_radial_3_854)"/>
<path d="M299.631 340.727C299.631 352.784 294.841 364.347 286.316 372.873C277.79 381.398 266.227 386.188 254.17 386.188C242.113 386.188 230.55 381.398 222.025 372.873C213.499 364.347 208.709 352.784 208.709 340.727C208.709 328.67 213.499 317.107 222.025 308.582C230.55 300.056 242.113 295.267 254.17 295.267C266.227 295.267 277.79 300.056 286.316 308.582C294.841 317.107 299.631 328.67 299.631 340.727V340.727Z" fill="url(#paint11_radial_3_854)"/>
<defs>
<radialGradient id="paint0_radial_3_854" cx="0" cy="0" r="1" gradientUnits="userSpaceOnUse" gradientTransform="translate(432.612 254.352) rotate(128.873) scale(286.122 248.703)">
<stop stop-color="#FFE657"/>
<stop offset="1" stop-color="#FFC547"/>
</radialGradient>
<linearGradient id="paint1_linear_3_854" x1="208.709" y1="411.191" x2="253.042" y2="340.727" gradientUnits="userSpaceOnUse">
<stop offset="0.231" stop-color="#EA9352"/>
<stop offset="0.787" stop-color="#EA9353" stop-opacity="0"/>
</linearGradient>
<linearGradient id="paint2_linear_3_854" x1="481.473" y1="246.405" x2="457.615" y2="246.405" gradientUnits="userSpaceOnUse">
<stop offset="0.238" stop-color="#F5C344"/>
<stop offset="0.81" stop-color="#FFD059" stop-opacity="0"/>
</linearGradient>
<radialGradient id="paint3_radial_3_854" cx="0" cy="0" r="1" gradientUnits="userSpaceOnUse" gradientTransform="translate(333.726 242.991) rotate(145.566) scale(631.111 332.78)">
<stop offset="0.278" stop-color="#FFA060"/>
<stop offset="0.39" stop-color="#FFC48A"/>
<stop offset="0.455" stop-color="#FFC888"/>
<stop offset="0.623" stop-color="#E4AF7C"/>
</radialGradient>
<linearGradient id="paint4_linear_3_854" x1="63.2353" y1="313.451" x2="120.061" y2="236.168" gradientUnits="userSpaceOnUse">
<stop stop-color="#E79786"/>
<stop offset="0.783" stop-color="#EA8F85" stop-opacity="0"/>
</linearGradient>
<radialGradient id="paint5_radial_3_854" cx="0" cy="0" r="1" gradientUnits="userSpaceOnUse" gradientTransform="translate(461.017 48.6514) rotate(81.0851) scale(58.6712 114.333)">
<stop stop-color="#FFE498"/>
<stop offset="1" stop-color="#FFE398" stop-opacity="0"/>
</radialGradient>
<radialGradient id="paint6_radial_3_854" cx="0" cy="0" r="1" gradientUnits="userSpaceOnUse" gradientTransform="translate(413.279 216.864) rotate(137.626) scale(87.6888)">
<stop stop-color="#FF8DA2"/>
<stop offset="1" stop-color="#FF2B43"/>
</radialGradient>
<radialGradient id="paint7_radial_3_854" cx="0" cy="0" r="1" gradientUnits="userSpaceOnUse" gradientTransform="translate(372.362 273.682) rotate(101.611) scale(84.6991)">
<stop offset="0.393" stop-color="#F63080"/>
<stop offset="1" stop-color="#F73184" stop-opacity="0"/>
</radialGradient>
<radialGradient id="paint8_radial_3_854" cx="0" cy="0" r="1" gradientUnits="userSpaceOnUse" gradientTransform="translate(408.732 377.775) rotate(137.626) scale(50.1079)">
<stop stop-color="#FF8DA2"/>
<stop offset="1" stop-color="#FF2B43"/>
</radialGradient>
<radialGradient id="paint9_radial_3_854" cx="0" cy="0" r="1" gradientUnits="userSpaceOnUse" gradientTransform="translate(385.363 410.228) rotate(101.611) scale(48.3995)">
<stop offset="0.393" stop-color="#F63080"/>
<stop offset="1" stop-color="#F73184" stop-opacity="0"/>
</radialGradient>
<radialGradient id="paint10_radial_3_854" cx="0" cy="0" r="1" gradientUnits="userSpaceOnUse" gradientTransform="translate(276.886 330.177) rotate(137.626) scale(62.6349)">
<stop stop-color="#FF8DA2"/>
<stop offset="1" stop-color="#FF2B43"/>
</radialGradient>
<radialGradient id="paint11_radial_3_854" cx="0" cy="0" r="1" gradientUnits="userSpaceOnUse" gradientTransform="translate(247.681 370.767) rotate(101.611) scale(60.4995)">
<stop offset="0.393" stop-color="#F63080"/>
<stop offset="1" stop-color="#F73184" stop-opacity="0"/>
</radialGradient>
</defs>
</svg>
