<svg width="512" height="512" viewBox="0 0 512 512" fill="none" xmlns="http://www.w3.org/2000/svg">
<path d="M348.402 479.765H272.105V294.744H240.315V479.765H164.017C159.802 479.765 155.759 481.44 152.778 484.421C149.797 487.402 148.122 491.445 148.122 495.661C148.122 499.876 149.797 503.919 152.778 506.9C155.759 509.881 159.802 511.556 164.017 511.556H348.614C352.83 511.528 356.862 509.826 359.823 506.825C362.784 503.824 364.432 499.77 364.404 495.555C364.376 491.339 362.674 487.307 359.673 484.346C356.672 481.385 352.618 479.737 348.402 479.765V479.765Z" fill="url(#paint0_linear_3_21)"/>
<path d="M348.402 479.765H272.105V294.744H240.315V479.765H164.017C159.802 479.765 155.759 481.44 152.778 484.421C149.797 487.402 148.122 491.445 148.122 495.661C148.122 499.876 149.797 503.919 152.778 506.9C155.759 509.881 159.802 511.556 164.017 511.556H348.614C352.83 511.528 356.862 509.826 359.823 506.825C362.784 503.824 364.432 499.77 364.404 495.555C364.376 491.339 362.674 487.307 359.673 484.346C356.672 481.385 352.618 479.737 348.402 479.765V479.765Z" fill="url(#paint1_radial_3_21)"/>
<path d="M348.402 479.765H272.105V294.744H240.315V479.765H164.017C159.802 479.765 155.759 481.44 152.778 484.421C149.797 487.402 148.122 491.445 148.122 495.661C148.122 499.876 149.797 503.919 152.778 506.9C155.759 509.881 159.802 511.556 164.017 511.556H348.614C352.83 511.528 356.862 509.826 359.823 506.825C362.784 503.824 364.432 499.77 364.404 495.555C364.376 491.339 362.674 487.307 359.673 484.346C356.672 481.385 352.618 479.737 348.402 479.765V479.765Z" fill="url(#paint2_radial_3_21)"/>
<path d="M348.402 479.765H272.105V294.744H240.315V479.765H164.017C159.802 479.765 155.759 481.44 152.778 484.421C149.797 487.402 148.122 491.445 148.122 495.661C148.122 499.876 149.797 503.919 152.778 506.9C155.759 509.881 159.802 511.556 164.017 511.556H348.614C352.83 511.528 356.862 509.826 359.823 506.825C362.784 503.824 364.432 499.77 364.404 495.555C364.376 491.339 362.674 487.307 359.673 484.346C356.672 481.385 352.618 479.737 348.402 479.765V479.765Z" fill="url(#paint3_radial_3_21)"/>
<path d="M348.402 479.765H272.105V294.744H240.315V479.765H164.017C159.802 479.765 155.759 481.44 152.778 484.421C149.797 487.402 148.122 491.445 148.122 495.661C148.122 499.876 149.797 503.919 152.778 506.9C155.759 509.881 159.802 511.556 164.017 511.556H348.614C352.83 511.528 356.862 509.826 359.823 506.825C362.784 503.824 364.432 499.77 364.404 495.555C364.376 491.339 362.674 487.307 359.673 484.346C356.672 481.385 352.618 479.737 348.402 479.765V479.765Z" fill="url(#paint4_radial_3_21)"/>
<path d="M348.402 479.765H272.105V294.744H240.315V479.765H164.017C159.802 479.765 155.759 481.44 152.778 484.421C149.797 487.402 148.122 491.445 148.122 495.661C148.122 499.876 149.797 503.919 152.778 506.9C155.759 509.881 159.802 511.556 164.017 511.556H348.614C352.83 511.528 356.862 509.826 359.823 506.825C362.784 503.824 364.432 499.77 364.404 495.555C364.376 491.339 362.674 487.307 359.673 484.346C356.672 481.385 352.618 479.737 348.402 479.765V479.765Z" fill="url(#paint5_radial_3_21)"/>
<path d="M348.402 479.765H272.105V294.744H240.315V479.765H164.017C159.802 479.765 155.759 481.44 152.778 484.421C149.797 487.402 148.122 491.445 148.122 495.661C148.122 499.876 149.797 503.919 152.778 506.9C155.759 509.881 159.802 511.556 164.017 511.556H348.614C352.83 511.528 356.862 509.826 359.823 506.825C362.784 503.824 364.432 499.77 364.404 495.555C364.376 491.339 362.674 487.307 359.673 484.346C356.672 481.385 352.618 479.737 348.402 479.765V479.765Z" fill="url(#paint6_radial_3_21)"/>
<path d="M348.402 479.765H272.105V294.744H240.315V479.765H164.017C159.802 479.765 155.759 481.44 152.778 484.421C149.797 487.402 148.122 491.445 148.122 495.661C148.122 499.876 149.797 503.919 152.778 506.9C155.759 509.881 159.802 511.556 164.017 511.556H348.614C352.83 511.528 356.862 509.826 359.823 506.825C362.784 503.824 364.432 499.77 364.404 495.555C364.376 491.339 362.674 487.307 359.673 484.346C356.672 481.385 352.618 479.737 348.402 479.765V479.765Z" fill="url(#paint7_linear_3_21)"/>
<path d="M272.107 479.766V378.46H240.316V479.766H272.107Z" fill="url(#paint8_linear_3_21)"/>
<path d="M409.017 159.953C386.539 114.472 371.852 65.5416 365.57 15.1998C365.119 11.2973 363.251 7.69609 360.321 5.07886C357.392 2.46163 353.603 1.0103 349.675 1H162.747C154.481 1 147.911 7.14617 146.851 15.4117C141.129 65.005 127.141 113.327 104.464 157.833C87.2273 191.915 81.8571 230.774 89.2044 268.252C101.921 334.801 155.329 388.633 222.089 401.561C331.024 422.755 426.184 339.887 426.184 234.766C426.184 207.85 420.038 182.418 409.017 159.953V159.953Z" fill="url(#paint9_linear_3_21)"/>
<g filter="url(#filter0_f_3_21)">
<path d="M400.182 159.656C379.188 115.475 365.516 68.1757 359.702 19.6076C358.727 11.8296 352.602 5.87413 344.909 5.87413H170.739C163.046 5.87413 156.921 11.8084 155.925 19.8196C150.605 67.8021 137.571 114.555 116.441 157.6C100.358 190.764 95.3796 228.224 102.241 264.437C114.067 328.824 163.83 380.897 226.012 393.401C327.53 413.916 416.183 333.741 416.183 232.032C416.183 206.006 410.461 181.379 400.182 159.656V159.656Z" fill="#ADE0FF"/>
</g>
<path d="M338.865 85.5626H173.978C165.924 85.5626 158.93 90.8611 156.599 98.7027C149.181 123.287 139.644 147.236 128.199 169.914C119.51 186.869 114.423 205.095 113.152 223.958C110.185 264.014 123.749 302.374 151.3 332.257C164.705 346.771 180.958 358.365 199.045 366.315C217.132 374.265 236.664 378.399 256.421 378.46C259.176 378.46 261.932 378.46 264.687 378.248C288.279 376.816 311.154 369.586 331.282 357.197C351.411 344.808 368.172 327.644 380.079 307.226C391.986 286.808 398.67 263.768 399.541 240.149C400.411 216.529 395.439 193.059 385.067 171.821C373.515 148.26 363.876 123.809 356.243 98.7027C355.163 94.9242 352.884 91.5993 349.749 89.2291C346.615 86.859 342.794 85.5722 338.865 85.5626V85.5626Z" fill="url(#paint10_linear_3_21)"/>
<path d="M338.865 85.5626H173.978C165.924 85.5626 158.93 90.8611 156.599 98.7027C149.181 123.287 139.644 147.236 128.199 169.914C119.51 186.869 114.423 205.095 113.152 223.958C110.185 264.014 123.749 302.374 151.3 332.257C164.705 346.771 180.958 358.365 199.045 366.315C217.132 374.265 236.664 378.399 256.421 378.46C259.176 378.46 261.932 378.46 264.687 378.248C288.279 376.816 311.154 369.586 331.282 357.197C351.411 344.808 368.172 327.644 380.079 307.226C391.986 286.808 398.67 263.768 399.541 240.149C400.411 216.529 395.439 193.059 385.067 171.821C373.515 148.26 363.876 123.809 356.243 98.7027C355.163 94.9242 352.884 91.5993 349.749 89.2291C346.615 86.859 342.794 85.5722 338.865 85.5626V85.5626Z" fill="url(#paint11_radial_3_21)"/>
<path d="M338.865 85.5626H173.978C165.924 85.5626 158.93 90.8611 156.599 98.7027C149.181 123.287 139.644 147.236 128.199 169.914C119.51 186.869 114.423 205.095 113.152 223.958C110.185 264.014 123.749 302.374 151.3 332.257C164.705 346.771 180.958 358.365 199.045 366.315C217.132 374.265 236.664 378.399 256.421 378.46C259.176 378.46 261.932 378.46 264.687 378.248C288.279 376.816 311.154 369.586 331.282 357.197C351.411 344.808 368.172 327.644 380.079 307.226C391.986 286.808 398.67 263.768 399.541 240.149C400.411 216.529 395.439 193.059 385.067 171.821C373.515 148.26 363.876 123.809 356.243 98.7027C355.163 94.9242 352.884 91.5993 349.749 89.2291C346.615 86.859 342.794 85.5722 338.865 85.5626V85.5626Z" fill="url(#paint12_radial_3_21)"/>
<path d="M338.865 85.5626H173.978C165.924 85.5626 158.93 90.8611 156.599 98.7027C149.181 123.287 139.644 147.236 128.199 169.914C119.51 186.869 114.423 205.095 113.152 223.958C110.185 264.014 123.749 302.374 151.3 332.257C164.705 346.771 180.958 358.365 199.045 366.315C217.132 374.265 236.664 378.399 256.421 378.46C259.176 378.46 261.932 378.46 264.687 378.248C288.279 376.816 311.154 369.586 331.282 357.197C351.411 344.808 368.172 327.644 380.079 307.226C391.986 286.808 398.67 263.768 399.541 240.149C400.411 216.529 395.439 193.059 385.067 171.821C373.515 148.26 363.876 123.809 356.243 98.7027C355.163 94.9242 352.884 91.5993 349.749 89.2291C346.615 86.859 342.794 85.5722 338.865 85.5626V85.5626Z" fill="url(#paint13_radial_3_21)"/>
<path d="M396.663 267.341C390.729 267.341 386.066 262.678 386.066 256.744C386.066 234.067 380.98 212.449 371.231 192.315C349.952 149.304 336.053 103.022 330.115 55.404C329.814 52.6002 330.621 49.7898 332.363 47.5725C334.105 45.3552 336.645 43.9065 339.44 43.5355C344.739 42.6878 350.461 46.9265 351.309 52.8607C356.607 97.3675 369.747 141.238 390.305 182.99C401.538 206.091 407.26 230.888 407.26 256.744C407.26 262.678 402.597 267.341 396.663 267.341Z" fill="url(#paint14_linear_3_21)"/>
<path d="M234.297 155.396C243.767 155.396 251.443 147.72 251.443 138.25C251.443 128.781 243.767 121.104 234.297 121.104C224.828 121.104 217.152 128.781 217.152 138.25C217.152 147.72 224.828 155.396 234.297 155.396Z" fill="url(#paint15_radial_3_21)"/>
<path d="M303.513 210.69C312.982 210.69 320.659 203.014 320.659 193.545C320.659 184.075 312.982 176.399 303.513 176.399C294.044 176.399 286.367 184.075 286.367 193.545C286.367 203.014 294.044 210.69 303.513 210.69Z" fill="url(#paint16_radial_3_21)"/>
<path d="M234.297 274.61C243.767 274.61 251.443 266.934 251.443 257.465C251.443 247.995 243.767 240.319 234.297 240.319C224.828 240.319 217.152 247.995 217.152 257.465C217.152 266.934 224.828 274.61 234.297 274.61Z" fill="url(#paint17_radial_3_21)"/>
<defs>
<filter id="filter0_f_3_21" x="98.6807" y="5.31413" width="318.063" height="391.871" filterUnits="userSpaceOnUse" color-interpolation-filters="sRGB">
<feFlood flood-opacity="0" result="BackgroundImageFix"/>
<feBlend mode="normal" in="SourceGraphic" in2="BackgroundImageFix" result="shape"/>
<feGaussianBlur stdDeviation="0.28" result="effect1_foregroundBlur_3_21"/>
</filter>
<linearGradient id="paint0_linear_3_21" x1="256.316" y1="481.418" x2="266.934" y2="551.442" gradientUnits="userSpaceOnUse">
<stop stop-color="#B2E5FF"/>
<stop offset="0.481" stop-color="#B2F1FF"/>
</linearGradient>
<radialGradient id="paint1_radial_3_21" cx="0" cy="0" r="1" gradientUnits="userSpaceOnUse" gradientTransform="translate(256.316 464.188) rotate(92.7922) scale(151.185 123.611)">
<stop offset="0.71" stop-color="#BEDBF3" stop-opacity="0"/>
<stop offset="0.898" stop-color="#BBDAF5"/>
</radialGradient>
<radialGradient id="paint2_radial_3_21" cx="0" cy="0" r="1" gradientUnits="userSpaceOnUse" gradientTransform="translate(148.122 497.314) rotate(69.4489) scale(72.1463 48.5756)">
<stop stop-color="#A7C7E6"/>
<stop offset="0.543" stop-color="#BADAF5" stop-opacity="0"/>
</radialGradient>
<radialGradient id="paint3_radial_3_21" cx="0" cy="0" r="1" gradientUnits="userSpaceOnUse" gradientTransform="translate(364.51 495.321) rotate(94.4221) scale(29.8926 16.3898)">
<stop stop-color="#AFD8FA"/>
<stop offset="1" stop-color="#BADAF5" stop-opacity="0"/>
</radialGradient>
<radialGradient id="paint4_radial_3_21" cx="0" cy="0" r="1" gradientUnits="userSpaceOnUse" gradientTransform="translate(320.49 490.68) rotate(87.3983) scale(7.29285 64.2302)">
<stop stop-color="#C7FCFF"/>
<stop offset="1" stop-color="#D4FCFF" stop-opacity="0"/>
</radialGradient>
<radialGradient id="paint5_radial_3_21" cx="0" cy="0" r="1" gradientUnits="userSpaceOnUse" gradientTransform="translate(196.634 502.612) rotate(90) scale(5.46395 53.6412)">
<stop stop-color="#B9F0FF"/>
<stop offset="1" stop-color="#B9FFFA" stop-opacity="0"/>
</radialGradient>
<radialGradient id="paint6_radial_3_21" cx="0" cy="0" r="1" gradientUnits="userSpaceOnUse" gradientTransform="translate(194.96 486.547) rotate(90) scale(6.95408 68.2706)">
<stop stop-color="#B4E8FF"/>
<stop offset="1" stop-color="#B5E9FF" stop-opacity="0"/>
</radialGradient>
<linearGradient id="paint7_linear_3_21" x1="256.316" y1="480.083" x2="256.316" y2="484.725" gradientUnits="userSpaceOnUse">
<stop stop-color="#B0DFFF"/>
<stop offset="1" stop-color="#AEDCFF" stop-opacity="0"/>
</linearGradient>
<linearGradient id="paint8_linear_3_21" x1="240.338" y1="433.055" x2="272.806" y2="433.055" gradientUnits="userSpaceOnUse">
<stop stop-color="#A6C6E5"/>
<stop offset="0.1" stop-color="#AEDEFF"/>
<stop offset="0.34" stop-color="#B1E7FF"/>
<stop offset="0.605" stop-color="#BCF1FF"/>
<stop offset="0.863" stop-color="#B5E8FF"/>
<stop offset="0.949" stop-color="#B0D3F3"/>
</linearGradient>
<linearGradient id="paint9_linear_3_21" x1="256.105" y1="1" x2="256.105" y2="404.888" gradientUnits="userSpaceOnUse">
<stop stop-color="#A4CFEE"/>
<stop offset="0.147" stop-color="#A6C4DF"/>
<stop offset="0.681" stop-color="#A9C4DC"/>
<stop offset="0.939" stop-color="#B4E7FB"/>
<stop offset="1" stop-color="#BBECFE"/>
</linearGradient>
<linearGradient id="paint10_linear_3_21" x1="256.188" y1="378.46" x2="256.188" y2="85.5626" gradientUnits="userSpaceOnUse">
<stop offset="0.051" stop-color="#E57476"/>
<stop offset="0.282" stop-color="#F77B40"/>
<stop offset="0.521" stop-color="#FE8E34"/>
<stop offset="0.969" stop-color="#FF9635"/>
<stop offset="1" stop-color="#FF8C00"/>
</linearGradient>
<radialGradient id="paint11_radial_3_21" cx="0" cy="0" r="1" gradientUnits="userSpaceOnUse" gradientTransform="translate(331.087 105.23) rotate(83.5007) scale(105.321 94.3422)">
<stop stop-color="#FFBC70"/>
<stop offset="1" stop-color="#FFBC70" stop-opacity="0"/>
</radialGradient>
<radialGradient id="paint12_radial_3_21" cx="0" cy="0" r="1" gradientUnits="userSpaceOnUse" gradientTransform="translate(135.049 135.694) rotate(108.939) scale(142.843 82.4787)">
<stop stop-color="#FFBC70"/>
<stop offset="1" stop-color="#FFBC70" stop-opacity="0"/>
</radialGradient>
<radialGradient id="paint13_radial_3_21" cx="0" cy="0" r="1" gradientUnits="userSpaceOnUse" gradientTransform="translate(342.997 180.722) rotate(90) scale(78.1518 121.009)">
<stop stop-color="#FFB370"/>
<stop offset="1" stop-color="#FFB370" stop-opacity="0"/>
</radialGradient>
<linearGradient id="paint14_linear_3_21" x1="344.357" y1="68.3321" x2="399.355" y2="260.792" gradientUnits="userSpaceOnUse">
<stop offset="0.344" stop-color="white"/>
<stop offset="1" stop-color="white" stop-opacity="0"/>
</linearGradient>
<radialGradient id="paint15_radial_3_21" cx="0" cy="0" r="1" gradientUnits="userSpaceOnUse" gradientTransform="translate(240.346 133.043) rotate(123.101) scale(26.6801)">
<stop stop-color="#FFCE51"/>
<stop offset="1" stop-color="#EFBA40"/>
</radialGradient>
<radialGradient id="paint16_radial_3_21" cx="0" cy="0" r="1" gradientUnits="userSpaceOnUse" gradientTransform="translate(309.55 188.332) rotate(123.101) scale(26.6801)">
<stop stop-color="#FFDE76"/>
<stop offset="0.799" stop-color="#FAC662"/>
</radialGradient>
<radialGradient id="paint17_radial_3_21" cx="0" cy="0" r="1" gradientUnits="userSpaceOnUse" gradientTransform="translate(240.332 252.244) rotate(123.101) scale(26.6801)">
<stop stop-color="#FFD059"/>
<stop offset="0.785" stop-color="#F0BB49"/>
</radialGradient>
</defs>
</svg>
