<svg width="512" height="512" viewBox="0 0 512 512" fill="none" xmlns="http://www.w3.org/2000/svg">
<path d="M432.144 277.828H152.494C139.132 277.828 126.318 272.52 116.869 263.072C107.421 253.624 102.113 240.809 102.113 227.447V165.384H482.524V227.447C482.524 255.376 460.072 277.828 432.144 277.828Z" fill="url(#paint0_linear_3_698)"/>
<path d="M432.144 277.828H152.494C139.132 277.828 126.318 272.52 116.869 263.072C107.421 253.624 102.113 240.809 102.113 227.447V165.384H482.524V227.447C482.524 255.376 460.072 277.828 432.144 277.828Z" fill="url(#paint1_radial_3_698)"/>
<path d="M432.144 277.828H152.494C139.132 277.828 126.318 272.52 116.869 263.072C107.421 253.624 102.113 240.809 102.113 227.447V165.384H482.524V227.447C482.524 255.376 460.072 277.828 432.144 277.828Z" fill="url(#paint2_radial_3_698)"/>
<path d="M432.144 277.828H152.494C139.132 277.828 126.318 272.52 116.869 263.072C107.421 253.624 102.113 240.809 102.113 227.447V165.384H482.524V227.447C482.524 255.376 460.072 277.828 432.144 277.828Z" fill="url(#paint3_radial_3_698)"/>
<path d="M417.174 37.2422H167.461C115.62 37.2422 73.6362 79.2261 73.6362 131.067V137.639C73.6362 153.154 86.2314 165.75 101.747 165.75H482.888C498.404 165.75 510.999 153.154 510.999 137.639V131.067C511.182 79.2261 469.015 37.2422 417.174 37.2422Z" fill="url(#paint4_radial_3_698)"/>
<path d="M417.174 37.2422H167.461C115.62 37.2422 73.6362 79.2261 73.6362 131.067V137.639C73.6362 153.154 86.2314 165.75 101.747 165.75H482.888C498.404 165.75 510.999 153.154 510.999 137.639V131.067C511.182 79.2261 469.015 37.2422 417.174 37.2422Z" fill="url(#paint5_radial_3_698)"/>
<g filter="url(#filter0_f_3_698)">
<path d="M455.653 126.23H156.746V98.8492H427.123C424.841 83.2604 423.691 52.0645 437.4 52.0645C454.503 52.0645 494.443 97.6992 492.161 119.385C490.336 136.726 467.062 131.177 455.653 126.23Z" fill="url(#paint6_linear_3_698)"/>
</g>
<path d="M189.912 102.956C182.61 102.956 176.769 97.1149 176.769 89.8133V37.2422H203.055V89.8133C203.055 97.1149 197.213 102.956 189.912 102.956V102.956Z" fill="url(#paint7_linear_3_698)"/>
<path d="M292.318 102.956C285.016 102.956 279.175 97.1149 279.175 89.8133V37.2422H305.461V89.8133C305.461 97.1149 299.619 102.956 292.318 102.956V102.956Z" fill="url(#paint8_linear_3_698)"/>
<path d="M394.903 102.956C387.601 102.956 381.76 97.1149 381.76 89.8133V37.2422H408.045V89.8133C407.998 93.2843 406.598 96.5999 404.144 99.0545C401.689 101.509 398.374 102.909 394.903 102.956V102.956Z" fill="#FF9631"/>
<path d="M394.903 102.956C387.601 102.956 381.76 97.1149 381.76 89.8133V37.2422H408.045V89.8133C407.998 93.2843 406.598 96.5999 404.144 99.0545C401.689 101.509 398.374 102.909 394.903 102.956V102.956Z" fill="url(#paint9_linear_3_698)"/>
<path d="M358.946 474.788H79.296C65.9342 474.788 53.1197 469.48 43.6715 460.032C34.2232 450.584 28.9153 437.769 28.9153 424.407V363.804H409.326V424.407C409.326 437.769 404.018 450.584 394.57 460.032C385.122 469.48 372.307 474.788 358.946 474.788Z" fill="url(#paint10_linear_3_698)"/>
<path d="M358.946 474.788H79.296C65.9342 474.788 53.1197 469.48 43.6715 460.032C34.2232 450.584 28.9153 437.769 28.9153 424.407V363.804H409.326V424.407C409.326 437.769 404.018 450.584 394.57 460.032C385.122 469.48 372.307 474.788 358.946 474.788Z" fill="url(#paint11_radial_3_698)"/>
<path d="M358.946 474.788H79.296C65.9342 474.788 53.1197 469.48 43.6715 460.032C34.2232 450.584 28.9153 437.769 28.9153 424.407V363.804H409.326V424.407C409.326 437.769 404.018 450.584 394.57 460.032C385.122 469.48 372.307 474.788 358.946 474.788Z" fill="url(#paint12_radial_3_698)"/>
<path d="M343.976 238.035H94.263C42.4219 238.035 0.437988 280.019 0.437988 331.86V336.241C0.437988 351.757 13.0332 364.352 28.549 364.352H409.69C425.206 364.352 437.801 351.757 437.801 336.241V331.86C437.984 280.019 395.817 238.035 343.976 238.035V238.035Z" fill="url(#paint13_radial_3_698)"/>
<path d="M343.976 238.035H94.263C42.4219 238.035 0.437988 280.019 0.437988 331.86V336.241C0.437988 351.757 13.0332 364.352 28.549 364.352H409.69C425.206 364.352 437.801 351.757 437.801 336.241V331.86C437.984 280.019 395.817 238.035 343.976 238.035V238.035Z" fill="url(#paint14_radial_3_698)"/>
<g filter="url(#filter1_f_3_698)">
<path d="M383.68 324.376H84.7729V296.995H355.149C352.868 281.388 351.736 250.21 365.426 250.21C382.53 250.21 422.47 295.845 420.188 317.512C418.363 334.853 395.089 329.304 383.68 324.357V324.376Z" fill="url(#paint15_linear_3_698)"/>
</g>
<path opacity="0.6" d="M116.714 303.749C109.412 303.749 103.571 297.908 103.571 290.606V238.035H129.856V290.606C129.856 297.908 124.015 303.749 116.714 303.749V303.749Z" fill="url(#paint16_linear_3_698)"/>
<path opacity="0.6" d="M219.119 303.749C211.818 303.749 205.977 297.908 205.977 290.606V238.035H232.262V290.606C232.262 297.908 226.421 303.749 219.119 303.749V303.749Z" fill="url(#paint17_linear_3_698)"/>
<path opacity="0.6" d="M321.704 303.749C314.403 303.749 308.561 297.908 308.561 290.606V238.035H334.847V290.606C334.8 294.077 333.4 297.393 330.945 299.847C328.491 302.302 325.175 303.702 321.704 303.749V303.749Z" fill="#FF6E8A"/>
<g filter="url(#filter2_f_3_698)">
<path d="M493.292 121.685C506.07 109.564 489.295 86.5093 471.607 80.0292C471.607 85.0672 475.039 103.285 465.912 107.611C456.785 111.937 443.861 109.436 438.531 107.611V129.26C451.455 131.779 480.515 133.805 493.292 121.685Z" fill="url(#paint18_radial_3_698)"/>
</g>
<g filter="url(#filter3_f_3_698)">
<path d="M415.785 319.831C428.563 307.71 411.787 284.674 394.099 278.175C394.099 283.232 397.531 301.431 388.404 305.775C379.277 310.101 366.354 307.564 361.023 305.775V327.406C373.947 329.925 403.007 331.951 415.785 319.831Z" fill="url(#paint19_radial_3_698)"/>
</g>
<defs>
<filter id="filter0_f_3_698" x="155.246" y="50.5645" width="338.509" height="82.1081" filterUnits="userSpaceOnUse" color-interpolation-filters="sRGB">
<feFlood flood-opacity="0" result="BackgroundImageFix"/>
<feBlend mode="normal" in="SourceGraphic" in2="BackgroundImageFix" result="shape"/>
<feGaussianBlur stdDeviation="0.75" result="effect1_foregroundBlur_3_698"/>
</filter>
<filter id="filter1_f_3_698" x="83.2729" y="248.71" width="338.509" height="82.0898" filterUnits="userSpaceOnUse" color-interpolation-filters="sRGB">
<feFlood flood-opacity="0" result="BackgroundImageFix"/>
<feBlend mode="normal" in="SourceGraphic" in2="BackgroundImageFix" result="shape"/>
<feGaussianBlur stdDeviation="0.75" result="effect1_foregroundBlur_3_698"/>
</filter>
<filter id="filter2_f_3_698" x="437.531" y="79.0292" width="61.2529" height="53.1436" filterUnits="userSpaceOnUse" color-interpolation-filters="sRGB">
<feFlood flood-opacity="0" result="BackgroundImageFix"/>
<feBlend mode="normal" in="SourceGraphic" in2="BackgroundImageFix" result="shape"/>
<feGaussianBlur stdDeviation="0.5" result="effect1_foregroundBlur_3_698"/>
</filter>
<filter id="filter3_f_3_698" x="360.023" y="277.175" width="61.2529" height="53.1436" filterUnits="userSpaceOnUse" color-interpolation-filters="sRGB">
<feFlood flood-opacity="0" result="BackgroundImageFix"/>
<feBlend mode="normal" in="SourceGraphic" in2="BackgroundImageFix" result="shape"/>
<feGaussianBlur stdDeviation="0.5" result="effect1_foregroundBlur_3_698"/>
</filter>
<linearGradient id="paint0_linear_3_698" x1="292.319" y1="165.384" x2="292.319" y2="277.828" gradientUnits="userSpaceOnUse">
<stop stop-color="#D5B2D6"/>
<stop offset="0.504" stop-color="#D5B2D6"/>
<stop offset="0.877" stop-color="#C09CD0"/>
<stop offset="1" stop-color="#AF86CB"/>
</linearGradient>
<radialGradient id="paint1_radial_3_698" cx="0" cy="0" r="1" gradientUnits="userSpaceOnUse" gradientTransform="translate(292.319 180.991) rotate(90) scale(118.65 206.672)">
<stop stop-color="#CFA3C4"/>
<stop offset="1" stop-color="#CFA4C4" stop-opacity="0"/>
</radialGradient>
<radialGradient id="paint2_radial_3_698" cx="0" cy="0" r="1" gradientUnits="userSpaceOnUse" gradientTransform="translate(292.319 165.384) rotate(90) scale(71.8287 483.544)">
<stop offset="0.47" stop-color="#E6C2D3"/>
<stop offset="0.692" stop-color="#E7C5D4" stop-opacity="0"/>
</radialGradient>
<radialGradient id="paint3_radial_3_698" cx="0" cy="0" r="1" gradientUnits="userSpaceOnUse" gradientTransform="translate(292.319 155.728) rotate(90) scale(24.4434 420.664)">
<stop offset="0.564" stop-color="#B66A8A"/>
<stop offset="1" stop-color="#B36B8A" stop-opacity="0"/>
</radialGradient>
<radialGradient id="paint4_radial_3_698" cx="0" cy="0" r="1" gradientUnits="userSpaceOnUse" gradientTransform="translate(424.841 101.496) rotate(90) scale(250.626 584.124)">
<stop stop-color="#FF8928"/>
<stop offset="0.349" stop-color="#FF6722"/>
<stop offset="0.554" stop-color="#FF451E"/>
<stop offset="0.818" stop-color="#B44333"/>
</radialGradient>
<radialGradient id="paint5_radial_3_698" cx="0" cy="0" r="1" gradientUnits="userSpaceOnUse" gradientTransform="translate(292.318 185.555) rotate(90) scale(61.6069 523.454)">
<stop offset="0.463" stop-color="#D05956"/>
<stop offset="0.59" stop-color="#E2483B"/>
<stop offset="1" stop-color="#F85930" stop-opacity="0"/>
</radialGradient>
<linearGradient id="paint6_linear_3_698" x1="467.062" y1="97.7175" x2="251.429" y2="97.7175" gradientUnits="userSpaceOnUse">
<stop stop-color="#FF9841"/>
<stop offset="1" stop-color="#FF8340" stop-opacity="0"/>
</linearGradient>
<linearGradient id="paint7_linear_3_698" x1="189.912" y1="37.2422" x2="189.912" y2="102.956" gradientUnits="userSpaceOnUse">
<stop stop-color="#E37E29"/>
<stop offset="0.204" stop-color="#F8892A"/>
<stop offset="1" stop-color="#F7872A"/>
</linearGradient>
<linearGradient id="paint8_linear_3_698" x1="292.318" y1="37.2422" x2="292.318" y2="102.956" gradientUnits="userSpaceOnUse">
<stop stop-color="#E47F2A"/>
<stop offset="0.204" stop-color="#F6882A"/>
<stop offset="1" stop-color="#F9892A"/>
</linearGradient>
<linearGradient id="paint9_linear_3_698" x1="394.903" y1="37.2422" x2="394.903" y2="102.956" gradientUnits="userSpaceOnUse">
<stop stop-color="#F68938"/>
<stop offset="0.204" stop-color="#FF9431"/>
<stop offset="1" stop-color="#FF9531"/>
</linearGradient>
<linearGradient id="paint10_linear_3_698" x1="219.121" y1="363.804" x2="219.121" y2="474.788" gradientUnits="userSpaceOnUse">
<stop stop-color="#CEBAE1"/>
<stop offset="0.504" stop-color="#CBB6DF"/>
<stop offset="0.877" stop-color="#BCA3D2"/>
<stop offset="1" stop-color="#B498CD"/>
</linearGradient>
<radialGradient id="paint11_radial_3_698" cx="0" cy="0" r="1" gradientUnits="userSpaceOnUse" gradientTransform="translate(219.121 363.804) rotate(90) scale(70.8959 483.544)">
<stop offset="0.47" stop-color="#DDCBE5"/>
<stop offset="0.692" stop-color="#E7C5D4" stop-opacity="0"/>
</radialGradient>
<radialGradient id="paint12_radial_3_698" cx="0" cy="0" r="1" gradientUnits="userSpaceOnUse" gradientTransform="translate(219.121 354.276) rotate(90) scale(24.126 420.664)">
<stop offset="0.564" stop-color="#A46D93"/>
<stop offset="1" stop-color="#B36B8A" stop-opacity="0"/>
</radialGradient>
<radialGradient id="paint13_radial_3_698" cx="0" cy="0" r="1" gradientUnits="userSpaceOnUse" gradientTransform="translate(351.643 301.193) rotate(90) scale(246.354 584.124)">
<stop stop-color="#FD3163"/>
<stop offset="0.349" stop-color="#F62C56"/>
<stop offset="0.485" stop-color="#EF2B35"/>
<stop offset="0.698" stop-color="#AB342E"/>
</radialGradient>
<radialGradient id="paint14_radial_3_698" cx="0" cy="0" r="1" gradientUnits="userSpaceOnUse" gradientTransform="translate(219.12 383.81) rotate(90) scale(60.5567 523.454)">
<stop offset="0.463" stop-color="#B25167"/>
<stop offset="0.59" stop-color="#BF314F"/>
<stop offset="1" stop-color="#DC294C" stop-opacity="0"/>
</radialGradient>
<linearGradient id="paint15_linear_3_698" x1="395.089" y1="295.845" x2="179.456" y2="295.845" gradientUnits="userSpaceOnUse">
<stop stop-color="#F8486E"/>
<stop offset="1" stop-color="#F5466C" stop-opacity="0"/>
</linearGradient>
<linearGradient id="paint16_linear_3_698" x1="116.714" y1="238.035" x2="116.714" y2="303.749" gradientUnits="userSpaceOnUse">
<stop stop-color="#E54851"/>
<stop offset="0.295" stop-color="#FE6A74"/>
<stop offset="1" stop-color="#FF646F"/>
</linearGradient>
<linearGradient id="paint17_linear_3_698" x1="219.119" y1="238.035" x2="219.119" y2="303.749" gradientUnits="userSpaceOnUse">
<stop stop-color="#E54851"/>
<stop offset="0.174" stop-color="#F4646E"/>
<stop offset="1" stop-color="#FF7882"/>
</linearGradient>
<radialGradient id="paint18_radial_3_698" cx="0" cy="0" r="1" gradientUnits="userSpaceOnUse" gradientTransform="translate(489.893 123.839) rotate(149.454) scale(59.6117 63.9114)">
<stop stop-color="#FFAC70"/>
<stop offset="1" stop-color="#FFAC70" stop-opacity="0"/>
</radialGradient>
<radialGradient id="paint19_radial_3_698" cx="0" cy="0" r="1" gradientUnits="userSpaceOnUse" gradientTransform="translate(412.356 322.001) rotate(149.454) scale(59.6117 63.9114)">
<stop stop-color="#FF7490"/>
<stop offset="1" stop-color="#FF718E" stop-opacity="0"/>
</radialGradient>
</defs>
</svg>
