<svg width="512" height="512" viewBox="0 0 512 512" fill="none" xmlns="http://www.w3.org/2000/svg">
<path d="M216.422 140.713C106.85 140.713 18.0266 230.398 18.0266 341.035V392.31C18.0266 417.855 38.5943 438.623 63.8943 438.623H369.133C394.433 438.623 415 417.855 415 392.31V341.218C414.818 230.398 325.995 140.713 216.422 140.713V140.713Z" fill="#E38F38"/>
<path d="M191.669 197.685C154.74 197.685 119.323 212.498 93.2105 238.864C67.0977 265.23 52.4277 300.991 52.4277 338.278V374.299C52.4277 392.31 66.8069 406.829 84.6443 406.829H298.875C316.713 406.829 331.092 392.31 331.092 374.299V338.278C330.91 260.722 268.479 197.685 191.669 197.685V197.685Z" fill="#68394F"/>
<path d="M416.456 155.231C415.91 155.231 415.182 155.231 414.636 155.048C383.329 153.394 354.935 137.588 335.278 112.778C325.787 100.708 313.723 90.953 299.984 84.2394C286.244 77.5257 271.183 74.0259 255.919 74C223.885 74 195.126 89.0701 176.561 112.778C157.085 137.588 128.509 153.394 97.2026 155.048C96.6566 155.048 95.9285 155.048 95.3825 155.231C45.3285 158.723 4.92127 199.707 1.28098 250.247C-3.08737 310.711 44.0544 361.251 102.663 361.251C156.175 361.251 200.041 319.165 204.045 265.868C219.334 275.057 236.99 280.387 255.919 280.387C274.849 280.387 292.686 275.057 307.793 265.868C311.798 319.165 355.663 361.251 409.176 361.251C467.966 361.251 514.926 310.711 510.558 250.247C506.917 199.523 466.328 158.723 416.456 155.231V155.231Z" fill="url(#paint0_linear_3_1089)"/>
<path d="M416.456 155.231C415.91 155.231 415.182 155.231 414.636 155.048C383.329 153.394 354.935 137.588 335.278 112.778C325.787 100.708 313.723 90.953 299.984 84.2394C286.244 77.5257 271.183 74.0259 255.919 74C223.885 74 195.126 89.0701 176.561 112.778C157.085 137.588 128.509 153.394 97.2026 155.048C96.6566 155.048 95.9285 155.048 95.3825 155.231C45.3285 158.723 4.92127 199.707 1.28098 250.247C-3.08737 310.711 44.0544 361.251 102.663 361.251C156.175 361.251 200.041 319.165 204.045 265.868C219.334 275.057 236.99 280.387 255.919 280.387C274.849 280.387 292.686 275.057 307.793 265.868C311.798 319.165 355.663 361.251 409.176 361.251C467.966 361.251 514.926 310.711 510.558 250.247C506.917 199.523 466.328 158.723 416.456 155.231V155.231Z" fill="url(#paint1_radial_3_1089)"/>
<path d="M416.456 155.231C415.91 155.231 415.182 155.231 414.636 155.048C383.329 153.394 354.935 137.588 335.278 112.778C325.787 100.708 313.723 90.953 299.984 84.2394C286.244 77.5257 271.183 74.0259 255.919 74C223.885 74 195.126 89.0701 176.561 112.778C157.085 137.588 128.509 153.394 97.2026 155.048C96.6566 155.048 95.9285 155.048 95.3825 155.231C45.3285 158.723 4.92127 199.707 1.28098 250.247C-3.08737 310.711 44.0544 361.251 102.663 361.251C156.175 361.251 200.041 319.165 204.045 265.868C219.334 275.057 236.99 280.387 255.919 280.387C274.849 280.387 292.686 275.057 307.793 265.868C311.798 319.165 355.663 361.251 409.176 361.251C467.966 361.251 514.926 310.711 510.558 250.247C506.917 199.523 466.328 158.723 416.456 155.231V155.231Z" fill="url(#paint2_radial_3_1089)"/>
<path d="M416.456 155.231C415.91 155.231 415.182 155.231 414.636 155.048C383.329 153.394 354.935 137.588 335.278 112.778C325.787 100.708 313.723 90.953 299.984 84.2394C286.244 77.5257 271.183 74.0259 255.919 74C223.885 74 195.126 89.0701 176.561 112.778C157.085 137.588 128.509 153.394 97.2026 155.048C96.6566 155.048 95.9285 155.048 95.3825 155.231C45.3285 158.723 4.92127 199.707 1.28098 250.247C-3.08737 310.711 44.0544 361.251 102.663 361.251C156.175 361.251 200.041 319.165 204.045 265.868C219.334 275.057 236.99 280.387 255.919 280.387C274.849 280.387 292.686 275.057 307.793 265.868C311.798 319.165 355.663 361.251 409.176 361.251C467.966 361.251 514.926 310.711 510.558 250.247C506.917 199.523 466.328 158.723 416.456 155.231V155.231Z" fill="url(#paint3_radial_3_1089)"/>
<path d="M129.601 331.294C148.717 331.294 167.051 323.627 180.568 309.978C194.085 296.33 201.679 277.819 201.679 258.517C201.679 239.215 194.085 220.704 180.568 207.055C167.051 193.407 148.717 185.739 129.601 185.739C110.485 185.739 92.1517 193.407 78.6345 207.055C65.1173 220.704 57.5234 239.215 57.5234 258.517C57.5234 277.819 65.1173 296.33 78.6345 309.978C92.1517 323.627 110.485 331.294 129.601 331.294V331.294Z" fill="url(#paint4_radial_3_1089)"/>
<path d="M374.411 253.371C393.527 253.371 411.86 245.703 425.378 232.055C438.895 218.406 446.489 199.895 446.489 180.593C446.489 161.291 438.895 142.78 425.378 129.132C411.86 115.483 393.527 107.816 374.411 107.816C355.295 107.816 336.962 115.483 323.444 129.132C309.927 142.78 302.333 161.291 302.333 180.593C302.333 199.895 309.927 218.406 323.444 232.055C336.962 245.703 355.295 253.371 374.411 253.371V253.371Z" fill="url(#paint5_radial_3_1089)"/>
<path d="M293.779 140.713C184.206 140.713 95.3828 230.398 95.3828 341.035V392.31C95.3828 417.855 115.95 438.623 141.25 438.623H446.489C471.789 438.623 492.357 417.855 492.357 392.31V341.218C492.174 230.398 403.351 140.713 293.779 140.713V140.713Z" fill="url(#paint6_radial_3_1089)"/>
<path d="M293.779 140.713C184.206 140.713 95.3828 230.398 95.3828 341.035V392.31C95.3828 417.855 115.95 438.623 141.25 438.623H446.489C471.789 438.623 492.357 417.855 492.357 392.31V341.218C492.174 230.398 403.351 140.713 293.779 140.713V140.713Z" fill="url(#paint7_linear_3_1089)"/>
<defs>
<linearGradient id="paint0_linear_3_1089" x1="1.00795" y1="217.625" x2="510.849" y2="217.625" gradientUnits="userSpaceOnUse">
<stop stop-color="#499976"/>
<stop offset="0.324" stop-color="#5E9C59"/>
<stop offset="0.518" stop-color="#6EB25B"/>
<stop offset="1" stop-color="#86B942"/>
</linearGradient>
<radialGradient id="paint1_radial_3_1089" cx="0" cy="0" r="1" gradientUnits="userSpaceOnUse" gradientTransform="translate(329.781 123.401) rotate(97.3607) scale(53.2763 118.806)">
<stop stop-color="#91C575"/>
<stop offset="1" stop-color="#92DE69" stop-opacity="0"/>
</radialGradient>
<radialGradient id="paint2_radial_3_1089" cx="0" cy="0" r="1" gradientUnits="userSpaceOnUse" gradientTransform="translate(482.218 208.4) rotate(67.7616) scale(135.262 59.6717)">
<stop stop-color="#ADE76F"/>
<stop offset="1" stop-color="#AFEA71" stop-opacity="0"/>
</radialGradient>
<radialGradient id="paint3_radial_3_1089" cx="0" cy="0" r="1" gradientUnits="userSpaceOnUse" gradientTransform="translate(68.1349 361.251) rotate(25.573) scale(124.853 164.989)">
<stop stop-color="#446568"/>
<stop offset="1" stop-color="#446667" stop-opacity="0"/>
</radialGradient>
<radialGradient id="paint4_radial_3_1089" cx="0" cy="0" r="1" gradientUnits="userSpaceOnUse" gradientTransform="translate(154.568 226.775) rotate(124.929) scale(109.278 108.92)">
<stop stop-color="#D33B44"/>
<stop offset="0.534" stop-color="#F03B72"/>
<stop offset="0.876" stop-color="#E73F89"/>
</radialGradient>
<radialGradient id="paint5_radial_3_1089" cx="0" cy="0" r="1" gradientUnits="userSpaceOnUse" gradientTransform="translate(421.913 146.38) rotate(142.163) scale(112.353 112.626)">
<stop stop-color="#FF6A7F"/>
<stop offset="0.649" stop-color="#F43668"/>
</radialGradient>
<radialGradient id="paint6_radial_3_1089" cx="0" cy="0" r="1" gradientUnits="userSpaceOnUse" gradientTransform="translate(162.546 393.328) rotate(-28.8222) scale(376.452 360.516)">
<stop offset="0.169" stop-color="#EFB44C"/>
<stop offset="0.684" stop-color="#F6D34B"/>
<stop offset="0.896" stop-color="#FFE657"/>
</radialGradient>
<linearGradient id="paint7_linear_3_1089" x1="293.87" y1="140.713" x2="293.87" y2="438.623" gradientUnits="userSpaceOnUse">
<stop offset="0.886" stop-color="#ECB24E" stop-opacity="0"/>
<stop offset="1" stop-color="#E49E53"/>
</linearGradient>
</defs>
</svg>
