<svg width="512" height="512" viewBox="0 0 512 512" fill="none" xmlns="http://www.w3.org/2000/svg">
<path d="M383.529 174.601L285.888 89.3935C267.603 78.6055 244.93 78.6055 226.645 89.3935L129.187 174.601L96.6406 173.869C76.8896 173.416 57.4978 179.196 41.2179 190.388C24.938 201.58 12.5975 217.617 5.94812 236.22C-1.18293 255.054 -0.634394 276.081 7.7766 294.366C13.6277 307.348 23.1358 318.319 35.2038 325.998L193.367 421.262C212.432 432.572 234.191 438.541 256.358 438.541C278.525 438.541 300.284 432.572 319.349 421.262L477.512 325.998C489.397 318.319 498.905 307.348 504.939 294.366C513.35 276.081 514.082 255.054 506.768 236.22C500.159 217.576 487.834 201.494 471.549 190.265C455.264 179.037 435.851 173.235 416.075 173.686L383.529 174.601Z" fill="url(#paint0_linear_3_1182)"/>
<path d="M383.529 174.601L285.888 89.3935C267.603 78.6055 244.93 78.6055 226.645 89.3935L129.187 174.601L96.6406 173.869C76.8896 173.416 57.4978 179.196 41.2179 190.388C24.938 201.58 12.5975 217.617 5.94812 236.22C-1.18293 255.054 -0.634394 276.081 7.7766 294.366C13.6277 307.348 23.1358 318.319 35.2038 325.998L193.367 421.262C212.432 432.572 234.191 438.541 256.358 438.541C278.525 438.541 300.284 432.572 319.349 421.262L477.512 325.998C489.397 318.319 498.905 307.348 504.939 294.366C513.35 276.081 514.082 255.054 506.768 236.22C500.159 217.576 487.834 201.494 471.549 190.265C455.264 179.037 435.851 173.235 416.075 173.686L383.529 174.601Z" fill="url(#paint1_radial_3_1182)"/>
<path d="M383.529 174.601L285.888 89.3935C267.603 78.6055 244.93 78.6055 226.645 89.3935L129.187 174.601L96.6406 173.869C76.8896 173.416 57.4978 179.196 41.2179 190.388C24.938 201.58 12.5975 217.617 5.94812 236.22C-1.18293 255.054 -0.634394 276.081 7.7766 294.366C13.6277 307.348 23.1358 318.319 35.2038 325.998L193.367 421.262C212.432 432.572 234.191 438.541 256.358 438.541C278.525 438.541 300.284 432.572 319.349 421.262L477.512 325.998C489.397 318.319 498.905 307.348 504.939 294.366C513.35 276.081 514.082 255.054 506.768 236.22C500.159 217.576 487.834 201.494 471.549 190.265C455.264 179.037 435.851 173.235 416.075 173.686L383.529 174.601Z" fill="url(#paint2_radial_3_1182)"/>
<path d="M383.529 174.601L285.888 89.3935C267.603 78.6055 244.93 78.6055 226.645 89.3935L129.187 174.601L96.6406 173.869C76.8896 173.416 57.4978 179.196 41.2179 190.388C24.938 201.58 12.5975 217.617 5.94812 236.22C-1.18293 255.054 -0.634394 276.081 7.7766 294.366C13.6277 307.348 23.1358 318.319 35.2038 325.998L193.367 421.262C212.432 432.572 234.191 438.541 256.358 438.541C278.525 438.541 300.284 432.572 319.349 421.262L477.512 325.998C489.397 318.319 498.905 307.348 504.939 294.366C513.35 276.081 514.082 255.054 506.768 236.22C500.159 217.576 487.834 201.494 471.549 190.265C455.264 179.037 435.851 173.235 416.075 173.686L383.529 174.601Z" fill="url(#paint3_radial_3_1182)"/>
<path d="M383.529 174.601L285.888 89.3935C267.603 78.6055 244.93 78.6055 226.645 89.3935L129.187 174.601L96.6406 173.869C76.8896 173.416 57.4978 179.196 41.2179 190.388C24.938 201.58 12.5975 217.617 5.94812 236.22C-1.18293 255.054 -0.634394 276.081 7.7766 294.366C13.6277 307.348 23.1358 318.319 35.2038 325.998L193.367 421.262C212.432 432.572 234.191 438.541 256.358 438.541C278.525 438.541 300.284 432.572 319.349 421.262L477.512 325.998C489.397 318.319 498.905 307.348 504.939 294.366C513.35 276.081 514.082 255.054 506.768 236.22C500.159 217.576 487.834 201.494 471.549 190.265C455.264 179.037 435.851 173.235 416.075 173.686L383.529 174.601Z" fill="url(#paint4_radial_3_1182)"/>
<path d="M221.709 82.4634L47.0891 185.955C21.4905 201.132 21.4905 238.067 47.0891 253.06L221.709 356.552C243.102 369.169 269.615 369.169 291.008 356.552L465.628 253.06C491.226 237.884 491.226 200.949 465.628 185.955L291.008 82.4634C280.512 76.2679 268.547 73 256.358 73C244.17 73 232.205 76.2679 221.709 82.4634V82.4634Z" fill="url(#paint5_radial_3_1182)"/>
<path d="M221.709 82.4634L47.0891 185.955C21.4905 201.132 21.4905 238.067 47.0891 253.06L221.709 356.552C243.102 369.169 269.615 369.169 291.008 356.552L465.628 253.06C491.226 237.884 491.226 200.949 465.628 185.955L291.008 82.4634C280.512 76.2679 268.547 73 256.358 73C244.17 73 232.205 76.2679 221.709 82.4634V82.4634Z" fill="url(#paint6_radial_3_1182)"/>
<path d="M221.709 82.4634L47.0891 185.955C21.4905 201.132 21.4905 238.067 47.0891 253.06L221.709 356.552C243.102 369.169 269.615 369.169 291.008 356.552L465.628 253.06C491.226 237.884 491.226 200.949 465.628 185.955L291.008 82.4634C280.512 76.2679 268.547 73 256.358 73C244.17 73 232.205 76.2679 221.709 82.4634V82.4634Z" fill="url(#paint7_linear_3_1182)"/>
<path d="M221.709 82.4634L47.0891 185.955C21.4905 201.132 21.4905 238.067 47.0891 253.06L221.709 356.552C243.102 369.169 269.615 369.169 291.008 356.552L465.628 253.06C491.226 237.884 491.226 200.949 465.628 185.955L291.008 82.4634C280.512 76.2679 268.547 73 256.358 73C244.17 73 232.205 76.2679 221.709 82.4634V82.4634Z" fill="url(#paint8_linear_3_1182)"/>
<path d="M247.49 271.894L220.794 287.619C213.297 292.007 213.297 302.978 220.794 307.549L247.49 323.274C252.975 326.565 259.741 326.565 265.043 323.274L291.739 307.549C299.236 303.161 299.236 292.19 291.739 287.619L265.043 271.894C262.401 270.278 259.364 269.423 256.266 269.423C253.169 269.423 250.132 270.278 247.49 271.894Z" fill="url(#paint9_radial_3_1182)"/>
<path d="M178.922 232.197L152.227 247.922C144.73 252.31 144.73 263.281 152.227 267.852L178.922 283.577C184.408 286.869 191.173 286.869 196.476 283.577L223.171 267.852C230.668 263.464 230.668 252.493 223.171 247.922L196.476 232.197C193.833 230.581 190.796 229.726 187.699 229.726C184.602 229.726 181.565 230.581 178.922 232.197Z" fill="url(#paint10_radial_3_1182)"/>
<path d="M110.172 192.519L83.4758 208.244C75.9791 212.632 75.9791 223.603 83.4758 228.174L110.172 243.899C115.657 247.191 122.422 247.191 127.725 243.899L154.421 228.174C161.917 223.786 161.917 212.815 154.421 208.244L127.725 192.519C125.083 190.903 122.046 190.048 118.948 190.048C115.851 190.048 112.814 190.903 110.172 192.519V192.519Z" fill="url(#paint11_radial_3_1182)"/>
<path d="M316.24 229.473L289.545 245.198C282.048 249.586 282.048 260.557 289.545 265.128L316.24 280.853C321.726 284.144 328.491 284.144 333.794 280.853L360.49 265.128C367.986 260.74 367.986 249.769 360.49 245.198L333.794 229.473C331.152 227.857 328.114 227.002 325.017 227.002C321.92 227.002 318.883 227.857 316.24 229.473V229.473Z" fill="url(#paint12_radial_3_1182)"/>
<path opacity="0.5" d="M247.49 189.777L220.794 205.502C213.297 209.89 213.297 220.861 220.794 225.432L247.49 241.157C252.975 244.449 259.741 244.449 265.043 241.157L291.739 225.432C299.236 221.044 299.236 210.073 291.739 205.502L265.043 189.777C262.401 188.161 259.364 187.306 256.266 187.306C253.169 187.306 250.132 188.161 247.49 189.777V189.777Z" fill="url(#paint13_linear_3_1182)"/>
<path d="M178.922 150.098L152.227 165.823C144.73 170.212 144.73 181.182 152.227 185.754L178.922 201.479C184.408 204.77 191.173 204.77 196.476 201.479L223.171 185.754C230.668 181.365 230.668 170.394 223.171 165.823L196.476 150.098C193.833 148.482 190.796 147.627 187.699 147.627C184.602 147.627 181.565 148.482 178.922 150.098V150.098Z" fill="url(#paint14_radial_3_1182)"/>
<path d="M384.991 187.052L358.295 202.777C350.798 207.166 350.798 218.136 358.295 222.708L384.991 238.615C390.476 241.907 397.242 241.907 402.544 238.615L429.24 222.891C436.737 218.502 436.737 207.531 429.24 202.96L402.544 187.235C399.934 185.551 396.9 184.64 393.794 184.608C390.688 184.575 387.636 185.423 384.991 187.052V187.052Z" fill="url(#paint15_radial_3_1182)"/>
<path d="M316.24 147.375L289.545 163.1C282.048 167.488 282.048 178.459 289.545 183.03L316.24 198.755C321.726 202.046 328.491 202.046 333.794 198.755L360.49 183.03C367.986 178.642 367.986 167.671 360.49 163.1L333.794 147.375C331.152 145.759 328.114 144.904 325.017 144.904C321.92 144.904 318.883 145.759 316.24 147.375Z" fill="url(#paint16_radial_3_1182)"/>
<path d="M247.49 107.697L220.794 123.422C213.297 127.81 213.297 138.781 220.794 143.352L247.49 159.077C252.975 162.368 259.741 162.368 265.043 159.077L291.739 143.352C299.236 138.964 299.236 127.993 291.739 123.422L265.226 107.697C262.55 106.082 259.483 105.229 256.358 105.229C253.232 105.229 250.166 106.082 247.49 107.697V107.697Z" fill="url(#paint17_radial_3_1182)"/>
<g filter="url(#filter0_f_3_1182)">
<path d="M277.477 194.439L270.401 189.466C265.975 186.297 260.668 184.594 255.224 184.594C249.781 184.594 244.474 186.297 240.048 189.466L232.826 194.439H180.33V233.44C180.33 241.083 183.438 251.158 189.838 255.565L240.048 285.259C244.473 288.43 249.781 290.135 255.224 290.135C260.668 290.135 265.976 288.43 270.401 285.259L323.244 255.547C329.643 251.158 330.137 240.901 330.137 233.422V194.439H277.477V194.439Z" fill="#7A4423"/>
</g>
<path d="M281.134 189.228L273.272 184.474C262.849 178.258 249.867 178.258 239.445 184.474L231.399 189.228H172.888V226.529C172.888 233.843 176.362 240.974 183.493 245.18L239.445 278.275C249.867 284.492 262.849 284.492 273.272 278.275L329.223 245.18C336.354 240.974 339.828 233.66 339.828 226.529V189.228H281.134Z" fill="url(#paint18_linear_3_1182)"/>
<path d="M281.134 189.228L273.272 184.474C262.849 178.258 249.867 178.258 239.445 184.474L231.399 189.228H172.888V226.529C172.888 233.843 176.362 240.974 183.493 245.18L239.445 278.275C249.867 284.492 262.849 284.492 273.272 278.275L329.223 245.18C336.354 240.974 339.828 233.66 339.828 226.529V189.228H281.134Z" fill="#E7BB2B"/>
<path d="M239.444 138.598L183.493 171.876C180.232 173.799 177.53 176.539 175.653 179.826C173.775 183.113 172.788 186.833 172.788 190.618C172.788 194.403 173.775 198.123 175.653 201.41C177.53 204.697 180.232 207.437 183.493 209.36L239.444 242.455C249.866 248.672 262.849 248.672 273.271 242.455L329.222 209.36C343.484 200.949 343.484 180.287 329.222 171.876L273.271 138.781C262.849 132.381 249.866 132.381 239.444 138.598V138.598Z" fill="#EAD237"/>
<g filter="url(#filter1_f_3_1182)">
<path d="M488.995 218.703C493.273 228.412 488.41 242.876 462.701 256.973C427.265 276.41 298.998 364.689 255.279 364.689C216.149 364.689 103.003 291.733 39.0065 248.69C27.4871 240.956 23.2816 226.694 33.5759 214.132" stroke="url(#paint19_linear_3_1182)" stroke-width="0.75" stroke-linecap="round"/>
</g>
<g filter="url(#filter2_f_3_1182)">
<path d="M336.427 201.278C333.867 206.397 331.893 206.928 326.992 210.42C320.593 214.991 287.68 232.983 266.708 244.978" stroke="url(#paint20_radial_3_1182)" stroke-width="0.3" stroke-linecap="round"/>
</g>
<g filter="url(#filter3_f_3_1182)">
<path d="M180.33 202.668C182.89 207.806 184.865 208.318 189.747 211.81C196.146 216.381 229.096 234.374 250.032 246.368" stroke="url(#paint21_radial_3_1182)" stroke-width="0.3" stroke-linecap="round"/>
</g>
<defs>
<filter id="filter0_f_3_1182" x="179.33" y="183.594" width="151.807" height="107.542" filterUnits="userSpaceOnUse" color-interpolation-filters="sRGB">
<feFlood flood-opacity="0" result="BackgroundImageFix"/>
<feBlend mode="normal" in="SourceGraphic" in2="BackgroundImageFix" result="shape"/>
<feGaussianBlur stdDeviation="0.5" result="effect1_foregroundBlur_3_1182"/>
</filter>
<filter id="filter1_f_3_1182" x="27.0962" y="213.507" width="463.902" height="151.807" filterUnits="userSpaceOnUse" color-interpolation-filters="sRGB">
<feFlood flood-opacity="0" result="BackgroundImageFix"/>
<feBlend mode="normal" in="SourceGraphic" in2="BackgroundImageFix" result="shape"/>
<feGaussianBlur stdDeviation="0.125" result="effect1_foregroundBlur_3_1182"/>
</filter>
<filter id="filter2_f_3_1182" x="266.307" y="200.878" width="70.52" height="44.5006" filterUnits="userSpaceOnUse" color-interpolation-filters="sRGB">
<feFlood flood-opacity="0" result="BackgroundImageFix"/>
<feBlend mode="normal" in="SourceGraphic" in2="BackgroundImageFix" result="shape"/>
<feGaussianBlur stdDeviation="0.125" result="effect1_foregroundBlur_3_1182"/>
</filter>
<filter id="filter3_f_3_1182" x="179.93" y="202.268" width="70.5017" height="44.5007" filterUnits="userSpaceOnUse" color-interpolation-filters="sRGB">
<feFlood flood-opacity="0" result="BackgroundImageFix"/>
<feBlend mode="normal" in="SourceGraphic" in2="BackgroundImageFix" result="shape"/>
<feGaussianBlur stdDeviation="0.125" result="effect1_foregroundBlur_3_1182"/>
</filter>
<linearGradient id="paint0_linear_3_1182" x1="488.995" y1="303.837" x2="31.8759" y2="303.837" gradientUnits="userSpaceOnUse">
<stop stop-color="#F8C199"/>
<stop offset="0.994" stop-color="#EE9D67"/>
</linearGradient>
<radialGradient id="paint1_radial_3_1182" cx="0" cy="0" r="1" gradientUnits="userSpaceOnUse" gradientTransform="translate(474.13 334.684) rotate(150.132) scale(461.244 72.5872)">
<stop stop-color="#D28890"/>
<stop offset="0.858" stop-color="#D4868E" stop-opacity="0"/>
<stop offset="1" stop-color="#DB7E89" stop-opacity="0"/>
</radialGradient>
<radialGradient id="paint2_radial_3_1182" cx="0" cy="0" r="1" gradientUnits="userSpaceOnUse" gradientTransform="translate(256.413 451.249) rotate(90) scale(92.5666 63.4988)">
<stop offset="0.46" stop-color="#E2878B"/>
<stop offset="1" stop-color="#E48C8C" stop-opacity="0"/>
</radialGradient>
<radialGradient id="paint3_radial_3_1182" cx="0" cy="0" r="1" gradientUnits="userSpaceOnUse" gradientTransform="translate(90.1495 356.406) rotate(28.7151) scale(299.7 43.96)">
<stop stop-color="#DE887C"/>
<stop offset="1" stop-color="#E28C7F" stop-opacity="0"/>
</radialGradient>
<radialGradient id="paint4_radial_3_1182" cx="0" cy="0" r="1" gradientUnits="userSpaceOnUse" gradientTransform="translate(530.124 240.979) rotate(137.07) scale(67.1144 95.9621)">
<stop stop-color="#FAC796"/>
<stop offset="1" stop-color="#F9C796" stop-opacity="0"/>
</radialGradient>
<radialGradient id="paint5_radial_3_1182" cx="0" cy="0" r="1" gradientUnits="userSpaceOnUse" gradientTransform="translate(85.5818 232.989) rotate(10.766) scale(330.369 515.192)">
<stop stop-color="#F3A363"/>
<stop offset="1" stop-color="#EEBA87"/>
</radialGradient>
<radialGradient id="paint6_radial_3_1182" cx="0" cy="0" r="1" gradientUnits="userSpaceOnUse" gradientTransform="translate(135.862 339.273) rotate(17.2415) scale(277.603 246.027)">
<stop stop-color="#E59B59"/>
<stop offset="1" stop-color="#E49B59" stop-opacity="0"/>
</radialGradient>
<linearGradient id="paint7_linear_3_1182" x1="102.73" y1="317.551" x2="211.286" y2="178.129" gradientUnits="userSpaceOnUse">
<stop offset="0.126" stop-color="#E29754"/>
<stop offset="0.255" stop-color="#E29856" stop-opacity="0"/>
</linearGradient>
<linearGradient id="paint8_linear_3_1182" x1="336.994" y1="322.122" x2="282.14" y2="234.136" gradientUnits="userSpaceOnUse">
<stop stop-color="#E6A868"/>
<stop offset="0.26" stop-color="#E8AB6B" stop-opacity="0"/>
</linearGradient>
<radialGradient id="paint9_radial_3_1182" cx="0" cy="0" r="1" gradientUnits="userSpaceOnUse" gradientTransform="translate(237.579 304.989) rotate(90) scale(30.8555 81.3965)">
<stop offset="0.583" stop-color="#B1764B"/>
<stop offset="0.817" stop-color="#8F5630"/>
</radialGradient>
<radialGradient id="paint10_radial_3_1182" cx="0" cy="0" r="1" gradientUnits="userSpaceOnUse" gradientTransform="translate(170.932 257.906) rotate(92.8737) scale(38.309 76.6628)">
<stop offset="0.583" stop-color="#A76E47"/>
<stop offset="0.817" stop-color="#8F5630"/>
</radialGradient>
<radialGradient id="paint11_radial_3_1182" cx="0" cy="0" r="1" gradientUnits="userSpaceOnUse" gradientTransform="translate(102.181 218.209) rotate(92.8737) scale(38.3091 76.6628)">
<stop offset="0.583" stop-color="#A26F4E"/>
<stop offset="0.817" stop-color="#8F5630"/>
</radialGradient>
<radialGradient id="paint12_radial_3_1182" cx="0" cy="0" r="1" gradientUnits="userSpaceOnUse" gradientTransform="translate(306.147 261.562) rotate(89.6712) scale(31.8617 84.0504)">
<stop offset="0.583" stop-color="#B2764A"/>
<stop offset="0.817" stop-color="#8F5630"/>
</radialGradient>
<linearGradient id="paint13_linear_3_1182" x1="279.36" y1="192.502" x2="233.374" y2="238.488" gradientUnits="userSpaceOnUse">
<stop stop-color="#9C634D"/>
<stop offset="0.385" stop-color="#7F4B3B"/>
<stop offset="0.755" stop-color="#6B392F"/>
<stop offset="1" stop-color="#63332A"/>
</linearGradient>
<radialGradient id="paint14_radial_3_1182" cx="0" cy="0" r="1" gradientUnits="userSpaceOnUse" gradientTransform="translate(170.932 175.807) rotate(92.8737) scale(38.3091 76.6628)">
<stop offset="0.583" stop-color="#AC7752"/>
<stop offset="0.817" stop-color="#8F5630"/>
</radialGradient>
<radialGradient id="paint15_radial_3_1182" cx="0" cy="0" r="1" gradientUnits="userSpaceOnUse" gradientTransform="translate(377 212.834) rotate(92.8656) scale(38.4181 76.6633)">
<stop offset="0.583" stop-color="#A4704E"/>
<stop offset="0.817" stop-color="#8F5630"/>
</radialGradient>
<radialGradient id="paint16_radial_3_1182" cx="0" cy="0" r="1" gradientUnits="userSpaceOnUse" gradientTransform="translate(308.25 173.065) rotate(92.8737) scale(38.3091 76.6628)">
<stop offset="0.583" stop-color="#A97451"/>
<stop offset="0.817" stop-color="#8F5630"/>
</radialGradient>
<radialGradient id="paint17_radial_3_1182" cx="0" cy="0" r="1" gradientUnits="userSpaceOnUse" gradientTransform="translate(239.499 133.387) rotate(92.8737) scale(38.3091 76.6628)">
<stop offset="0.583" stop-color="#AD7853"/>
<stop offset="0.817" stop-color="#8F5630"/>
</radialGradient>
<linearGradient id="paint18_linear_3_1182" x1="175.448" y1="231.393" x2="339.846" y2="231.393" gradientUnits="userSpaceOnUse">
<stop stop-color="#C7A22B"/>
<stop offset="1" stop-color="#E8C12E"/>
</linearGradient>
<linearGradient id="paint19_linear_3_1182" x1="28.1454" y1="246.697" x2="287.533" y2="11.0797" gradientUnits="userSpaceOnUse">
<stop stop-color="#F0A264" stop-opacity="0"/>
<stop offset="0.124" stop-color="#F4AE75"/>
<stop offset="0.368" stop-color="#F5B98F"/>
<stop offset="0.969" stop-color="#FDCEA1"/>
<stop offset="1" stop-color="#FDCEA1" stop-opacity="0"/>
</linearGradient>
<radialGradient id="paint20_radial_3_1182" cx="0" cy="0" r="1" gradientUnits="userSpaceOnUse" gradientTransform="translate(309 223.11) rotate(145.72) scale(88.5145 89.4954)">
<stop stop-color="#F4D154"/>
<stop offset="1" stop-color="#F4D154" stop-opacity="0"/>
</radialGradient>
<radialGradient id="paint21_radial_3_1182" cx="0" cy="0" r="1" gradientUnits="userSpaceOnUse" gradientTransform="translate(207.757 224.518) rotate(34.2799) scale(88.5144 89.4954)">
<stop stop-color="#F0CB4B"/>
<stop offset="1" stop-color="#F4D154" stop-opacity="0"/>
</radialGradient>
</defs>
</svg>
